G04 #@! TF.FileFunction,Soldermask,Top*
%FSLAX46Y46*%
G04 Gerber Fmt 4.6, Leading zero omitted, Abs format (unit mm)*
G04 Created by KiCad (PCBNEW 4.0.4-snap1-stable) date Wed Apr 29 16:08:13 2020*
%MOMM*%
%LPD*%
G01*
G04 APERTURE LIST*
%ADD10C,0.100000*%
%ADD11C,0.300000*%
%ADD12C,1.040000*%
%ADD13C,1.670000*%
%ADD14O,3.900120X7.400240*%
%ADD15O,2.000200X2.899360*%
%ADD16C,1.492200*%
%ADD17C,2.609800*%
%ADD18C,3.016200*%
%ADD19C,3.100000*%
%ADD20R,3.100000X3.100000*%
G04 APERTURE END LIST*
D10*
D11*
X215641429Y-25108571D02*
X215927143Y-25108571D01*
X216070001Y-25180000D01*
X216212858Y-25322857D01*
X216284286Y-25608571D01*
X216284286Y-26108571D01*
X216212858Y-26394286D01*
X216070001Y-26537143D01*
X215927143Y-26608571D01*
X215641429Y-26608571D01*
X215498572Y-26537143D01*
X215355715Y-26394286D01*
X215284286Y-26108571D01*
X215284286Y-25608571D01*
X215355715Y-25322857D01*
X215498572Y-25180000D01*
X215641429Y-25108571D01*
X217427144Y-25822857D02*
X216927144Y-25822857D01*
X216927144Y-26608571D02*
X216927144Y-25108571D01*
X217641430Y-25108571D01*
X218712858Y-25822857D02*
X218212858Y-25822857D01*
X218212858Y-26608571D02*
X218212858Y-25108571D01*
X218927144Y-25108571D01*
X216441428Y-20048571D02*
X216727142Y-20048571D01*
X216870000Y-20120000D01*
X217012857Y-20262857D01*
X217084285Y-20548571D01*
X217084285Y-21048571D01*
X217012857Y-21334286D01*
X216870000Y-21477143D01*
X216727142Y-21548571D01*
X216441428Y-21548571D01*
X216298571Y-21477143D01*
X216155714Y-21334286D01*
X216084285Y-21048571D01*
X216084285Y-20548571D01*
X216155714Y-20262857D01*
X216298571Y-20120000D01*
X216441428Y-20048571D01*
X217727143Y-21548571D02*
X217727143Y-20048571D01*
X218584286Y-21548571D01*
X218584286Y-20048571D01*
X162571428Y-25298571D02*
X162857142Y-25298571D01*
X163000000Y-25370000D01*
X163142857Y-25512857D01*
X163214285Y-25798571D01*
X163214285Y-26298571D01*
X163142857Y-26584286D01*
X163000000Y-26727143D01*
X162857142Y-26798571D01*
X162571428Y-26798571D01*
X162428571Y-26727143D01*
X162285714Y-26584286D01*
X162214285Y-26298571D01*
X162214285Y-25798571D01*
X162285714Y-25512857D01*
X162428571Y-25370000D01*
X162571428Y-25298571D01*
X163857143Y-26798571D02*
X163857143Y-25298571D01*
X164714286Y-26798571D01*
X164714286Y-25298571D01*
X161681429Y-19318571D02*
X161967143Y-19318571D01*
X162110001Y-19390000D01*
X162252858Y-19532857D01*
X162324286Y-19818571D01*
X162324286Y-20318571D01*
X162252858Y-20604286D01*
X162110001Y-20747143D01*
X161967143Y-20818571D01*
X161681429Y-20818571D01*
X161538572Y-20747143D01*
X161395715Y-20604286D01*
X161324286Y-20318571D01*
X161324286Y-19818571D01*
X161395715Y-19532857D01*
X161538572Y-19390000D01*
X161681429Y-19318571D01*
X163467144Y-20032857D02*
X162967144Y-20032857D01*
X162967144Y-20818571D02*
X162967144Y-19318571D01*
X163681430Y-19318571D01*
X164752858Y-20032857D02*
X164252858Y-20032857D01*
X164252858Y-20818571D02*
X164252858Y-19318571D01*
X164967144Y-19318571D01*
D12*
X136515000Y-65535000D03*
X135245000Y-65535000D03*
X133975000Y-65535000D03*
X132705000Y-65535000D03*
X131435000Y-65535000D03*
X130165000Y-65535000D03*
X128895000Y-65535000D03*
X127625000Y-65535000D03*
X126355000Y-65535000D03*
X125085000Y-65535000D03*
X136515000Y-66805000D03*
X135245000Y-66805000D03*
X133975000Y-66805000D03*
X132705000Y-66805000D03*
X131435000Y-66805000D03*
X130165000Y-66805000D03*
X128895000Y-66805000D03*
X127625000Y-66805000D03*
X126355000Y-66805000D03*
X125085000Y-66805000D03*
X136515000Y-68075000D03*
X135245000Y-68075000D03*
X133975000Y-68075000D03*
X132705000Y-68075000D03*
X131435000Y-68075000D03*
X130165000Y-68075000D03*
X128895000Y-68075000D03*
X127625000Y-68075000D03*
X126355000Y-68075000D03*
X125085000Y-68075000D03*
X136515000Y-69345000D03*
X135245000Y-69345000D03*
X133975000Y-69345000D03*
X132705000Y-69345000D03*
X131435000Y-69345000D03*
X130165000Y-69345000D03*
X128895000Y-69345000D03*
X127625000Y-69345000D03*
X126355000Y-69345000D03*
X125085000Y-69345000D03*
X136515000Y-70615000D03*
X135245000Y-70615000D03*
X133975000Y-70615000D03*
X132705000Y-70615000D03*
X131435000Y-70615000D03*
X130165000Y-70615000D03*
X128895000Y-70615000D03*
X127625000Y-70615000D03*
X126355000Y-70615000D03*
X125085000Y-70615000D03*
X136515000Y-71885000D03*
X135245000Y-71885000D03*
X133975000Y-71885000D03*
X132705000Y-71885000D03*
X131435000Y-71885000D03*
X130165000Y-71885000D03*
X128895000Y-71885000D03*
X127625000Y-71885000D03*
X126355000Y-71885000D03*
X125085000Y-71885000D03*
X136515000Y-73155000D03*
X135245000Y-73155000D03*
X133975000Y-73155000D03*
X132705000Y-73155000D03*
X131435000Y-73155000D03*
X130165000Y-73155000D03*
X128895000Y-73155000D03*
X127625000Y-73155000D03*
X126355000Y-73155000D03*
X125085000Y-73155000D03*
X136515000Y-74425000D03*
X135245000Y-74425000D03*
X133975000Y-74425000D03*
X132705000Y-74425000D03*
X131435000Y-74425000D03*
X130165000Y-74425000D03*
X128895000Y-74425000D03*
X127625000Y-74425000D03*
X126355000Y-74425000D03*
X125085000Y-74425000D03*
X136515000Y-75695000D03*
X135245000Y-75695000D03*
X133975000Y-75695000D03*
X132705000Y-75695000D03*
X131435000Y-75695000D03*
X130165000Y-75695000D03*
X128895000Y-75695000D03*
X127625000Y-75695000D03*
X126355000Y-75695000D03*
X125085000Y-75695000D03*
X136515000Y-76965000D03*
X135245000Y-76965000D03*
X133975000Y-76965000D03*
X132705000Y-76965000D03*
X131435000Y-76965000D03*
X130165000Y-76965000D03*
X128895000Y-76965000D03*
X127625000Y-76965000D03*
X126355000Y-76965000D03*
X125085000Y-76965000D03*
X136515000Y-78235000D03*
X135245000Y-78235000D03*
X133975000Y-78235000D03*
X132705000Y-78235000D03*
X131435000Y-78235000D03*
X130165000Y-78235000D03*
X128895000Y-78235000D03*
X127625000Y-78235000D03*
X126355000Y-78235000D03*
X125085000Y-78235000D03*
X136515000Y-79505000D03*
X135245000Y-79505000D03*
X133975000Y-79505000D03*
X132705000Y-79505000D03*
X131435000Y-79505000D03*
X130165000Y-79505000D03*
X128895000Y-79505000D03*
X127625000Y-79505000D03*
X126355000Y-79505000D03*
X125085000Y-79505000D03*
X136515000Y-80775000D03*
X135245000Y-80775000D03*
X133975000Y-80775000D03*
X132705000Y-80775000D03*
X131435000Y-80775000D03*
X130165000Y-80775000D03*
X128895000Y-80775000D03*
X127625000Y-80775000D03*
X126355000Y-80775000D03*
X125085000Y-80775000D03*
X136515000Y-82045000D03*
X135245000Y-82045000D03*
X133975000Y-82045000D03*
X132705000Y-82045000D03*
X131435000Y-82045000D03*
X130165000Y-82045000D03*
X128895000Y-82045000D03*
X127625000Y-82045000D03*
X126355000Y-82045000D03*
X125085000Y-82045000D03*
X136515000Y-83315000D03*
X135245000Y-83315000D03*
X133975000Y-83315000D03*
X132705000Y-83315000D03*
X131435000Y-83315000D03*
X130165000Y-83315000D03*
X128895000Y-83315000D03*
X127625000Y-83315000D03*
X126355000Y-83315000D03*
X125085000Y-83315000D03*
X136515000Y-84585000D03*
X135245000Y-84585000D03*
X133975000Y-84585000D03*
X132705000Y-84585000D03*
X131435000Y-84585000D03*
X130165000Y-84585000D03*
X128895000Y-84585000D03*
X127625000Y-84585000D03*
X126355000Y-84585000D03*
X125085000Y-84585000D03*
X136515000Y-85855000D03*
X135245000Y-85855000D03*
X133975000Y-85855000D03*
X132705000Y-85855000D03*
X131435000Y-85855000D03*
X130165000Y-85855000D03*
X128895000Y-85855000D03*
X127625000Y-85855000D03*
X126355000Y-85855000D03*
X125085000Y-85855000D03*
X136515000Y-87125000D03*
X135245000Y-87125000D03*
X133975000Y-87125000D03*
X132705000Y-87125000D03*
X131435000Y-87125000D03*
X130165000Y-87125000D03*
X128895000Y-87125000D03*
X127625000Y-87125000D03*
X126355000Y-87125000D03*
X125085000Y-87125000D03*
X136515000Y-88395000D03*
X135245000Y-88395000D03*
X133975000Y-88395000D03*
X132705000Y-88395000D03*
X131435000Y-88395000D03*
X130165000Y-88395000D03*
X128895000Y-88395000D03*
X127625000Y-88395000D03*
X126355000Y-88395000D03*
X125085000Y-88395000D03*
X136515000Y-89665000D03*
X135245000Y-89665000D03*
X133975000Y-89665000D03*
X132705000Y-89665000D03*
X131435000Y-89665000D03*
X130165000Y-89665000D03*
X128895000Y-89665000D03*
X127625000Y-89665000D03*
X126355000Y-89665000D03*
X125085000Y-89665000D03*
X136515000Y-90935000D03*
X135245000Y-90935000D03*
X133975000Y-90935000D03*
X132705000Y-90935000D03*
X131435000Y-90935000D03*
X130165000Y-90935000D03*
X128895000Y-90935000D03*
X127625000Y-90935000D03*
X126355000Y-90935000D03*
X125085000Y-90935000D03*
X136515000Y-92205000D03*
X135245000Y-92205000D03*
X133975000Y-92205000D03*
X132705000Y-92205000D03*
X131435000Y-92205000D03*
X130165000Y-92205000D03*
X128895000Y-92205000D03*
X127625000Y-92205000D03*
X126355000Y-92205000D03*
X125085000Y-92205000D03*
X136515000Y-93475000D03*
X135245000Y-93475000D03*
X133975000Y-93475000D03*
X132705000Y-93475000D03*
X131435000Y-93475000D03*
X130165000Y-93475000D03*
X128895000Y-93475000D03*
X127625000Y-93475000D03*
X126355000Y-93475000D03*
X125085000Y-93475000D03*
X136515000Y-94745000D03*
X135245000Y-94745000D03*
X133975000Y-94745000D03*
X132705000Y-94745000D03*
X131435000Y-94745000D03*
X130165000Y-94745000D03*
X128895000Y-94745000D03*
X127625000Y-94745000D03*
X126355000Y-94745000D03*
X125085000Y-94745000D03*
X136515000Y-96015000D03*
X135245000Y-96015000D03*
X133975000Y-96015000D03*
X132705000Y-96015000D03*
X131435000Y-96015000D03*
X130165000Y-96015000D03*
X128895000Y-96015000D03*
X127625000Y-96015000D03*
X126355000Y-96015000D03*
X125085000Y-96015000D03*
X136515000Y-97285000D03*
X135245000Y-97285000D03*
X133975000Y-97285000D03*
X132705000Y-97285000D03*
X131435000Y-97285000D03*
X130165000Y-97285000D03*
X128895000Y-97285000D03*
X127625000Y-97285000D03*
X126355000Y-97285000D03*
X125085000Y-97285000D03*
X136515000Y-98555000D03*
X135245000Y-98555000D03*
X133975000Y-98555000D03*
X132705000Y-98555000D03*
X131435000Y-98555000D03*
X130165000Y-98555000D03*
X128895000Y-98555000D03*
X127625000Y-98555000D03*
X126355000Y-98555000D03*
X125085000Y-98555000D03*
X136515000Y-99825000D03*
X135245000Y-99825000D03*
X133975000Y-99825000D03*
X132705000Y-99825000D03*
X131435000Y-99825000D03*
X130165000Y-99825000D03*
X128895000Y-99825000D03*
X127625000Y-99825000D03*
X126355000Y-99825000D03*
X125085000Y-99825000D03*
X136515000Y-101095000D03*
X135245000Y-101095000D03*
X133975000Y-101095000D03*
X132705000Y-101095000D03*
X131435000Y-101095000D03*
X130165000Y-101095000D03*
X128895000Y-101095000D03*
X127625000Y-101095000D03*
X126355000Y-101095000D03*
X125085000Y-101095000D03*
X136515000Y-102365000D03*
X135245000Y-102365000D03*
X133975000Y-102365000D03*
X132705000Y-102365000D03*
X131435000Y-102365000D03*
X130165000Y-102365000D03*
X128895000Y-102365000D03*
X127625000Y-102365000D03*
X126355000Y-102365000D03*
X125085000Y-102365000D03*
X136515000Y-103635000D03*
X135245000Y-103635000D03*
X133975000Y-103635000D03*
X132705000Y-103635000D03*
X131435000Y-103635000D03*
X130165000Y-103635000D03*
X128895000Y-103635000D03*
X127625000Y-103635000D03*
X126355000Y-103635000D03*
X125085000Y-103635000D03*
X136515000Y-104905000D03*
X135245000Y-104905000D03*
X133975000Y-104905000D03*
X132705000Y-104905000D03*
X131435000Y-104905000D03*
X130165000Y-104905000D03*
X128895000Y-104905000D03*
X127625000Y-104905000D03*
X126355000Y-104905000D03*
X125085000Y-104905000D03*
X136515000Y-106175000D03*
X135245000Y-106175000D03*
X133975000Y-106175000D03*
X132705000Y-106175000D03*
X131435000Y-106175000D03*
X130165000Y-106175000D03*
X128895000Y-106175000D03*
X127625000Y-106175000D03*
X126355000Y-106175000D03*
X125085000Y-106175000D03*
X136515000Y-107445000D03*
X135245000Y-107445000D03*
X133975000Y-107445000D03*
X132705000Y-107445000D03*
X131435000Y-107445000D03*
X130165000Y-107445000D03*
X128895000Y-107445000D03*
X127625000Y-107445000D03*
X126355000Y-107445000D03*
X125085000Y-107445000D03*
X136515000Y-108715000D03*
X135245000Y-108715000D03*
X133975000Y-108715000D03*
X132705000Y-108715000D03*
X131435000Y-108715000D03*
X130165000Y-108715000D03*
X128895000Y-108715000D03*
X127625000Y-108715000D03*
X126355000Y-108715000D03*
X125085000Y-108715000D03*
X136515000Y-109985000D03*
X135245000Y-109985000D03*
X133975000Y-109985000D03*
X132705000Y-109985000D03*
X131435000Y-109985000D03*
X130165000Y-109985000D03*
X128895000Y-109985000D03*
X127625000Y-109985000D03*
X126355000Y-109985000D03*
X125085000Y-109985000D03*
X136515000Y-111255000D03*
X135245000Y-111255000D03*
X133975000Y-111255000D03*
X132705000Y-111255000D03*
X131435000Y-111255000D03*
X130165000Y-111255000D03*
X128895000Y-111255000D03*
X127625000Y-111255000D03*
X126355000Y-111255000D03*
X125085000Y-111255000D03*
X136515000Y-112525000D03*
X135245000Y-112525000D03*
X133975000Y-112525000D03*
X132705000Y-112525000D03*
X131435000Y-112525000D03*
X130165000Y-112525000D03*
X128895000Y-112525000D03*
X127625000Y-112525000D03*
X126355000Y-112525000D03*
X125085000Y-112525000D03*
X136515000Y-113795000D03*
X135245000Y-113795000D03*
X133975000Y-113795000D03*
X132705000Y-113795000D03*
X131435000Y-113795000D03*
X130165000Y-113795000D03*
X128895000Y-113795000D03*
X127625000Y-113795000D03*
X126355000Y-113795000D03*
X125085000Y-113795000D03*
X136515000Y-115065000D03*
X135245000Y-115065000D03*
X133975000Y-115065000D03*
X132705000Y-115065000D03*
X131435000Y-115065000D03*
X130165000Y-115065000D03*
X128895000Y-115065000D03*
X127625000Y-115065000D03*
X126355000Y-115065000D03*
X125085000Y-115065000D03*
D13*
X130800000Y-117491000D03*
X133850000Y-63111000D03*
D14*
X137392220Y-21116600D03*
X147590320Y-21116600D03*
D15*
X142490000Y-25381260D03*
X139990640Y-25381260D03*
D14*
X187122220Y-22236600D03*
X197320320Y-22236600D03*
D15*
X192220000Y-26501260D03*
X189720640Y-26501260D03*
D16*
X177000000Y-91000000D03*
X175501400Y-91500002D03*
X174002800Y-92000001D03*
X177000000Y-92500000D03*
X175501400Y-93000001D03*
X174002800Y-93500000D03*
X177000000Y-94000002D03*
X175501400Y-94500001D03*
X174002800Y-95000000D03*
X177000000Y-95500001D03*
X175501400Y-96000000D03*
X174002800Y-96500002D03*
X177000000Y-97000001D03*
X175501400Y-97500000D03*
X174002800Y-98000001D03*
X177000000Y-98500000D03*
X175501400Y-99000002D03*
X174002800Y-99500001D03*
X177000000Y-100000000D03*
X175501400Y-100500001D03*
X180847899Y-104347901D03*
X181347901Y-105846501D03*
X181847900Y-107345101D03*
X182347899Y-104347901D03*
X182847900Y-105846501D03*
X183347899Y-107345101D03*
X183847901Y-104347901D03*
X184347900Y-105846501D03*
X184847899Y-107345101D03*
X185347901Y-104347901D03*
X185847900Y-105846501D03*
X186347901Y-107345101D03*
X186847900Y-104347901D03*
X187347899Y-105846501D03*
X187847901Y-107345101D03*
X188347900Y-104347901D03*
X188847901Y-105846501D03*
X189347900Y-107345101D03*
X189847899Y-104347901D03*
X190347901Y-105846501D03*
X194195800Y-100500001D03*
X195694400Y-100000000D03*
X197193000Y-99500001D03*
X194195800Y-99000002D03*
X195694400Y-98500000D03*
X197193000Y-98000001D03*
X194195800Y-97500000D03*
X195694400Y-97000001D03*
X197193000Y-96500002D03*
X194195800Y-96000000D03*
X195694400Y-95500001D03*
X197193000Y-95000000D03*
X194195800Y-94500001D03*
X195694400Y-94000002D03*
X197193000Y-93500000D03*
X194195800Y-93000001D03*
X195694400Y-92500000D03*
X197193000Y-92000001D03*
X194195800Y-91500002D03*
X195694400Y-91000000D03*
X190347901Y-87152101D03*
X189847899Y-85653501D03*
X189347900Y-84154901D03*
X188847901Y-87152101D03*
X188347900Y-85653501D03*
X187847901Y-84154901D03*
X187347899Y-87152101D03*
X186847900Y-85653501D03*
X186347901Y-84154901D03*
X185847899Y-87152101D03*
X185347900Y-85653501D03*
X184847899Y-84154901D03*
X184347900Y-87152101D03*
X183847901Y-85653501D03*
X183347899Y-84154901D03*
X182847900Y-87152101D03*
X182347899Y-85653501D03*
X181847900Y-84154901D03*
X181347901Y-87152101D03*
X180847899Y-85653501D03*
D17*
X185597900Y-95750001D03*
D18*
X172097800Y-109250101D03*
X199098000Y-82249901D03*
D19*
X212850000Y-23420000D03*
D20*
X212850000Y-28120000D03*
D19*
X212850000Y-18720000D03*
X159530000Y-23170000D03*
D20*
X159530000Y-27870000D03*
D19*
X159530000Y-18470000D03*
M02*
