G04 #@! TF.FileFunction,Legend,Bot*
%FSLAX46Y46*%
G04 Gerber Fmt 4.6, Leading zero omitted, Abs format (unit mm)*
G04 Created by KiCad (PCBNEW 4.0.4-snap1-stable) date Wed Apr 29 16:08:13 2020*
%MOMM*%
%LPD*%
G01*
G04 APERTURE LIST*
%ADD10C,0.100000*%
%ADD11C,0.150000*%
G04 APERTURE END LIST*
D10*
D11*
X186400000Y-111925000D02*
X184400000Y-111925000D01*
X184400000Y-109875000D02*
X186400000Y-109875000D01*
X181099760Y-81000680D02*
X181099760Y-75402520D01*
X183599120Y-75300920D02*
X192600880Y-75300920D01*
X192600880Y-80899080D02*
X183599120Y-80899080D01*
X181747460Y-82001440D02*
X181747460Y-80901620D01*
X181148020Y-81501060D02*
X182346900Y-81501060D01*
X198500000Y-112225000D02*
X196500000Y-112225000D01*
X196500000Y-110175000D02*
X198500000Y-110175000D01*
X193799760Y-119100680D02*
X193799760Y-113502520D01*
X196299120Y-113400920D02*
X205300880Y-113400920D01*
X205300880Y-118999080D02*
X196299120Y-118999080D01*
X194447460Y-120101440D02*
X194447460Y-119001620D01*
X193848020Y-119601060D02*
X195046900Y-119601060D01*
X199645000Y-100350000D02*
X199645000Y-98350000D01*
X201695000Y-98350000D02*
X201695000Y-100350000D01*
X170985000Y-91840000D02*
X170985000Y-93840000D01*
X168935000Y-93840000D02*
X168935000Y-91840000D01*
X188400000Y-83125000D02*
X186400000Y-83125000D01*
X186400000Y-81075000D02*
X188400000Y-81075000D01*
X202849320Y-92629760D02*
X208447480Y-92629760D01*
X208549080Y-95129120D02*
X208549080Y-104130880D01*
X202950920Y-104130880D02*
X202950920Y-95129120D01*
X201848560Y-93277460D02*
X202948380Y-93277460D01*
X202348940Y-92678020D02*
X202348940Y-93876900D01*
X166210680Y-93860240D02*
X160612520Y-93860240D01*
X160510920Y-91360880D02*
X160510920Y-82359120D01*
X166109080Y-82359120D02*
X166109080Y-91360880D01*
X167211440Y-93212540D02*
X166111620Y-93212540D01*
X166711060Y-93811980D02*
X166711060Y-92613100D01*
X176729760Y-118630680D02*
X176729760Y-113032520D01*
X179229120Y-112930920D02*
X188230880Y-112930920D01*
X188230880Y-118529080D02*
X179229120Y-118529080D01*
X177377460Y-119631440D02*
X177377460Y-118531620D01*
X176778020Y-119131060D02*
X177976900Y-119131060D01*
X168525000Y-105500000D02*
X168525000Y-107500000D01*
X166475000Y-107500000D02*
X166475000Y-105500000D01*
X200925000Y-86500000D02*
X200925000Y-88500000D01*
X198875000Y-88500000D02*
X198875000Y-86500000D01*
X173300000Y-79275000D02*
X175300000Y-79275000D01*
X175300000Y-81325000D02*
X173300000Y-81325000D01*
X165850680Y-111460240D02*
X160252520Y-111460240D01*
X160150920Y-108960880D02*
X160150920Y-99959120D01*
X165749080Y-99959120D02*
X165749080Y-108960880D01*
X166851440Y-110812540D02*
X165751620Y-110812540D01*
X166351060Y-111411980D02*
X166351060Y-110213100D01*
X178900240Y-72799320D02*
X178900240Y-78397480D01*
X176400880Y-78499080D02*
X167399120Y-78499080D01*
X167399120Y-72900920D02*
X176400880Y-72900920D01*
X178252540Y-71798560D02*
X178252540Y-72898380D01*
X178851980Y-72298940D02*
X177653100Y-72298940D01*
X207400680Y-91500240D02*
X201802520Y-91500240D01*
X201700920Y-89000880D02*
X201700920Y-79999120D01*
X207299080Y-79999120D02*
X207299080Y-89000880D01*
X208401440Y-90852540D02*
X207301620Y-90852540D01*
X207901060Y-91451980D02*
X207901060Y-90253100D01*
X185586666Y-111257143D02*
X185634285Y-111304762D01*
X185777142Y-111352381D01*
X185872380Y-111352381D01*
X186015238Y-111304762D01*
X186110476Y-111209524D01*
X186158095Y-111114286D01*
X186205714Y-110923810D01*
X186205714Y-110780952D01*
X186158095Y-110590476D01*
X186110476Y-110495238D01*
X186015238Y-110400000D01*
X185872380Y-110352381D01*
X185777142Y-110352381D01*
X185634285Y-110400000D01*
X185586666Y-110447619D01*
X184634285Y-111352381D02*
X185205714Y-111352381D01*
X184920000Y-111352381D02*
X184920000Y-110352381D01*
X185015238Y-110495238D01*
X185110476Y-110590476D01*
X185205714Y-110638095D01*
X187966666Y-77537143D02*
X188014285Y-77584762D01*
X188157142Y-77632381D01*
X188252380Y-77632381D01*
X188395238Y-77584762D01*
X188490476Y-77489524D01*
X188538095Y-77394286D01*
X188585714Y-77203810D01*
X188585714Y-77060952D01*
X188538095Y-76870476D01*
X188490476Y-76775238D01*
X188395238Y-76680000D01*
X188252380Y-76632381D01*
X188157142Y-76632381D01*
X188014285Y-76680000D01*
X187966666Y-76727619D01*
X187585714Y-76727619D02*
X187538095Y-76680000D01*
X187442857Y-76632381D01*
X187204761Y-76632381D01*
X187109523Y-76680000D01*
X187061904Y-76727619D01*
X187014285Y-76822857D01*
X187014285Y-76918095D01*
X187061904Y-77060952D01*
X187633333Y-77632381D01*
X187014285Y-77632381D01*
X182130952Y-81569949D02*
X181369047Y-81569949D01*
X181749999Y-81950901D02*
X181749999Y-81188996D01*
X198026666Y-111257143D02*
X198074285Y-111304762D01*
X198217142Y-111352381D01*
X198312380Y-111352381D01*
X198455238Y-111304762D01*
X198550476Y-111209524D01*
X198598095Y-111114286D01*
X198645714Y-110923810D01*
X198645714Y-110780952D01*
X198598095Y-110590476D01*
X198550476Y-110495238D01*
X198455238Y-110400000D01*
X198312380Y-110352381D01*
X198217142Y-110352381D01*
X198074285Y-110400000D01*
X198026666Y-110447619D01*
X197693333Y-110352381D02*
X197074285Y-110352381D01*
X197407619Y-110733333D01*
X197264761Y-110733333D01*
X197169523Y-110780952D01*
X197121904Y-110828571D01*
X197074285Y-110923810D01*
X197074285Y-111161905D01*
X197121904Y-111257143D01*
X197169523Y-111304762D01*
X197264761Y-111352381D01*
X197550476Y-111352381D01*
X197645714Y-111304762D01*
X197693333Y-111257143D01*
X200906666Y-117467143D02*
X200954285Y-117514762D01*
X201097142Y-117562381D01*
X201192380Y-117562381D01*
X201335238Y-117514762D01*
X201430476Y-117419524D01*
X201478095Y-117324286D01*
X201525714Y-117133810D01*
X201525714Y-116990952D01*
X201478095Y-116800476D01*
X201430476Y-116705238D01*
X201335238Y-116610000D01*
X201192380Y-116562381D01*
X201097142Y-116562381D01*
X200954285Y-116610000D01*
X200906666Y-116657619D01*
X200049523Y-116895714D02*
X200049523Y-117562381D01*
X200287619Y-116514762D02*
X200525714Y-117229048D01*
X199906666Y-117229048D01*
X194830952Y-119669949D02*
X194069047Y-119669949D01*
X194449999Y-120050901D02*
X194449999Y-119288996D01*
X201147143Y-99063334D02*
X201194762Y-99015715D01*
X201242381Y-98872858D01*
X201242381Y-98777620D01*
X201194762Y-98634762D01*
X201099524Y-98539524D01*
X201004286Y-98491905D01*
X200813810Y-98444286D01*
X200670952Y-98444286D01*
X200480476Y-98491905D01*
X200385238Y-98539524D01*
X200290000Y-98634762D01*
X200242381Y-98777620D01*
X200242381Y-98872858D01*
X200290000Y-99015715D01*
X200337619Y-99063334D01*
X200242381Y-99968096D02*
X200242381Y-99491905D01*
X200718571Y-99444286D01*
X200670952Y-99491905D01*
X200623333Y-99587143D01*
X200623333Y-99825239D01*
X200670952Y-99920477D01*
X200718571Y-99968096D01*
X200813810Y-100015715D01*
X201051905Y-100015715D01*
X201147143Y-99968096D01*
X201194762Y-99920477D01*
X201242381Y-99825239D01*
X201242381Y-99587143D01*
X201194762Y-99491905D01*
X201147143Y-99444286D01*
X170357143Y-92903334D02*
X170404762Y-92855715D01*
X170452381Y-92712858D01*
X170452381Y-92617620D01*
X170404762Y-92474762D01*
X170309524Y-92379524D01*
X170214286Y-92331905D01*
X170023810Y-92284286D01*
X169880952Y-92284286D01*
X169690476Y-92331905D01*
X169595238Y-92379524D01*
X169500000Y-92474762D01*
X169452381Y-92617620D01*
X169452381Y-92712858D01*
X169500000Y-92855715D01*
X169547619Y-92903334D01*
X169452381Y-93760477D02*
X169452381Y-93570000D01*
X169500000Y-93474762D01*
X169547619Y-93427143D01*
X169690476Y-93331905D01*
X169880952Y-93284286D01*
X170261905Y-93284286D01*
X170357143Y-93331905D01*
X170404762Y-93379524D01*
X170452381Y-93474762D01*
X170452381Y-93665239D01*
X170404762Y-93760477D01*
X170357143Y-93808096D01*
X170261905Y-93855715D01*
X170023810Y-93855715D01*
X169928571Y-93808096D01*
X169880952Y-93760477D01*
X169833333Y-93665239D01*
X169833333Y-93474762D01*
X169880952Y-93379524D01*
X169928571Y-93331905D01*
X170023810Y-93284286D01*
X191746666Y-82407143D02*
X191794285Y-82454762D01*
X191937142Y-82502381D01*
X192032380Y-82502381D01*
X192175238Y-82454762D01*
X192270476Y-82359524D01*
X192318095Y-82264286D01*
X192365714Y-82073810D01*
X192365714Y-81930952D01*
X192318095Y-81740476D01*
X192270476Y-81645238D01*
X192175238Y-81550000D01*
X192032380Y-81502381D01*
X191937142Y-81502381D01*
X191794285Y-81550000D01*
X191746666Y-81597619D01*
X191413333Y-81502381D02*
X190746666Y-81502381D01*
X191175238Y-82502381D01*
X205857143Y-99853334D02*
X205904762Y-99805715D01*
X205952381Y-99662858D01*
X205952381Y-99567620D01*
X205904762Y-99424762D01*
X205809524Y-99329524D01*
X205714286Y-99281905D01*
X205523810Y-99234286D01*
X205380952Y-99234286D01*
X205190476Y-99281905D01*
X205095238Y-99329524D01*
X205000000Y-99424762D01*
X204952381Y-99567620D01*
X204952381Y-99662858D01*
X205000000Y-99805715D01*
X205047619Y-99853334D01*
X205380952Y-100424762D02*
X205333333Y-100329524D01*
X205285714Y-100281905D01*
X205190476Y-100234286D01*
X205142857Y-100234286D01*
X205047619Y-100281905D01*
X205000000Y-100329524D01*
X204952381Y-100424762D01*
X204952381Y-100615239D01*
X205000000Y-100710477D01*
X205047619Y-100758096D01*
X205142857Y-100805715D01*
X205190476Y-100805715D01*
X205285714Y-100758096D01*
X205333333Y-100710477D01*
X205380952Y-100615239D01*
X205380952Y-100424762D01*
X205428571Y-100329524D01*
X205476190Y-100281905D01*
X205571429Y-100234286D01*
X205761905Y-100234286D01*
X205857143Y-100281905D01*
X205904762Y-100329524D01*
X205952381Y-100424762D01*
X205952381Y-100615239D01*
X205904762Y-100710477D01*
X205857143Y-100758096D01*
X205761905Y-100805715D01*
X205571429Y-100805715D01*
X205476190Y-100758096D01*
X205428571Y-100710477D01*
X205380952Y-100615239D01*
X202422909Y-92899048D02*
X202422909Y-93660953D01*
X202803861Y-93280001D02*
X202041956Y-93280001D01*
X162187143Y-86593334D02*
X162234762Y-86545715D01*
X162282381Y-86402858D01*
X162282381Y-86307620D01*
X162234762Y-86164762D01*
X162139524Y-86069524D01*
X162044286Y-86021905D01*
X161853810Y-85974286D01*
X161710952Y-85974286D01*
X161520476Y-86021905D01*
X161425238Y-86069524D01*
X161330000Y-86164762D01*
X161282381Y-86307620D01*
X161282381Y-86402858D01*
X161330000Y-86545715D01*
X161377619Y-86593334D01*
X162282381Y-87069524D02*
X162282381Y-87260000D01*
X162234762Y-87355239D01*
X162187143Y-87402858D01*
X162044286Y-87498096D01*
X161853810Y-87545715D01*
X161472857Y-87545715D01*
X161377619Y-87498096D01*
X161330000Y-87450477D01*
X161282381Y-87355239D01*
X161282381Y-87164762D01*
X161330000Y-87069524D01*
X161377619Y-87021905D01*
X161472857Y-86974286D01*
X161710952Y-86974286D01*
X161806190Y-87021905D01*
X161853810Y-87069524D01*
X161901429Y-87164762D01*
X161901429Y-87355239D01*
X161853810Y-87450477D01*
X161806190Y-87498096D01*
X161710952Y-87545715D01*
X166779949Y-92829048D02*
X166779949Y-93590953D01*
X167160901Y-93210001D02*
X166398996Y-93210001D01*
X185042857Y-114217143D02*
X185090476Y-114264762D01*
X185233333Y-114312381D01*
X185328571Y-114312381D01*
X185471429Y-114264762D01*
X185566667Y-114169524D01*
X185614286Y-114074286D01*
X185661905Y-113883810D01*
X185661905Y-113740952D01*
X185614286Y-113550476D01*
X185566667Y-113455238D01*
X185471429Y-113360000D01*
X185328571Y-113312381D01*
X185233333Y-113312381D01*
X185090476Y-113360000D01*
X185042857Y-113407619D01*
X184090476Y-114312381D02*
X184661905Y-114312381D01*
X184376191Y-114312381D02*
X184376191Y-113312381D01*
X184471429Y-113455238D01*
X184566667Y-113550476D01*
X184661905Y-113598095D01*
X183471429Y-113312381D02*
X183376190Y-113312381D01*
X183280952Y-113360000D01*
X183233333Y-113407619D01*
X183185714Y-113502857D01*
X183138095Y-113693333D01*
X183138095Y-113931429D01*
X183185714Y-114121905D01*
X183233333Y-114217143D01*
X183280952Y-114264762D01*
X183376190Y-114312381D01*
X183471429Y-114312381D01*
X183566667Y-114264762D01*
X183614286Y-114217143D01*
X183661905Y-114121905D01*
X183709524Y-113931429D01*
X183709524Y-113693333D01*
X183661905Y-113502857D01*
X183614286Y-113407619D01*
X183566667Y-113360000D01*
X183471429Y-113312381D01*
X177760952Y-119199949D02*
X176999047Y-119199949D01*
X177379999Y-119580901D02*
X177379999Y-118818996D01*
X169607143Y-105997143D02*
X169654762Y-105949524D01*
X169702381Y-105806667D01*
X169702381Y-105711429D01*
X169654762Y-105568571D01*
X169559524Y-105473333D01*
X169464286Y-105425714D01*
X169273810Y-105378095D01*
X169130952Y-105378095D01*
X168940476Y-105425714D01*
X168845238Y-105473333D01*
X168750000Y-105568571D01*
X168702381Y-105711429D01*
X168702381Y-105806667D01*
X168750000Y-105949524D01*
X168797619Y-105997143D01*
X169702381Y-106949524D02*
X169702381Y-106378095D01*
X169702381Y-106663809D02*
X168702381Y-106663809D01*
X168845238Y-106568571D01*
X168940476Y-106473333D01*
X168988095Y-106378095D01*
X169702381Y-107901905D02*
X169702381Y-107330476D01*
X169702381Y-107616190D02*
X168702381Y-107616190D01*
X168845238Y-107520952D01*
X168940476Y-107425714D01*
X168988095Y-107330476D01*
X198037143Y-85087143D02*
X198084762Y-85039524D01*
X198132381Y-84896667D01*
X198132381Y-84801429D01*
X198084762Y-84658571D01*
X197989524Y-84563333D01*
X197894286Y-84515714D01*
X197703810Y-84468095D01*
X197560952Y-84468095D01*
X197370476Y-84515714D01*
X197275238Y-84563333D01*
X197180000Y-84658571D01*
X197132381Y-84801429D01*
X197132381Y-84896667D01*
X197180000Y-85039524D01*
X197227619Y-85087143D01*
X198132381Y-86039524D02*
X198132381Y-85468095D01*
X198132381Y-85753809D02*
X197132381Y-85753809D01*
X197275238Y-85658571D01*
X197370476Y-85563333D01*
X197418095Y-85468095D01*
X197227619Y-86420476D02*
X197180000Y-86468095D01*
X197132381Y-86563333D01*
X197132381Y-86801429D01*
X197180000Y-86896667D01*
X197227619Y-86944286D01*
X197322857Y-86991905D01*
X197418095Y-86991905D01*
X197560952Y-86944286D01*
X198132381Y-86372857D01*
X198132381Y-86991905D01*
X175052857Y-80307143D02*
X175100476Y-80354762D01*
X175243333Y-80402381D01*
X175338571Y-80402381D01*
X175481429Y-80354762D01*
X175576667Y-80259524D01*
X175624286Y-80164286D01*
X175671905Y-79973810D01*
X175671905Y-79830952D01*
X175624286Y-79640476D01*
X175576667Y-79545238D01*
X175481429Y-79450000D01*
X175338571Y-79402381D01*
X175243333Y-79402381D01*
X175100476Y-79450000D01*
X175052857Y-79497619D01*
X174100476Y-80402381D02*
X174671905Y-80402381D01*
X174386191Y-80402381D02*
X174386191Y-79402381D01*
X174481429Y-79545238D01*
X174576667Y-79640476D01*
X174671905Y-79688095D01*
X173767143Y-79402381D02*
X173148095Y-79402381D01*
X173481429Y-79783333D01*
X173338571Y-79783333D01*
X173243333Y-79830952D01*
X173195714Y-79878571D01*
X173148095Y-79973810D01*
X173148095Y-80211905D01*
X173195714Y-80307143D01*
X173243333Y-80354762D01*
X173338571Y-80402381D01*
X173624286Y-80402381D01*
X173719524Y-80354762D01*
X173767143Y-80307143D01*
X163507143Y-103957143D02*
X163554762Y-103909524D01*
X163602381Y-103766667D01*
X163602381Y-103671429D01*
X163554762Y-103528571D01*
X163459524Y-103433333D01*
X163364286Y-103385714D01*
X163173810Y-103338095D01*
X163030952Y-103338095D01*
X162840476Y-103385714D01*
X162745238Y-103433333D01*
X162650000Y-103528571D01*
X162602381Y-103671429D01*
X162602381Y-103766667D01*
X162650000Y-103909524D01*
X162697619Y-103957143D01*
X163602381Y-104909524D02*
X163602381Y-104338095D01*
X163602381Y-104623809D02*
X162602381Y-104623809D01*
X162745238Y-104528571D01*
X162840476Y-104433333D01*
X162888095Y-104338095D01*
X162935714Y-105766667D02*
X163602381Y-105766667D01*
X162554762Y-105528571D02*
X163269048Y-105290476D01*
X163269048Y-105909524D01*
X166419949Y-110429048D02*
X166419949Y-111190953D01*
X166800901Y-110810001D02*
X166038996Y-110810001D01*
X172552857Y-75517143D02*
X172600476Y-75564762D01*
X172743333Y-75612381D01*
X172838571Y-75612381D01*
X172981429Y-75564762D01*
X173076667Y-75469524D01*
X173124286Y-75374286D01*
X173171905Y-75183810D01*
X173171905Y-75040952D01*
X173124286Y-74850476D01*
X173076667Y-74755238D01*
X172981429Y-74660000D01*
X172838571Y-74612381D01*
X172743333Y-74612381D01*
X172600476Y-74660000D01*
X172552857Y-74707619D01*
X171600476Y-75612381D02*
X172171905Y-75612381D01*
X171886191Y-75612381D02*
X171886191Y-74612381D01*
X171981429Y-74755238D01*
X172076667Y-74850476D01*
X172171905Y-74898095D01*
X170695714Y-74612381D02*
X171171905Y-74612381D01*
X171219524Y-75088571D01*
X171171905Y-75040952D01*
X171076667Y-74993333D01*
X170838571Y-74993333D01*
X170743333Y-75040952D01*
X170695714Y-75088571D01*
X170648095Y-75183810D01*
X170648095Y-75421905D01*
X170695714Y-75517143D01*
X170743333Y-75564762D01*
X170838571Y-75612381D01*
X171076667Y-75612381D01*
X171171905Y-75564762D01*
X171219524Y-75517143D01*
X178630952Y-72372909D02*
X177869047Y-72372909D01*
X178249999Y-72753861D02*
X178249999Y-71991956D01*
X205257143Y-82947143D02*
X205304762Y-82899524D01*
X205352381Y-82756667D01*
X205352381Y-82661429D01*
X205304762Y-82518571D01*
X205209524Y-82423333D01*
X205114286Y-82375714D01*
X204923810Y-82328095D01*
X204780952Y-82328095D01*
X204590476Y-82375714D01*
X204495238Y-82423333D01*
X204400000Y-82518571D01*
X204352381Y-82661429D01*
X204352381Y-82756667D01*
X204400000Y-82899524D01*
X204447619Y-82947143D01*
X205352381Y-83899524D02*
X205352381Y-83328095D01*
X205352381Y-83613809D02*
X204352381Y-83613809D01*
X204495238Y-83518571D01*
X204590476Y-83423333D01*
X204638095Y-83328095D01*
X204352381Y-84756667D02*
X204352381Y-84566190D01*
X204400000Y-84470952D01*
X204447619Y-84423333D01*
X204590476Y-84328095D01*
X204780952Y-84280476D01*
X205161905Y-84280476D01*
X205257143Y-84328095D01*
X205304762Y-84375714D01*
X205352381Y-84470952D01*
X205352381Y-84661429D01*
X205304762Y-84756667D01*
X205257143Y-84804286D01*
X205161905Y-84851905D01*
X204923810Y-84851905D01*
X204828571Y-84804286D01*
X204780952Y-84756667D01*
X204733333Y-84661429D01*
X204733333Y-84470952D01*
X204780952Y-84375714D01*
X204828571Y-84328095D01*
X204923810Y-84280476D01*
X207969949Y-90469048D02*
X207969949Y-91230953D01*
X208350901Y-90850001D02*
X207588996Y-90850001D01*
M02*
