M48
;DRILL file {KiCad 4.0.4-snap1-stable} date Wed Apr 29 16:08:16 2020
;FORMAT={-:-/ absolute / inch / decimal}
FMAT,2
INCH,TZ
T1C0.008
T2C0.012
T3C0.016
T4C0.028
T5C0.035
T6C0.039
T7C0.039
T8C0.067
T9C0.071
T10C0.083
T11C0.087
%
G90
G05
M72
T1
X4.1634Y-4.3492
X4.1752Y-4.3055
X4.1815Y-4.1531
X4.1839Y-4.0551
X4.2224Y-4.0063
X4.3Y-3.8591
X4.3303Y-3.9055
X4.4673Y-3.3138
X4.5055Y-3.3177
X4.5319Y-3.3244
X4.5425Y-3.4031
X4.5736Y-3.4583
X4.6055Y-3.5575
X4.6382Y-3.6055
X4.6709Y-3.7051
X4.7146Y-3.7575
X5.0246Y-2.8801
X5.0246Y-2.9301
X5.0246Y-3.0301
X5.0246Y-3.0801
X5.0246Y-3.1801
X5.0246Y-3.2301
X5.0246Y-3.3301
X5.0246Y-3.3801
X5.0246Y-3.4801
X5.0246Y-3.5301
X5.0246Y-3.6301
X5.0248Y-2.4118
X5.052Y-2.3969
X5.0746Y-2.8301
X5.0746Y-2.8801
X5.0746Y-2.9801
X5.0746Y-3.0301
X5.0746Y-3.1301
X5.1346Y-2.3835
X5.2246Y-2.7301
X5.2246Y-2.7801
X5.2246Y-2.9301
X5.2246Y-2.9801
X5.2246Y-3.0801
X5.2246Y-3.1301
X5.2246Y-3.2301
X5.2246Y-3.2801
X5.2246Y-3.3801
X5.2246Y-3.4301
X5.2246Y-3.5301
X5.2246Y-3.5801
X5.2246Y-3.6801
X5.2246Y-3.7301
X5.2246Y-3.8301
X5.2246Y-3.8801
X5.2246Y-3.9801
X5.2246Y-4.0301
X5.2746Y-3.0301
X5.2746Y-3.0801
X5.2746Y-3.2301
X5.2746Y-3.2801
X5.2746Y-3.4301
X5.2746Y-3.4801
X5.2746Y-3.6301
X5.2746Y-3.6801
X5.2746Y-3.8301
X5.2746Y-3.8801
X5.4575Y-3.7854
X5.4866Y-2.6114
X5.4898Y-4.7713
X5.4937Y-3.7358
X5.4976Y-3.1811
X5.5154Y-3.128
X5.5228Y-4.752
X5.528Y-3.6587
X5.5327Y-3.4071
X5.5535Y-3.5697
X5.5559Y-4.7311
X5.5705Y-3.3839
X5.576Y-4.6984
X5.578Y-3.3185
X5.589Y-3.5252
X5.6059Y-4.676
X5.6303Y-4.6622
X5.6579Y-4.6409
X5.676Y-3.8315
X5.687Y-4.6157
X5.7063Y-4.1476
X5.7295Y-4.126
X5.7583Y-3.8472
X5.7941Y-4.0272
X5.8276Y-4.0858
X5.8421Y-4.2272
X5.8504Y-3.8913
X5.8866Y-3.4323
X5.898Y-3.9331
X5.9449Y-3.7984
X5.9504Y-3.8606
X5.9598Y-4.7169
X5.9969Y-3.4232
X6.0043Y-4.1917
X6.0295Y-3.335
X6.087Y-3.4705
X6.1094Y-3.3976
X6.1394Y-3.3752
X6.235Y-4.1575
X6.2402Y-4.1142
X6.2409Y-4.0453
X6.2413Y-4.0866
X6.2425Y-4.1898
X6.2453Y-4.224
X6.8441Y-4.9406
X6.8591Y-2.2055
X6.8701Y-4.8563
X6.8941Y-2.0803
X6.9067Y-4.9697
X6.9406Y-4.7925
X6.9421Y-1.9157
X6.9626Y-4.8811
X6.9803Y-2.1748
X7.011Y-4.8283
X7.0528Y-2.0232
X7.0606Y-4.9114
X7.113Y-1.9744
X7.1591Y-2.1299
X7.2087Y-2.2461
X7.5461Y-4.7563
X7.5571Y-1.8071
X7.5648Y-5.0545
X7.6016Y-5.1732
X7.6276Y-2.3354
X7.6551Y-1.6862
X7.6795Y-1.9075
X7.7043Y-5.1378
X7.7287Y-2.2756
X7.7287Y-5.0236
X7.7476Y-5.2087
X7.7496Y-2.8831
X7.7669Y-2.3047
X7.7732Y-5.0969
X7.7984Y-4.9961
X7.8Y-2.5579
X7.8016Y-2.4689
X7.8665Y-2.5543
X7.8846Y-2.4618
X8.4346Y-3.4024
X8.4969Y-3.3039
X8.576Y-3.652
X8.6728Y-3.3346
X8.728Y-3.6217
X8.7862Y-4.2079
X8.8413Y-4.2654
X8.8744Y-4.087
X8.9445Y-4.1496
X8.9858Y-4.2409
X9.022Y-4.1157
X9.0445Y-4.1795
X9.2866Y-3.4724
X9.3516Y-3.4354
X9.461Y-3.3587
T2
X6.4657Y-4.1138
X6.7591Y-3.3772
X6.7594Y-3.4252
X6.7819Y-3.535
X6.9051Y-4.2713
X7.028Y-4.2283
X7.4323Y-3.2807
X7.552Y-3.2748
X7.6114Y-3.3366
X7.6406Y-3.5539
X7.7248Y-4.0972
X7.9697Y-4.0591
X7.9705Y-3.9232
X7.9752Y-4.1528
T3
X5.2746Y-4.1801
T4
X6.8505Y-3.622
X6.8505Y-3.6811
X6.8505Y-3.7402
X6.8505Y-3.7992
X6.8505Y-3.8583
X6.8505Y-3.9173
X6.9095Y-3.6024
X6.9095Y-3.6614
X6.9095Y-3.7205
X6.9095Y-3.7795
X6.9095Y-3.8386
X6.9095Y-3.8976
X6.9095Y-3.9567
X6.9685Y-3.5827
X6.9685Y-3.6417
X6.9685Y-3.7008
X6.9685Y-3.7598
X6.9685Y-3.8189
X6.9685Y-3.878
X6.9685Y-3.937
X7.12Y-3.3722
X7.12Y-4.1082
X7.1397Y-3.4312
X7.1397Y-4.1672
X7.1594Y-3.3132
X7.1594Y-4.2262
X7.1791Y-3.3722
X7.1791Y-4.1082
X7.1987Y-3.4312
X7.1987Y-4.1672
X7.2184Y-3.3132
X7.2184Y-4.2262
X7.2381Y-3.3722
X7.2381Y-4.1082
X7.2578Y-3.4312
X7.2578Y-4.1672
X7.2775Y-3.3132
X7.2775Y-4.2262
X7.2972Y-3.3722
X7.2972Y-4.1082
X7.3168Y-3.4312
X7.3168Y-4.1672
X7.3365Y-3.3132
X7.3365Y-4.2262
X7.3562Y-3.3722
X7.3562Y-4.1082
X7.3759Y-3.4312
X7.3759Y-4.1672
X7.3956Y-3.3132
X7.3956Y-4.2262
X7.4153Y-3.3722
X7.4153Y-4.1082
X7.435Y-3.4312
X7.435Y-4.1672
X7.4546Y-3.3132
X7.4546Y-4.2262
X7.4743Y-3.3722
X7.4743Y-4.1082
X7.494Y-3.4312
X7.494Y-4.1672
X7.6455Y-3.6024
X7.6455Y-3.6614
X7.6455Y-3.7205
X7.6455Y-3.7795
X7.6455Y-3.8386
X7.6455Y-3.8976
X7.6455Y-3.9567
X7.7045Y-3.5827
X7.7045Y-3.6417
X7.7045Y-3.7008
X7.7045Y-3.7598
X7.7045Y-3.8189
X7.7045Y-3.878
X7.7045Y-3.937
X7.7635Y-3.622
X7.7635Y-3.6811
X7.7635Y-3.7402
X7.7635Y-3.7992
X7.7635Y-3.8583
X7.7635Y-3.9173
T5
X6.4256Y-3.6063
X6.4295Y-3.2553
X6.5823Y-3.576
X6.6016Y-4.2736
X6.6031Y-2.7
X6.6033Y-2.9803
X6.6469Y-3.1567
X6.7512Y-3.7366
X7.2205Y-4.3661
X7.2236Y-4.5618
X7.3839Y-2.8705
X7.5699Y-3.0748
X7.6516Y-4.3291
X8.0449Y-3.5299
X8.1004Y-3.758
T6
X4.6882Y-0.8512
X5.4583Y-1.5071
X6.4154Y-3.9482
X6.6016Y-5.9921
X6.611Y-6.5693
X7.3965Y-4.5406
X7.9004Y-4.6094
X8.0512Y-2.9268
X8.3654Y-3.9358
X8.8902Y-6.0083
X9.4071Y-6.4571
X10.328Y-3.3705
T7
X5.5114Y-0.9993
X5.6098Y-0.9993
X7.4693Y-1.0434
X7.5677Y-1.0434
T8
X7.307Y-3.7697
T9
X6.2807Y-0.7272
X6.2807Y-0.9122
X6.2807Y-1.0972
X8.3799Y-0.737
X8.3799Y-0.922
X8.3799Y-1.1071
T10
X6.7755Y-4.3012
X7.8385Y-3.2382
T11
X5.4091Y-0.8314
X5.8106Y-0.8314
X7.367Y-0.8755
X7.7685Y-0.8755
T0
M30
