G04 #@! TF.FileFunction,Copper,L1,Top,Signal*
%FSLAX46Y46*%
G04 Gerber Fmt 4.6, Leading zero omitted, Abs format (unit mm)*
G04 Created by KiCad (PCBNEW 4.0.4-snap1-stable) date Wed Apr 29 16:08:13 2020*
%MOMM*%
%LPD*%
G01*
G04 APERTURE LIST*
%ADD10C,0.100000*%
%ADD11C,0.640000*%
%ADD12O,3.500120X7.000240*%
%ADD13O,1.600200X2.499360*%
%ADD14C,1.092200*%
%ADD15C,2.209800*%
%ADD16C,2.616200*%
%ADD17C,2.700000*%
%ADD18R,2.700000X2.700000*%
%ADD19C,2.100000*%
%ADD20C,0.500000*%
%ADD21C,3.000000*%
%ADD22C,0.400000*%
%ADD23C,0.300000*%
%ADD24C,0.200000*%
%ADD25C,0.254000*%
G04 APERTURE END LIST*
D10*
D11*
X136515000Y-65535000D03*
X135245000Y-65535000D03*
X133975000Y-65535000D03*
X132705000Y-65535000D03*
X131435000Y-65535000D03*
X130165000Y-65535000D03*
X128895000Y-65535000D03*
X127625000Y-65535000D03*
X126355000Y-65535000D03*
X125085000Y-65535000D03*
X136515000Y-66805000D03*
X135245000Y-66805000D03*
X133975000Y-66805000D03*
X132705000Y-66805000D03*
X131435000Y-66805000D03*
X130165000Y-66805000D03*
X128895000Y-66805000D03*
X127625000Y-66805000D03*
X126355000Y-66805000D03*
X125085000Y-66805000D03*
X136515000Y-68075000D03*
X135245000Y-68075000D03*
X133975000Y-68075000D03*
X132705000Y-68075000D03*
X131435000Y-68075000D03*
X130165000Y-68075000D03*
X128895000Y-68075000D03*
X127625000Y-68075000D03*
X126355000Y-68075000D03*
X125085000Y-68075000D03*
X136515000Y-69345000D03*
X135245000Y-69345000D03*
X133975000Y-69345000D03*
X132705000Y-69345000D03*
X131435000Y-69345000D03*
X130165000Y-69345000D03*
X128895000Y-69345000D03*
X127625000Y-69345000D03*
X126355000Y-69345000D03*
X125085000Y-69345000D03*
X136515000Y-70615000D03*
X135245000Y-70615000D03*
X133975000Y-70615000D03*
X132705000Y-70615000D03*
X131435000Y-70615000D03*
X130165000Y-70615000D03*
X128895000Y-70615000D03*
X127625000Y-70615000D03*
X126355000Y-70615000D03*
X125085000Y-70615000D03*
X136515000Y-71885000D03*
X135245000Y-71885000D03*
X133975000Y-71885000D03*
X132705000Y-71885000D03*
X131435000Y-71885000D03*
X130165000Y-71885000D03*
X128895000Y-71885000D03*
X127625000Y-71885000D03*
X126355000Y-71885000D03*
X125085000Y-71885000D03*
X136515000Y-73155000D03*
X135245000Y-73155000D03*
X133975000Y-73155000D03*
X132705000Y-73155000D03*
X131435000Y-73155000D03*
X130165000Y-73155000D03*
X128895000Y-73155000D03*
X127625000Y-73155000D03*
X126355000Y-73155000D03*
X125085000Y-73155000D03*
X136515000Y-74425000D03*
X135245000Y-74425000D03*
X133975000Y-74425000D03*
X132705000Y-74425000D03*
X131435000Y-74425000D03*
X130165000Y-74425000D03*
X128895000Y-74425000D03*
X127625000Y-74425000D03*
X126355000Y-74425000D03*
X125085000Y-74425000D03*
X136515000Y-75695000D03*
X135245000Y-75695000D03*
X133975000Y-75695000D03*
X132705000Y-75695000D03*
X131435000Y-75695000D03*
X130165000Y-75695000D03*
X128895000Y-75695000D03*
X127625000Y-75695000D03*
X126355000Y-75695000D03*
X125085000Y-75695000D03*
X136515000Y-76965000D03*
X135245000Y-76965000D03*
X133975000Y-76965000D03*
X132705000Y-76965000D03*
X131435000Y-76965000D03*
X130165000Y-76965000D03*
X128895000Y-76965000D03*
X127625000Y-76965000D03*
X126355000Y-76965000D03*
X125085000Y-76965000D03*
X136515000Y-78235000D03*
X135245000Y-78235000D03*
X133975000Y-78235000D03*
X132705000Y-78235000D03*
X131435000Y-78235000D03*
X130165000Y-78235000D03*
X128895000Y-78235000D03*
X127625000Y-78235000D03*
X126355000Y-78235000D03*
X125085000Y-78235000D03*
X136515000Y-79505000D03*
X135245000Y-79505000D03*
X133975000Y-79505000D03*
X132705000Y-79505000D03*
X131435000Y-79505000D03*
X130165000Y-79505000D03*
X128895000Y-79505000D03*
X127625000Y-79505000D03*
X126355000Y-79505000D03*
X125085000Y-79505000D03*
X136515000Y-80775000D03*
X135245000Y-80775000D03*
X133975000Y-80775000D03*
X132705000Y-80775000D03*
X131435000Y-80775000D03*
X130165000Y-80775000D03*
X128895000Y-80775000D03*
X127625000Y-80775000D03*
X126355000Y-80775000D03*
X125085000Y-80775000D03*
X136515000Y-82045000D03*
X135245000Y-82045000D03*
X133975000Y-82045000D03*
X132705000Y-82045000D03*
X131435000Y-82045000D03*
X130165000Y-82045000D03*
X128895000Y-82045000D03*
X127625000Y-82045000D03*
X126355000Y-82045000D03*
X125085000Y-82045000D03*
X136515000Y-83315000D03*
X135245000Y-83315000D03*
X133975000Y-83315000D03*
X132705000Y-83315000D03*
X131435000Y-83315000D03*
X130165000Y-83315000D03*
X128895000Y-83315000D03*
X127625000Y-83315000D03*
X126355000Y-83315000D03*
X125085000Y-83315000D03*
X136515000Y-84585000D03*
X135245000Y-84585000D03*
X133975000Y-84585000D03*
X132705000Y-84585000D03*
X131435000Y-84585000D03*
X130165000Y-84585000D03*
X128895000Y-84585000D03*
X127625000Y-84585000D03*
X126355000Y-84585000D03*
X125085000Y-84585000D03*
X136515000Y-85855000D03*
X135245000Y-85855000D03*
X133975000Y-85855000D03*
X132705000Y-85855000D03*
X131435000Y-85855000D03*
X130165000Y-85855000D03*
X128895000Y-85855000D03*
X127625000Y-85855000D03*
X126355000Y-85855000D03*
X125085000Y-85855000D03*
X136515000Y-87125000D03*
X135245000Y-87125000D03*
X133975000Y-87125000D03*
X132705000Y-87125000D03*
X131435000Y-87125000D03*
X130165000Y-87125000D03*
X128895000Y-87125000D03*
X127625000Y-87125000D03*
X126355000Y-87125000D03*
X125085000Y-87125000D03*
X136515000Y-88395000D03*
X135245000Y-88395000D03*
X133975000Y-88395000D03*
X132705000Y-88395000D03*
X131435000Y-88395000D03*
X130165000Y-88395000D03*
X128895000Y-88395000D03*
X127625000Y-88395000D03*
X126355000Y-88395000D03*
X125085000Y-88395000D03*
X136515000Y-89665000D03*
X135245000Y-89665000D03*
X133975000Y-89665000D03*
X132705000Y-89665000D03*
X131435000Y-89665000D03*
X130165000Y-89665000D03*
X128895000Y-89665000D03*
X127625000Y-89665000D03*
X126355000Y-89665000D03*
X125085000Y-89665000D03*
X136515000Y-90935000D03*
X135245000Y-90935000D03*
X133975000Y-90935000D03*
X132705000Y-90935000D03*
X131435000Y-90935000D03*
X130165000Y-90935000D03*
X128895000Y-90935000D03*
X127625000Y-90935000D03*
X126355000Y-90935000D03*
X125085000Y-90935000D03*
X136515000Y-92205000D03*
X135245000Y-92205000D03*
X133975000Y-92205000D03*
X132705000Y-92205000D03*
X131435000Y-92205000D03*
X130165000Y-92205000D03*
X128895000Y-92205000D03*
X127625000Y-92205000D03*
X126355000Y-92205000D03*
X125085000Y-92205000D03*
X136515000Y-93475000D03*
X135245000Y-93475000D03*
X133975000Y-93475000D03*
X132705000Y-93475000D03*
X131435000Y-93475000D03*
X130165000Y-93475000D03*
X128895000Y-93475000D03*
X127625000Y-93475000D03*
X126355000Y-93475000D03*
X125085000Y-93475000D03*
X136515000Y-94745000D03*
X135245000Y-94745000D03*
X133975000Y-94745000D03*
X132705000Y-94745000D03*
X131435000Y-94745000D03*
X130165000Y-94745000D03*
X128895000Y-94745000D03*
X127625000Y-94745000D03*
X126355000Y-94745000D03*
X125085000Y-94745000D03*
X136515000Y-96015000D03*
X135245000Y-96015000D03*
X133975000Y-96015000D03*
X132705000Y-96015000D03*
X131435000Y-96015000D03*
X130165000Y-96015000D03*
X128895000Y-96015000D03*
X127625000Y-96015000D03*
X126355000Y-96015000D03*
X125085000Y-96015000D03*
X136515000Y-97285000D03*
X135245000Y-97285000D03*
X133975000Y-97285000D03*
X132705000Y-97285000D03*
X131435000Y-97285000D03*
X130165000Y-97285000D03*
X128895000Y-97285000D03*
X127625000Y-97285000D03*
X126355000Y-97285000D03*
X125085000Y-97285000D03*
X136515000Y-98555000D03*
X135245000Y-98555000D03*
X133975000Y-98555000D03*
X132705000Y-98555000D03*
X131435000Y-98555000D03*
X130165000Y-98555000D03*
X128895000Y-98555000D03*
X127625000Y-98555000D03*
X126355000Y-98555000D03*
X125085000Y-98555000D03*
X136515000Y-99825000D03*
X135245000Y-99825000D03*
X133975000Y-99825000D03*
X132705000Y-99825000D03*
X131435000Y-99825000D03*
X130165000Y-99825000D03*
X128895000Y-99825000D03*
X127625000Y-99825000D03*
X126355000Y-99825000D03*
X125085000Y-99825000D03*
X136515000Y-101095000D03*
X135245000Y-101095000D03*
X133975000Y-101095000D03*
X132705000Y-101095000D03*
X131435000Y-101095000D03*
X130165000Y-101095000D03*
X128895000Y-101095000D03*
X127625000Y-101095000D03*
X126355000Y-101095000D03*
X125085000Y-101095000D03*
X136515000Y-102365000D03*
X135245000Y-102365000D03*
X133975000Y-102365000D03*
X132705000Y-102365000D03*
X131435000Y-102365000D03*
X130165000Y-102365000D03*
X128895000Y-102365000D03*
X127625000Y-102365000D03*
X126355000Y-102365000D03*
X125085000Y-102365000D03*
X136515000Y-103635000D03*
X135245000Y-103635000D03*
X133975000Y-103635000D03*
X132705000Y-103635000D03*
X131435000Y-103635000D03*
X130165000Y-103635000D03*
X128895000Y-103635000D03*
X127625000Y-103635000D03*
X126355000Y-103635000D03*
X125085000Y-103635000D03*
X136515000Y-104905000D03*
X135245000Y-104905000D03*
X133975000Y-104905000D03*
X132705000Y-104905000D03*
X131435000Y-104905000D03*
X130165000Y-104905000D03*
X128895000Y-104905000D03*
X127625000Y-104905000D03*
X126355000Y-104905000D03*
X125085000Y-104905000D03*
X136515000Y-106175000D03*
X135245000Y-106175000D03*
X133975000Y-106175000D03*
X132705000Y-106175000D03*
X131435000Y-106175000D03*
X130165000Y-106175000D03*
X128895000Y-106175000D03*
X127625000Y-106175000D03*
X126355000Y-106175000D03*
X125085000Y-106175000D03*
X136515000Y-107445000D03*
X135245000Y-107445000D03*
X133975000Y-107445000D03*
X132705000Y-107445000D03*
X131435000Y-107445000D03*
X130165000Y-107445000D03*
X128895000Y-107445000D03*
X127625000Y-107445000D03*
X126355000Y-107445000D03*
X125085000Y-107445000D03*
X136515000Y-108715000D03*
X135245000Y-108715000D03*
X133975000Y-108715000D03*
X132705000Y-108715000D03*
X131435000Y-108715000D03*
X130165000Y-108715000D03*
X128895000Y-108715000D03*
X127625000Y-108715000D03*
X126355000Y-108715000D03*
X125085000Y-108715000D03*
X136515000Y-109985000D03*
X135245000Y-109985000D03*
X133975000Y-109985000D03*
X132705000Y-109985000D03*
X131435000Y-109985000D03*
X130165000Y-109985000D03*
X128895000Y-109985000D03*
X127625000Y-109985000D03*
X126355000Y-109985000D03*
X125085000Y-109985000D03*
X136515000Y-111255000D03*
X135245000Y-111255000D03*
X133975000Y-111255000D03*
X132705000Y-111255000D03*
X131435000Y-111255000D03*
X130165000Y-111255000D03*
X128895000Y-111255000D03*
X127625000Y-111255000D03*
X126355000Y-111255000D03*
X125085000Y-111255000D03*
X136515000Y-112525000D03*
X135245000Y-112525000D03*
X133975000Y-112525000D03*
X132705000Y-112525000D03*
X131435000Y-112525000D03*
X130165000Y-112525000D03*
X128895000Y-112525000D03*
X127625000Y-112525000D03*
X126355000Y-112525000D03*
X125085000Y-112525000D03*
X136515000Y-113795000D03*
X135245000Y-113795000D03*
X133975000Y-113795000D03*
X132705000Y-113795000D03*
X131435000Y-113795000D03*
X130165000Y-113795000D03*
X128895000Y-113795000D03*
X127625000Y-113795000D03*
X126355000Y-113795000D03*
X125085000Y-113795000D03*
X136515000Y-115065000D03*
X135245000Y-115065000D03*
X133975000Y-115065000D03*
X132705000Y-115065000D03*
X131435000Y-115065000D03*
X130165000Y-115065000D03*
X128895000Y-115065000D03*
X127625000Y-115065000D03*
X126355000Y-115065000D03*
X125085000Y-115065000D03*
D12*
X137392220Y-21116600D03*
X147590320Y-21116600D03*
D13*
X142490000Y-25381260D03*
X139990640Y-25381260D03*
D12*
X187122220Y-22236600D03*
X197320320Y-22236600D03*
D13*
X192220000Y-26501260D03*
X189720640Y-26501260D03*
D14*
X177000000Y-91000000D03*
X175501400Y-91500002D03*
X174002800Y-92000001D03*
X177000000Y-92500000D03*
X175501400Y-93000001D03*
X174002800Y-93500000D03*
X177000000Y-94000002D03*
X175501400Y-94500001D03*
X174002800Y-95000000D03*
X177000000Y-95500001D03*
X175501400Y-96000000D03*
X174002800Y-96500002D03*
X177000000Y-97000001D03*
X175501400Y-97500000D03*
X174002800Y-98000001D03*
X177000000Y-98500000D03*
X175501400Y-99000002D03*
X174002800Y-99500001D03*
X177000000Y-100000000D03*
X175501400Y-100500001D03*
X180847899Y-104347901D03*
X181347901Y-105846501D03*
X181847900Y-107345101D03*
X182347899Y-104347901D03*
X182847900Y-105846501D03*
X183347899Y-107345101D03*
X183847901Y-104347901D03*
X184347900Y-105846501D03*
X184847899Y-107345101D03*
X185347901Y-104347901D03*
X185847900Y-105846501D03*
X186347901Y-107345101D03*
X186847900Y-104347901D03*
X187347899Y-105846501D03*
X187847901Y-107345101D03*
X188347900Y-104347901D03*
X188847901Y-105846501D03*
X189347900Y-107345101D03*
X189847899Y-104347901D03*
X190347901Y-105846501D03*
X194195800Y-100500001D03*
X195694400Y-100000000D03*
X197193000Y-99500001D03*
X194195800Y-99000002D03*
X195694400Y-98500000D03*
X197193000Y-98000001D03*
X194195800Y-97500000D03*
X195694400Y-97000001D03*
X197193000Y-96500002D03*
X194195800Y-96000000D03*
X195694400Y-95500001D03*
X197193000Y-95000000D03*
X194195800Y-94500001D03*
X195694400Y-94000002D03*
X197193000Y-93500000D03*
X194195800Y-93000001D03*
X195694400Y-92500000D03*
X197193000Y-92000001D03*
X194195800Y-91500002D03*
X195694400Y-91000000D03*
X190347901Y-87152101D03*
X189847899Y-85653501D03*
X189347900Y-84154901D03*
X188847901Y-87152101D03*
X188347900Y-85653501D03*
X187847901Y-84154901D03*
X187347899Y-87152101D03*
X186847900Y-85653501D03*
X186347901Y-84154901D03*
X185847899Y-87152101D03*
X185347900Y-85653501D03*
X184847899Y-84154901D03*
X184347900Y-87152101D03*
X183847901Y-85653501D03*
X183347899Y-84154901D03*
X182847900Y-87152101D03*
X182347899Y-85653501D03*
X181847900Y-84154901D03*
X181347901Y-87152101D03*
X180847899Y-85653501D03*
D15*
X185597900Y-95750001D03*
D16*
X172097800Y-109250101D03*
X199098000Y-82249901D03*
D17*
X212850000Y-23420000D03*
D18*
X212850000Y-28120000D03*
D17*
X212850000Y-18720000D03*
X159530000Y-23170000D03*
D18*
X159530000Y-27870000D03*
D17*
X159530000Y-18470000D03*
D19*
X183480000Y-115870000D03*
X205750000Y-95454240D03*
X187550000Y-72910000D03*
X163210000Y-91600000D03*
X171480000Y-94910000D03*
X183400000Y-110900000D03*
X167190000Y-90830000D03*
X167724240Y-75700000D03*
X168830000Y-80180000D03*
X192275760Y-78100000D03*
X163310000Y-82684240D03*
D20*
X133975000Y-106175000D03*
D21*
X162950000Y-100284240D03*
X187870000Y-115330000D03*
X212480000Y-99970000D03*
X204500000Y-74340000D03*
X138640000Y-38280000D03*
X119080000Y-21620000D03*
X167680000Y-152200000D03*
X167920000Y-166860000D03*
D19*
X167680000Y-108550000D03*
X167720000Y-68580000D03*
D21*
X200670000Y-117080000D03*
X238940000Y-164010000D03*
X225810000Y-152610000D03*
X262330000Y-85610000D03*
D19*
X204340000Y-89660000D03*
X194350000Y-109960000D03*
D22*
X171680000Y-85780000D03*
X172260000Y-89790000D03*
D23*
X155940000Y-85730000D03*
X132705000Y-69345000D03*
X130420000Y-60540000D03*
X132705000Y-70615000D03*
X148390000Y-107370000D03*
X158630000Y-107290000D03*
X192145000Y-128385000D03*
X128895000Y-71885000D03*
X197440000Y-129460000D03*
X128895000Y-73155000D03*
X193740000Y-59320000D03*
X127625000Y-73155000D03*
D22*
X164230000Y-104490000D03*
D23*
X127630000Y-61260000D03*
X132705000Y-74425000D03*
X145530000Y-104800000D03*
X158500000Y-104500000D03*
X197280000Y-58540000D03*
X127625000Y-74425000D03*
X128320000Y-60880000D03*
X132705000Y-75695000D03*
X146260000Y-97720000D03*
X151140000Y-98060000D03*
X195690000Y-130500000D03*
X128895000Y-75695000D03*
X155180000Y-86300000D03*
X133975000Y-76965000D03*
X193080000Y-131400000D03*
X128895000Y-76965000D03*
X196310000Y-57800000D03*
X127625000Y-76965000D03*
X154610000Y-88150000D03*
X133975000Y-78235000D03*
X139360000Y-66330000D03*
X132705000Y-78235000D03*
X158560000Y-106420000D03*
X152510000Y-106470000D03*
X183100000Y-57050000D03*
X127625000Y-78235000D03*
X140090000Y-79450000D03*
X132705000Y-79505000D03*
X148020000Y-103780000D03*
X158530000Y-103800000D03*
X128895000Y-79505000D03*
X196790000Y-132300000D03*
X229730000Y-106160000D03*
X113470000Y-84170000D03*
X174220000Y-56020000D03*
X127625000Y-80775000D03*
X153150000Y-84710000D03*
X133975000Y-82045000D03*
X147170000Y-102290000D03*
X158520000Y-102750000D03*
X132705000Y-82045000D03*
X139640000Y-80800000D03*
X177300000Y-55240000D03*
X127625000Y-82045000D03*
D22*
X171690000Y-87000000D03*
D23*
X152320000Y-86950000D03*
X133975000Y-83315000D03*
X141680000Y-84290000D03*
X132705000Y-83315000D03*
X144940000Y-105350000D03*
X158370000Y-105600000D03*
X229160000Y-104540000D03*
X114440000Y-84270000D03*
X115110000Y-84440000D03*
X228240000Y-107720000D03*
X181840000Y-54100000D03*
X127625000Y-84585000D03*
X176290000Y-121730000D03*
X132705000Y-85855000D03*
X141490000Y-85950000D03*
X143710000Y-117880000D03*
X175110000Y-52840000D03*
X127625000Y-85855000D03*
X133975000Y-87125000D03*
X149520000Y-87180000D03*
X178080000Y-122640000D03*
X132705000Y-87125000D03*
X140530000Y-86540000D03*
X143010000Y-118420000D03*
D22*
X202570000Y-105480000D03*
X202430000Y-103100000D03*
X202450000Y-99650000D03*
D23*
X115380000Y-86440000D03*
X227190000Y-105400000D03*
X215820000Y-83920000D03*
X200270000Y-62530000D03*
X198160000Y-62710000D03*
X133975000Y-88395000D03*
X116170000Y-87840000D03*
X225410000Y-103810000D03*
X127625000Y-88395000D03*
X179140000Y-51390000D03*
X174500000Y-123350000D03*
X132705000Y-89665000D03*
X142390000Y-118770000D03*
X141960000Y-89540000D03*
X180670000Y-50150000D03*
X127625000Y-89665000D03*
D22*
X178510000Y-107400000D03*
D23*
X141060000Y-90670000D03*
X141630000Y-119340000D03*
X132705000Y-90935000D03*
X176850000Y-123980000D03*
X224570000Y-108340000D03*
X116980000Y-90360000D03*
D22*
X194070000Y-90270000D03*
D23*
X133975000Y-92205000D03*
X214240000Y-86420000D03*
X199810000Y-64880000D03*
X198120000Y-64970000D03*
D22*
X196210000Y-104070000D03*
D23*
X117810000Y-91580000D03*
X223170000Y-106880000D03*
X176330000Y-48660000D03*
X127625000Y-92205000D03*
X151000000Y-96480000D03*
X133975000Y-93475000D03*
X179340000Y-124750000D03*
X132705000Y-93475000D03*
X140410000Y-92930000D03*
X141120000Y-120170000D03*
X173840000Y-125490000D03*
X132705000Y-94745000D03*
X140280000Y-120700000D03*
X139540000Y-94890000D03*
X118640000Y-94110000D03*
X221690000Y-91990000D03*
X220290000Y-84700000D03*
X119750000Y-95440000D03*
X133975000Y-97285000D03*
X217830000Y-92760000D03*
X144450000Y-117240000D03*
X144170000Y-97320000D03*
D22*
X175390000Y-108490000D03*
D23*
X175430000Y-126230000D03*
X132705000Y-97285000D03*
X138620000Y-96150000D03*
X139440000Y-121190000D03*
X148600000Y-98840000D03*
X133975000Y-98555000D03*
X191670000Y-120810000D03*
X132705000Y-98555000D03*
X151380000Y-119810000D03*
X149810000Y-99900000D03*
X237530000Y-87260000D03*
X109220000Y-98020000D03*
X109990000Y-99200000D03*
X235880000Y-88200000D03*
X132705000Y-101095000D03*
X198080000Y-126900000D03*
X132705000Y-102365000D03*
X196310000Y-127600000D03*
X240310000Y-85310000D03*
X107250000Y-101760000D03*
X195060000Y-48450000D03*
X106270000Y-103000000D03*
X191950000Y-45900000D03*
X106210000Y-105490000D03*
X106050000Y-109360000D03*
X196840000Y-73230000D03*
D22*
X188780000Y-83330000D03*
X191820000Y-83180000D03*
X193330000Y-84750000D03*
D23*
X194440000Y-42830000D03*
X105750000Y-110470000D03*
D24*
X175501400Y-94500001D02*
X174990001Y-94500001D01*
X174990001Y-94500001D02*
X174740000Y-94250000D01*
X171680000Y-85780000D02*
X171680000Y-85770000D01*
X172260000Y-93580000D02*
X172260000Y-89790000D01*
X172930000Y-94250000D02*
X172260000Y-93580000D01*
X174740000Y-94250000D02*
X172930000Y-94250000D01*
X155960000Y-85750000D02*
X155960000Y-85770000D01*
X155940000Y-85730000D02*
X155960000Y-85750000D01*
X169350000Y-85770000D02*
X155960000Y-85770000D01*
X171680000Y-85770000D02*
X169350000Y-85770000D01*
X155960000Y-85770000D02*
X155910000Y-85720000D01*
X132705000Y-69275000D02*
X132705000Y-69345000D01*
X175501400Y-94500001D02*
X175501400Y-94148600D01*
X175501400Y-94500001D02*
X175501400Y-94438600D01*
X169000000Y-106300000D02*
X160260000Y-106300000D01*
X178200001Y-97000001D02*
X179500000Y-98300000D01*
X179500000Y-98300000D02*
X179500000Y-100200000D01*
X179500000Y-100200000D02*
X173400000Y-106300000D01*
X173400000Y-106300000D02*
X169000000Y-106300000D01*
X177000000Y-97000001D02*
X178200001Y-97000001D01*
X130420000Y-60540000D02*
X124290000Y-54410000D01*
X124290000Y-54410000D02*
X99000000Y-54410000D01*
X99000000Y-54410000D02*
X86710000Y-66700000D01*
X86710000Y-66700000D02*
X86710000Y-123750000D01*
X86710000Y-123750000D02*
X92550000Y-129590000D01*
X92550000Y-129590000D02*
X141650000Y-129590000D01*
X141650000Y-129590000D02*
X148370000Y-122870000D01*
X148370000Y-111040000D02*
X148370000Y-122870000D01*
X148370000Y-107390000D02*
X148370000Y-111040000D01*
X148390000Y-107370000D02*
X148370000Y-107390000D01*
X159270000Y-107290000D02*
X158630000Y-107290000D01*
X160260000Y-106300000D02*
X159270000Y-107290000D01*
X187847901Y-108107901D02*
X188660000Y-108920000D01*
X188660000Y-108920000D02*
X191030000Y-108920000D01*
X191030000Y-108920000D02*
X192340000Y-110230000D01*
X192340000Y-110230000D02*
X192340000Y-120760000D01*
X187847901Y-107345101D02*
X187847901Y-108107901D01*
X192340000Y-128190000D02*
X192340000Y-120760000D01*
X192340000Y-128190000D02*
X192145000Y-128385000D01*
X197430000Y-120730000D02*
X197430000Y-129450000D01*
X197430000Y-129450000D02*
X197440000Y-129460000D01*
X188347900Y-104347901D02*
X188347900Y-103402100D01*
X197430000Y-120730000D02*
X197400000Y-120760000D01*
X197430000Y-108650000D02*
X197430000Y-120730000D01*
X191330000Y-102550000D02*
X197430000Y-108650000D01*
X189200000Y-102550000D02*
X191330000Y-102550000D01*
X188347900Y-103402100D02*
X189200000Y-102550000D01*
X193740000Y-59320000D02*
X193740000Y-73450000D01*
X193740000Y-81630000D02*
X193740000Y-73450000D01*
X192750000Y-82350000D02*
X193740000Y-81630000D01*
X188890000Y-82350000D02*
X192750000Y-82350000D01*
X188890000Y-82350000D02*
X187847901Y-84032099D01*
X187847901Y-84154901D02*
X187847901Y-84032099D01*
X164230000Y-104490000D02*
X164230000Y-104450000D01*
X164230000Y-104490000D02*
X164230000Y-104450000D01*
X145080000Y-109610000D02*
X145080000Y-107310000D01*
X127630000Y-61260000D02*
X123220000Y-56850000D01*
X123220000Y-56850000D02*
X101660000Y-56850000D01*
X101660000Y-56850000D02*
X91300000Y-67210000D01*
X91300000Y-67210000D02*
X91380000Y-67210000D01*
X91380000Y-67210000D02*
X91120000Y-67470000D01*
X91120000Y-67470000D02*
X91120000Y-120710000D01*
X91120000Y-120710000D02*
X94430000Y-124020000D01*
X94430000Y-124020000D02*
X140280000Y-124020000D01*
X140280000Y-124020000D02*
X145080000Y-119220000D01*
X145080000Y-109610000D02*
X145080000Y-119220000D01*
X145530000Y-106860000D02*
X145530000Y-104800000D01*
X145080000Y-107310000D02*
X145530000Y-106860000D01*
X164230000Y-104450000D02*
X158550000Y-104450000D01*
X158550000Y-104450000D02*
X158500000Y-104500000D01*
X175501400Y-97500000D02*
X175880000Y-97500000D01*
X197250000Y-73910000D02*
X197250000Y-58570000D01*
X197250000Y-58570000D02*
X197280000Y-58540000D01*
X187347899Y-87152101D02*
X187347899Y-87867899D01*
X197250000Y-83780000D02*
X197250000Y-73910000D01*
X191600000Y-89430000D02*
X197250000Y-83780000D01*
X188910000Y-89430000D02*
X191600000Y-89430000D01*
X187347899Y-87867899D02*
X188910000Y-89430000D01*
X151140000Y-98060000D02*
X151830000Y-98060000D01*
X152720000Y-97170000D02*
X153480000Y-97170000D01*
X151830000Y-98060000D02*
X152720000Y-97170000D01*
X166750000Y-97170000D02*
X153480000Y-97170000D01*
X128320000Y-60880000D02*
X123460000Y-56020000D01*
X123460000Y-56020000D02*
X101190000Y-56020000D01*
X101190000Y-56020000D02*
X90140000Y-67070000D01*
X90140000Y-67070000D02*
X90140000Y-121540000D01*
X90140000Y-121540000D02*
X94110000Y-125510000D01*
X94110000Y-125510000D02*
X140650000Y-125510000D01*
X140650000Y-125510000D02*
X146240000Y-119920000D01*
X146240000Y-119920000D02*
X146240000Y-97780000D01*
X146290000Y-97730000D02*
X146240000Y-97780000D01*
X146280000Y-97740000D02*
X146290000Y-97730000D01*
X146260000Y-97720000D02*
X146280000Y-97740000D01*
X174002800Y-98000001D02*
X173180001Y-98000001D01*
X172350000Y-97170000D02*
X166750000Y-97170000D01*
X166750000Y-97170000D02*
X166730000Y-97170000D01*
X173180001Y-98000001D02*
X172350000Y-97170000D01*
X195680000Y-121590000D02*
X195680000Y-130490000D01*
X195680000Y-130490000D02*
X195690000Y-130500000D01*
X188847901Y-105846501D02*
X189056501Y-105846501D01*
X189056501Y-105846501D02*
X189950000Y-106740000D01*
X189950000Y-106740000D02*
X193030000Y-106740000D01*
X193030000Y-106740000D02*
X195680000Y-109390000D01*
X195680000Y-109390000D02*
X195680000Y-121590000D01*
X195680000Y-121590000D02*
X195680000Y-121620000D01*
X155180000Y-86300000D02*
X155180000Y-86320000D01*
X155180000Y-86320000D02*
X155180000Y-86300000D01*
X155180000Y-86300000D02*
X155180000Y-86320000D01*
X169510000Y-86320000D02*
X155180000Y-86320000D01*
X175501400Y-89001400D02*
X172820000Y-86320000D01*
X172820000Y-86320000D02*
X169510000Y-86320000D01*
X175501400Y-91500002D02*
X175501400Y-89001400D01*
X193070000Y-120620000D02*
X193070000Y-131390000D01*
X193070000Y-131390000D02*
X193080000Y-131400000D01*
X189347900Y-107345101D02*
X192575101Y-107345101D01*
X193070000Y-107840000D02*
X193070000Y-120620000D01*
X193070000Y-120620000D02*
X193070000Y-120700000D01*
X192575101Y-107345101D02*
X193070000Y-107840000D01*
X196330000Y-74010000D02*
X196330000Y-57820000D01*
X196330000Y-57820000D02*
X196310000Y-57800000D01*
X186847900Y-85653501D02*
X187123501Y-85653501D01*
X187123501Y-85653501D02*
X187870000Y-86400000D01*
X187870000Y-86400000D02*
X191360000Y-86400000D01*
X191360000Y-86400000D02*
X193290000Y-86400000D01*
X193290000Y-86400000D02*
X196330000Y-83360000D01*
X196330000Y-83360000D02*
X196330000Y-74010000D01*
X196330000Y-74010000D02*
X196330000Y-73920000D01*
X154610000Y-88150000D02*
X154610000Y-88180000D01*
X154610000Y-88180000D02*
X154610000Y-88150000D01*
X154610000Y-88150000D02*
X154610000Y-88180000D01*
X169650000Y-88180000D02*
X154610000Y-88180000D01*
X174002800Y-89392800D02*
X172790000Y-88180000D01*
X172790000Y-88180000D02*
X169650000Y-88180000D01*
X174002800Y-92000001D02*
X174002800Y-89392800D01*
X152500000Y-111680000D02*
X152500000Y-106480000D01*
X139360000Y-66330000D02*
X139370000Y-66320000D01*
X139370000Y-66320000D02*
X139370000Y-64580000D01*
X139370000Y-64580000D02*
X125470000Y-50680000D01*
X125470000Y-50680000D02*
X99120000Y-50680000D01*
X99120000Y-50680000D02*
X83210000Y-66590000D01*
X83210000Y-66590000D02*
X83210000Y-126130000D01*
X83210000Y-126130000D02*
X90240000Y-133160000D01*
X90240000Y-133160000D02*
X147030000Y-133160000D01*
X147030000Y-133160000D02*
X152500000Y-127690000D01*
X152500000Y-111680000D02*
X152500000Y-127690000D01*
X159845000Y-105615000D02*
X159040000Y-106420000D01*
X159040000Y-106420000D02*
X158560000Y-106420000D01*
X159845000Y-105615000D02*
X169115000Y-105615000D01*
X152500000Y-106480000D02*
X152510000Y-106470000D01*
X177000000Y-98500000D02*
X178500000Y-98500000D01*
X169300000Y-105800000D02*
X169115000Y-105615000D01*
X169115000Y-105615000D02*
X169100000Y-105600000D01*
X173000000Y-105800000D02*
X169300000Y-105800000D01*
X178900000Y-99900000D02*
X173000000Y-105800000D01*
X178900000Y-98900000D02*
X178900000Y-99900000D01*
X178500000Y-98500000D02*
X178900000Y-98900000D01*
X183120000Y-72200000D02*
X183120000Y-57070000D01*
X184847899Y-83087899D02*
X183120000Y-81360000D01*
X183120000Y-81360000D02*
X183120000Y-72200000D01*
X184847899Y-84154901D02*
X184847899Y-83087899D01*
X183120000Y-57070000D02*
X183100000Y-57050000D01*
X169450000Y-103770000D02*
X158560000Y-103770000D01*
X140090000Y-79450000D02*
X147970000Y-87330000D01*
X147970000Y-103550000D02*
X147970000Y-87330000D01*
X147970000Y-103730000D02*
X147970000Y-103550000D01*
X148020000Y-103780000D02*
X147970000Y-103730000D01*
X158560000Y-103770000D02*
X158530000Y-103800000D01*
X175501400Y-99000002D02*
X175501400Y-99128600D01*
X175501400Y-99128600D02*
X174640000Y-99990000D01*
X174640000Y-99990000D02*
X174640000Y-102190000D01*
X174640000Y-102190000D02*
X173060000Y-103770000D01*
X173060000Y-103770000D02*
X169450000Y-103770000D01*
X169450000Y-103770000D02*
X169360000Y-103770000D01*
X196890000Y-120670000D02*
X196890000Y-132220000D01*
X196810000Y-132300000D02*
X196790000Y-132300000D01*
X196890000Y-132220000D02*
X196810000Y-132300000D01*
X189847899Y-104347901D02*
X189847899Y-103842101D01*
X189847899Y-103842101D02*
X190240000Y-103450000D01*
X190240000Y-103450000D02*
X191420000Y-103450000D01*
X191420000Y-103450000D02*
X196890000Y-108920000D01*
X196890000Y-108920000D02*
X196890000Y-120670000D01*
X196890000Y-120670000D02*
X196900000Y-120680000D01*
X201590000Y-106170000D02*
X229720000Y-106170000D01*
X229720000Y-106170000D02*
X229730000Y-106160000D01*
X128895000Y-80775000D02*
X128895000Y-80735000D01*
X128895000Y-80735000D02*
X128290000Y-80130000D01*
X128290000Y-80130000D02*
X117100000Y-80130000D01*
X117100000Y-80130000D02*
X113470000Y-83760000D01*
X113470000Y-83760000D02*
X113470000Y-84170000D01*
X195694400Y-100000000D02*
X195694400Y-102824400D01*
X199040000Y-106170000D02*
X201590000Y-106170000D01*
X201590000Y-106170000D02*
X201660000Y-106170000D01*
X195694400Y-102824400D02*
X199040000Y-106170000D01*
X174240000Y-70940000D02*
X174240000Y-56040000D01*
X174240000Y-84020000D02*
X174240000Y-70940000D01*
X179040000Y-88820000D02*
X174240000Y-84020000D01*
X184347900Y-88762100D02*
X183870000Y-89240000D01*
X183870000Y-89240000D02*
X179460000Y-89240000D01*
X179460000Y-89240000D02*
X179040000Y-88820000D01*
X184347900Y-87152101D02*
X184347900Y-88762100D01*
X174240000Y-56040000D02*
X174220000Y-56020000D01*
X184347900Y-87152101D02*
X184347900Y-87622100D01*
X153150000Y-84710000D02*
X153150000Y-84700000D01*
X153150000Y-84700000D02*
X153150000Y-84710000D01*
X153150000Y-84710000D02*
X153150000Y-84700000D01*
X169400000Y-84700000D02*
X153150000Y-84700000D01*
X173400000Y-84700000D02*
X169400000Y-84700000D01*
X178130000Y-89240000D02*
X173400000Y-84700000D01*
X178130000Y-91840000D02*
X178130000Y-89240000D01*
X177200000Y-92500000D02*
X178130000Y-91840000D01*
X177000000Y-92500000D02*
X177200000Y-92500000D01*
X169040000Y-102750000D02*
X158520000Y-102750000D01*
X147170000Y-102290000D02*
X147160000Y-102290000D01*
X139640000Y-80800000D02*
X146350000Y-87510000D01*
X146350000Y-87510000D02*
X146350000Y-95250000D01*
X146350000Y-95250000D02*
X147160000Y-96060000D01*
X147160000Y-102290000D02*
X147160000Y-96060000D01*
X174002800Y-99500001D02*
X174002800Y-101797200D01*
X173610000Y-102190000D02*
X169040000Y-102750000D01*
X169040000Y-102750000D02*
X169020000Y-102750000D01*
X174002800Y-101797200D02*
X173610000Y-102190000D01*
X177330000Y-71200000D02*
X177330000Y-55270000D01*
X177330000Y-55270000D02*
X177300000Y-55240000D01*
X183847901Y-85653501D02*
X183596499Y-85653501D01*
X183596499Y-85653501D02*
X182850000Y-86400000D01*
X182850000Y-86400000D02*
X179310000Y-86400000D01*
X179310000Y-86400000D02*
X177330000Y-84420000D01*
X177330000Y-84420000D02*
X177330000Y-71200000D01*
X177330000Y-71200000D02*
X177310000Y-71180000D01*
X171690000Y-87000000D02*
X171690000Y-86990000D01*
X171690000Y-87000000D02*
X171690000Y-86990000D01*
X152320000Y-86950000D02*
X152320000Y-86990000D01*
X152320000Y-86990000D02*
X152320000Y-86950000D01*
X152320000Y-86950000D02*
X152320000Y-86990000D01*
X169390000Y-86990000D02*
X152320000Y-86990000D01*
X171690000Y-86990000D02*
X169390000Y-86990000D01*
X175501400Y-93000001D02*
X175460001Y-93000001D01*
X175501400Y-93000001D02*
X175501400Y-92901400D01*
X169210000Y-105100000D02*
X159360000Y-105100000D01*
X141680000Y-84290000D02*
X144870000Y-87480000D01*
X144870000Y-87480000D02*
X144870000Y-105250000D01*
X145010000Y-105390000D02*
X144870000Y-105250000D01*
X144955000Y-105335000D02*
X145010000Y-105390000D01*
X144940000Y-105350000D02*
X144955000Y-105335000D01*
X158860000Y-105600000D02*
X158370000Y-105600000D01*
X159360000Y-105100000D02*
X158860000Y-105600000D01*
X177000000Y-100000000D02*
X177000000Y-101200000D01*
X173100000Y-105100000D02*
X169210000Y-105100000D01*
X169210000Y-105100000D02*
X169200000Y-105100000D01*
X177000000Y-101200000D02*
X173100000Y-105100000D01*
X208430000Y-104550000D02*
X229150000Y-104550000D01*
X197193000Y-102443000D02*
X199300000Y-104550000D01*
X199300000Y-104550000D02*
X208430000Y-104550000D01*
X197193000Y-99500001D02*
X197193000Y-102443000D01*
X229150000Y-104550000D02*
X229160000Y-104540000D01*
X128895000Y-83315000D02*
X128895000Y-83295000D01*
X128895000Y-83295000D02*
X128280000Y-82680000D01*
X128280000Y-82680000D02*
X116030000Y-82680000D01*
X116030000Y-82680000D02*
X114400000Y-84310000D01*
X114400000Y-84310000D02*
X114440000Y-84270000D01*
X202000000Y-107700000D02*
X228220000Y-107700000D01*
X115110000Y-84420000D02*
X115110000Y-84440000D01*
X115580000Y-83950000D02*
X115110000Y-84420000D01*
X128270000Y-83950000D02*
X115580000Y-83950000D01*
X128270000Y-83950000D02*
X128895000Y-84575000D01*
X228220000Y-107700000D02*
X228240000Y-107720000D01*
X128895000Y-84585000D02*
X128895000Y-84575000D01*
X194195800Y-99000002D02*
X192429998Y-99000002D01*
X198910000Y-107700000D02*
X202000000Y-107700000D01*
X202000000Y-107700000D02*
X202070000Y-107700000D01*
X192140000Y-100930000D02*
X198910000Y-107700000D01*
X192140000Y-99290000D02*
X192140000Y-100930000D01*
X192429998Y-99000002D02*
X192140000Y-99290000D01*
X181850000Y-72090000D02*
X181850000Y-54110000D01*
X183347899Y-83027899D02*
X181850000Y-81530000D01*
X181850000Y-81530000D02*
X181850000Y-72090000D01*
X183347899Y-84154901D02*
X183347899Y-83027899D01*
X181850000Y-54110000D02*
X181840000Y-54100000D01*
X176280000Y-112250000D02*
X176280000Y-121720000D01*
X176280000Y-121720000D02*
X176290000Y-121730000D01*
X141490000Y-85950000D02*
X143640000Y-88100000D01*
X143640000Y-88100000D02*
X143640000Y-117810000D01*
X143640000Y-117810000D02*
X143710000Y-117880000D01*
X181347901Y-105846501D02*
X179103499Y-105846501D01*
X176300000Y-112230000D02*
X176280000Y-112250000D01*
X176280000Y-112250000D02*
X176260000Y-112270000D01*
X176300000Y-108650000D02*
X176300000Y-112230000D01*
X179103499Y-105846501D02*
X176300000Y-108650000D01*
X175110000Y-71130000D02*
X175110000Y-52840000D01*
X182847900Y-87152101D02*
X182847900Y-87592100D01*
X182847900Y-87592100D02*
X182190000Y-88250000D01*
X182190000Y-88250000D02*
X179350000Y-88250000D01*
X179350000Y-88250000D02*
X175110000Y-84010000D01*
X175110000Y-84010000D02*
X175110000Y-71130000D01*
X175110000Y-71130000D02*
X175110000Y-71090000D01*
X151180000Y-89040000D02*
X150990000Y-88850000D01*
X150990000Y-88850000D02*
X150990000Y-87200000D01*
X150990000Y-87200000D02*
X149500000Y-87200000D01*
X151180000Y-89040000D02*
X169870000Y-89040000D01*
X149520000Y-87200000D02*
X149500000Y-87200000D01*
X149520000Y-87180000D02*
X149520000Y-87200000D01*
X174002800Y-93500000D02*
X174002800Y-93472800D01*
X174002800Y-93472800D02*
X172920000Y-92390000D01*
X172920000Y-92390000D02*
X172920000Y-89550000D01*
X172920000Y-89550000D02*
X172410000Y-89040000D01*
X172410000Y-89040000D02*
X169870000Y-89040000D01*
X169870000Y-89040000D02*
X169790000Y-89040000D01*
X178170000Y-111760000D02*
X178170000Y-122550000D01*
X178170000Y-122550000D02*
X178080000Y-122640000D01*
X140530000Y-86540000D02*
X142880000Y-88890000D01*
X142880000Y-88890000D02*
X142880000Y-118290000D01*
X142880000Y-118290000D02*
X143010000Y-118420000D01*
X181847900Y-107345101D02*
X179844899Y-107345101D01*
X178170000Y-109020000D02*
X178170000Y-111760000D01*
X178170000Y-111760000D02*
X178170000Y-111820000D01*
X179844899Y-107345101D02*
X178170000Y-109020000D01*
X202430000Y-99670000D02*
X202430000Y-103100000D01*
X202450000Y-99650000D02*
X202430000Y-99670000D01*
X202570000Y-105480000D02*
X227110000Y-105480000D01*
X123940000Y-86440000D02*
X115380000Y-86440000D01*
X123990000Y-86490000D02*
X123940000Y-86440000D01*
X128310000Y-86490000D02*
X123990000Y-86490000D01*
X128310000Y-86490000D02*
X128895000Y-87075000D01*
X227110000Y-105480000D02*
X227190000Y-105400000D01*
X128895000Y-87125000D02*
X128895000Y-87075000D01*
X195694400Y-98500000D02*
X195694400Y-98604400D01*
X215780000Y-83880000D02*
X208780000Y-83880000D01*
X215820000Y-83920000D02*
X215780000Y-83880000D01*
X198340000Y-62530000D02*
X200270000Y-62530000D01*
X198160000Y-62710000D02*
X198340000Y-62530000D01*
X194195800Y-94500001D02*
X194140001Y-94500001D01*
X194140001Y-94500001D02*
X191780000Y-92140000D01*
X197710000Y-83880000D02*
X208780000Y-83880000D01*
X191780000Y-89810000D02*
X197710000Y-83880000D01*
X191780000Y-92140000D02*
X191780000Y-89810000D01*
X208780000Y-83880000D02*
X208790000Y-83870000D01*
X209100000Y-103800000D02*
X225390000Y-103800000D01*
X116270000Y-87740000D02*
X116170000Y-87840000D01*
X128280000Y-87740000D02*
X116270000Y-87740000D01*
X128280000Y-87740000D02*
X128895000Y-88355000D01*
X225400000Y-103810000D02*
X225410000Y-103810000D01*
X225390000Y-103800000D02*
X225400000Y-103810000D01*
X128895000Y-88395000D02*
X128895000Y-88355000D01*
X197193000Y-98000001D02*
X197193000Y-98003000D01*
X197193000Y-98003000D02*
X198210000Y-99020000D01*
X198210000Y-99020000D02*
X198210000Y-102400000D01*
X198210000Y-102400000D02*
X199610000Y-103800000D01*
X199610000Y-103800000D02*
X209100000Y-103800000D01*
X209100000Y-103800000D02*
X209210000Y-103690000D01*
X179150000Y-71700000D02*
X179150000Y-51420000D01*
X179140000Y-51410000D02*
X179140000Y-51390000D01*
X179150000Y-51420000D02*
X179140000Y-51410000D01*
X182347899Y-85653501D02*
X182063501Y-85653501D01*
X182063501Y-85653501D02*
X180490000Y-84080000D01*
X180490000Y-84080000D02*
X179160000Y-84080000D01*
X179160000Y-84080000D02*
X179150000Y-84070000D01*
X179150000Y-84070000D02*
X179150000Y-71700000D01*
X179150000Y-71700000D02*
X179280000Y-71570000D01*
X174650000Y-111800000D02*
X174650000Y-123200000D01*
X174650000Y-123200000D02*
X174500000Y-123350000D01*
X142110000Y-118490000D02*
X142390000Y-118770000D01*
X142110000Y-89690000D02*
X142110000Y-118490000D01*
X141960000Y-89540000D02*
X142110000Y-89690000D01*
X133005000Y-89665000D02*
X132705000Y-89665000D01*
X182347899Y-104347901D02*
X182347899Y-102962101D01*
X174650000Y-111800000D02*
X174700000Y-111850000D01*
X174650000Y-108370000D02*
X174650000Y-111800000D01*
X180280000Y-102740000D02*
X174650000Y-108370000D01*
X182125798Y-102740000D02*
X180280000Y-102740000D01*
X182347899Y-102962101D02*
X182125798Y-102740000D01*
X180670000Y-50150000D02*
X180670000Y-72090000D01*
X181847900Y-83077900D02*
X180670000Y-81900000D01*
X180670000Y-81900000D02*
X180670000Y-72090000D01*
X181847900Y-83077900D02*
X181847900Y-84154901D01*
X178510000Y-107400000D02*
X178495000Y-107385000D01*
X178495000Y-107385000D02*
X178510000Y-107400000D01*
X178510000Y-107400000D02*
X178510000Y-107370000D01*
X177070000Y-112350000D02*
X177070000Y-123760000D01*
X177070000Y-108810000D02*
X177070000Y-112350000D01*
X178510000Y-107370000D02*
X177070000Y-108810000D01*
X141060000Y-90670000D02*
X141220000Y-90830000D01*
X141220000Y-90830000D02*
X141220000Y-118930000D01*
X141220000Y-118930000D02*
X141630000Y-119340000D01*
X177070000Y-123760000D02*
X176850000Y-123980000D01*
X182847900Y-105846501D02*
X182713499Y-105846501D01*
X201920000Y-108370000D02*
X224540000Y-108370000D01*
X224540000Y-108370000D02*
X224570000Y-108340000D01*
X128895000Y-90935000D02*
X128895000Y-90885000D01*
X128895000Y-90885000D02*
X128310000Y-90300000D01*
X117040000Y-90300000D02*
X116980000Y-90360000D01*
X128310000Y-90300000D02*
X117040000Y-90300000D01*
X194195800Y-97500000D02*
X191870000Y-97500000D01*
X198920000Y-108370000D02*
X201920000Y-108370000D01*
X201920000Y-108370000D02*
X201980000Y-108370000D01*
X191580000Y-101030000D02*
X198920000Y-108370000D01*
X191580000Y-97790000D02*
X191580000Y-101030000D01*
X191870000Y-97500000D02*
X191580000Y-97790000D01*
X194505000Y-89835000D02*
X194505000Y-89595000D01*
X195140000Y-88960000D02*
X195140000Y-88940000D01*
X194505000Y-89595000D02*
X195140000Y-88960000D01*
X194070000Y-90270000D02*
X194505000Y-89835000D01*
X208730000Y-86370000D02*
X208730000Y-86300000D01*
X208800000Y-86300000D02*
X208730000Y-86370000D01*
X214120000Y-86300000D02*
X208800000Y-86300000D01*
X214240000Y-86420000D02*
X214120000Y-86300000D01*
X198210000Y-64880000D02*
X199810000Y-64880000D01*
X198120000Y-64970000D02*
X198210000Y-64880000D01*
X195694400Y-94000002D02*
X195694400Y-93784400D01*
X197780000Y-86300000D02*
X208730000Y-86300000D01*
X195140000Y-88940000D02*
X197780000Y-86300000D01*
X208730000Y-86300000D02*
X208850000Y-86300000D01*
X196210000Y-104070000D02*
X196195000Y-104085000D01*
X196195000Y-104085000D02*
X196210000Y-104070000D01*
X196210000Y-104070000D02*
X196210000Y-104100000D01*
X201850000Y-106890000D02*
X223160000Y-106890000D01*
X121670000Y-91580000D02*
X117810000Y-91580000D01*
X121690000Y-91560000D02*
X121670000Y-91580000D01*
X128200000Y-91560000D02*
X121690000Y-91560000D01*
X128200000Y-91560000D02*
X128845000Y-92205000D01*
X223160000Y-106890000D02*
X223170000Y-106880000D01*
X128895000Y-92205000D02*
X128845000Y-92205000D01*
X195694400Y-97000001D02*
X195694400Y-97125600D01*
X196210000Y-104100000D02*
X199000000Y-106890000D01*
X199000000Y-106890000D02*
X201850000Y-106890000D01*
X201850000Y-106890000D02*
X201880000Y-106890000D01*
X181347901Y-87152101D02*
X179192101Y-87152101D01*
X176330000Y-84290000D02*
X176330000Y-71210000D01*
X179192101Y-87152101D02*
X176330000Y-84290000D01*
X176330000Y-48660000D02*
X176330000Y-71210000D01*
X151000000Y-96500002D02*
X150980002Y-96500002D01*
X151000000Y-96480000D02*
X151000000Y-96500002D01*
X150980002Y-96500002D02*
X151020002Y-96500002D01*
X150980002Y-96500002D02*
X150930000Y-96450000D01*
X166620000Y-96500002D02*
X151020002Y-96500002D01*
X151020002Y-96500002D02*
X151020000Y-96500000D01*
X174002800Y-96500002D02*
X166620000Y-96500002D01*
X166620000Y-96500002D02*
X166599998Y-96500002D01*
X166599998Y-96500002D02*
X166560000Y-96540000D01*
X179320000Y-111750000D02*
X179320000Y-124730000D01*
X179320000Y-124730000D02*
X179340000Y-124750000D01*
X140410000Y-92930000D02*
X140390000Y-92950000D01*
X140390000Y-92950000D02*
X140390000Y-119440000D01*
X140390000Y-119440000D02*
X141120000Y-120170000D01*
X183347899Y-107345101D02*
X183347899Y-107622101D01*
X183347899Y-107622101D02*
X182560000Y-108410000D01*
X182560000Y-108410000D02*
X180070000Y-108410000D01*
X180070000Y-108410000D02*
X179320000Y-109160000D01*
X179320000Y-109160000D02*
X179320000Y-111750000D01*
X179320000Y-111750000D02*
X179320000Y-111840000D01*
X173870000Y-111870000D02*
X173870000Y-125460000D01*
X183847901Y-103017901D02*
X182890000Y-102060000D01*
X182890000Y-102060000D02*
X180100000Y-102060000D01*
X180100000Y-102060000D02*
X173870000Y-108290000D01*
X173870000Y-108290000D02*
X173870000Y-111870000D01*
X183847901Y-104347901D02*
X183847901Y-103017901D01*
X173870000Y-125460000D02*
X173840000Y-125490000D01*
X139640000Y-120060000D02*
X140280000Y-120700000D01*
X139640000Y-94990000D02*
X139640000Y-120060000D01*
X139540000Y-94890000D02*
X139640000Y-94990000D01*
X209870000Y-91920000D02*
X221620000Y-91920000D01*
X118660000Y-94130000D02*
X118640000Y-94110000D01*
X128340000Y-94130000D02*
X118660000Y-94130000D01*
X128340000Y-94130000D02*
X128895000Y-94685000D01*
X221620000Y-91920000D02*
X221690000Y-91990000D01*
X128895000Y-94745000D02*
X128895000Y-94685000D01*
X197193000Y-93500000D02*
X197193000Y-93347000D01*
X197193000Y-93347000D02*
X198620000Y-91920000D01*
X198620000Y-91920000D02*
X209870000Y-91920000D01*
X209870000Y-91920000D02*
X209890000Y-91920000D01*
X208530000Y-84650000D02*
X208530000Y-84660000D01*
X208540000Y-84660000D02*
X208530000Y-84650000D01*
X220250000Y-84660000D02*
X208540000Y-84660000D01*
X220290000Y-84700000D02*
X220250000Y-84660000D01*
X128895000Y-96015000D02*
X128895000Y-95975000D01*
X128895000Y-95975000D02*
X128300000Y-95380000D01*
X128300000Y-95380000D02*
X119810000Y-95380000D01*
X119810000Y-95380000D02*
X119750000Y-95440000D01*
X194195800Y-93000001D02*
X193360001Y-93000001D01*
X197590000Y-84660000D02*
X208530000Y-84660000D01*
X192350000Y-89900000D02*
X197590000Y-84660000D01*
X192350000Y-91990000D02*
X192350000Y-89900000D01*
X193360001Y-93000001D02*
X192350000Y-91990000D01*
X208790000Y-84660000D02*
X208820000Y-84690000D01*
X208530000Y-84660000D02*
X208790000Y-84660000D01*
X217790000Y-92720000D02*
X215360000Y-92720000D01*
X217830000Y-92760000D02*
X217790000Y-92720000D01*
X144230000Y-117020000D02*
X144450000Y-117240000D01*
X144230000Y-97380000D02*
X144230000Y-117020000D01*
X144170000Y-97320000D02*
X144230000Y-97380000D01*
X209950000Y-92720000D02*
X215360000Y-92720000D01*
X215360000Y-92720000D02*
X215410000Y-92770000D01*
X199050000Y-93120000D02*
X199050000Y-93110000D01*
X197193000Y-94977000D02*
X199050000Y-93120000D01*
X209950000Y-92720000D02*
X209980000Y-92750000D01*
X199440000Y-92720000D02*
X209950000Y-92720000D01*
X199050000Y-93110000D02*
X199440000Y-92720000D01*
X197193000Y-95000000D02*
X197193000Y-94977000D01*
X175385000Y-108485000D02*
X175380000Y-108490000D01*
X175390000Y-108490000D02*
X175385000Y-108485000D01*
X175380000Y-111960000D02*
X175380000Y-126180000D01*
X175380000Y-126180000D02*
X175430000Y-126230000D01*
X138620000Y-96150000D02*
X138810000Y-96340000D01*
X138810000Y-96340000D02*
X138810000Y-120560000D01*
X138810000Y-120560000D02*
X139440000Y-121190000D01*
X184347900Y-105846501D02*
X184216501Y-105846501D01*
X175380000Y-108490000D02*
X175380000Y-111960000D01*
X175380000Y-111960000D02*
X175380000Y-112040000D01*
X151440000Y-84100000D02*
X148820000Y-84100000D01*
X151440000Y-84130000D02*
X151440000Y-84100000D01*
X169470000Y-84070000D02*
X151440000Y-84130000D01*
X148750000Y-98690000D02*
X148600000Y-98840000D01*
X148750000Y-84360000D02*
X148750000Y-98690000D01*
X148820000Y-84100000D02*
X148750000Y-84360000D01*
X169500000Y-84100000D02*
X169470000Y-84070000D01*
X169470000Y-84070000D02*
X169400000Y-84000000D01*
X173600000Y-84100000D02*
X169500000Y-84100000D01*
X178700000Y-89200000D02*
X173600000Y-84100000D01*
X178700000Y-92200000D02*
X178700000Y-89200000D01*
X177000000Y-93900000D02*
X178700000Y-92200000D01*
X177000000Y-94000002D02*
X177000000Y-93900000D01*
X151380000Y-101470000D02*
X151380000Y-119810000D01*
X149810000Y-99900000D02*
X151380000Y-101470000D01*
X186347901Y-107345101D02*
X186347901Y-107947901D01*
X191670000Y-110750000D02*
X191670000Y-120810000D01*
X190610000Y-109690000D02*
X191670000Y-110750000D01*
X188090000Y-109690000D02*
X190610000Y-109690000D01*
X186347901Y-107947901D02*
X188090000Y-109690000D01*
X208710000Y-87250000D02*
X237520000Y-87250000D01*
X237520000Y-87250000D02*
X237530000Y-87260000D01*
X109910000Y-97920000D02*
X109340000Y-97920000D01*
X109340000Y-97920000D02*
X109240000Y-98020000D01*
X109240000Y-98020000D02*
X109220000Y-98020000D01*
X128895000Y-98475000D02*
X128330000Y-97910000D01*
X128330000Y-97910000D02*
X110020000Y-97910000D01*
X110020000Y-97910000D02*
X110010000Y-97920000D01*
X110010000Y-97920000D02*
X109910000Y-97920000D01*
X128895000Y-98555000D02*
X128895000Y-98475000D01*
X195694400Y-92500000D02*
X195694400Y-92235600D01*
X195694400Y-92235600D02*
X197100000Y-90830000D01*
X197100000Y-90830000D02*
X197100000Y-88560000D01*
X197100000Y-88560000D02*
X197780000Y-87250000D01*
X197780000Y-87250000D02*
X208710000Y-87250000D01*
X208710000Y-87250000D02*
X208730000Y-87250000D01*
X208800000Y-88190000D02*
X235860000Y-88190000D01*
X235870000Y-88200000D02*
X235880000Y-88200000D01*
X235860000Y-88190000D02*
X235870000Y-88200000D01*
X128895000Y-99825000D02*
X128310000Y-99240000D01*
X128310000Y-99240000D02*
X128270000Y-99200000D01*
X128270000Y-99200000D02*
X109990000Y-99200000D01*
X109990000Y-99200000D02*
X109970000Y-99200000D01*
X197193000Y-92000001D02*
X197193000Y-91857000D01*
X197193000Y-91857000D02*
X198160000Y-90890000D01*
X198160000Y-90890000D02*
X198160000Y-89050000D01*
X198160000Y-89050000D02*
X199020000Y-88190000D01*
X199020000Y-88190000D02*
X208800000Y-88190000D01*
X208800000Y-88190000D02*
X208810000Y-88190000D01*
X198040000Y-120620000D02*
X198060000Y-120620000D01*
X198040000Y-120640000D02*
X198060000Y-120620000D01*
X198040000Y-126860000D02*
X198040000Y-120640000D01*
X198080000Y-126900000D02*
X198040000Y-126860000D01*
X186847900Y-104347901D02*
X186847900Y-104232100D01*
X186847900Y-104232100D02*
X189030000Y-102050000D01*
X189030000Y-102050000D02*
X191460000Y-102050000D01*
X191460000Y-102050000D02*
X198040000Y-108630000D01*
X198040000Y-108630000D02*
X198040000Y-120620000D01*
X198040000Y-120620000D02*
X198040000Y-120730000D01*
X196250000Y-108990000D02*
X196250000Y-121680000D01*
X192360000Y-105100000D02*
X196250000Y-108990000D01*
X187780000Y-105100000D02*
X192360000Y-105100000D01*
X187347899Y-105532101D02*
X187780000Y-105100000D01*
X196250000Y-127540000D02*
X196250000Y-121680000D01*
X196310000Y-127600000D02*
X196250000Y-127540000D01*
X187347899Y-105846501D02*
X187347899Y-105532101D01*
X208650000Y-85320000D02*
X240300000Y-85320000D01*
X240300000Y-85320000D02*
X240310000Y-85310000D01*
X128895000Y-102365000D02*
X128895000Y-102295000D01*
X128895000Y-102295000D02*
X128350000Y-101750000D01*
X128350000Y-101750000D02*
X107260000Y-101750000D01*
X107260000Y-101750000D02*
X107250000Y-101760000D01*
X194195800Y-91500002D02*
X193930002Y-91500002D01*
X193930002Y-91500002D02*
X193370000Y-90940000D01*
X193370000Y-90940000D02*
X193370000Y-89720000D01*
X193370000Y-89720000D02*
X197770000Y-85320000D01*
X197770000Y-85320000D02*
X208650000Y-85320000D01*
X208650000Y-85320000D02*
X208750000Y-85320000D01*
X208750000Y-85320000D02*
X208760000Y-85310000D01*
X195890000Y-74040000D02*
X195890000Y-49280000D01*
X195890000Y-49280000D02*
X195060000Y-48450000D01*
X128895000Y-103635000D02*
X128895000Y-103615000D01*
X128895000Y-103615000D02*
X128280000Y-103000000D01*
X128280000Y-103000000D02*
X106270000Y-103000000D01*
X189847899Y-85653501D02*
X193286499Y-85653501D01*
X195890000Y-74040000D02*
X195890000Y-74040000D01*
X195890000Y-83050000D02*
X195890000Y-74040000D01*
X193286499Y-85653501D02*
X195890000Y-83050000D01*
X194520000Y-73970000D02*
X194520000Y-51110000D01*
X191950000Y-48540000D02*
X191950000Y-45900000D01*
X194520000Y-51110000D02*
X191950000Y-48540000D01*
X128895000Y-106175000D02*
X128895000Y-106105000D01*
X128895000Y-106105000D02*
X128330000Y-105540000D01*
X106260000Y-105540000D02*
X106210000Y-105490000D01*
X128330000Y-105540000D02*
X106260000Y-105540000D01*
X189347900Y-84154901D02*
X192485099Y-84154901D01*
X194520000Y-82120000D02*
X194520000Y-73970000D01*
X194520000Y-73970000D02*
X194520000Y-73900000D01*
X192485099Y-84154901D02*
X194520000Y-82120000D01*
X128895000Y-109985000D02*
X128895000Y-109935000D01*
X128895000Y-109935000D02*
X128320000Y-109360000D01*
X128320000Y-109360000D02*
X106050000Y-109360000D01*
X196840000Y-73230000D02*
X196820000Y-73250000D01*
X196820000Y-73250000D02*
X196820000Y-73860000D01*
X188847901Y-87152101D02*
X188847901Y-88327901D01*
X196820000Y-83600000D02*
X196820000Y-73860000D01*
X191520000Y-88900000D02*
X196820000Y-83600000D01*
X189420000Y-88900000D02*
X191520000Y-88900000D01*
X188847901Y-88327901D02*
X189420000Y-88900000D01*
X188780000Y-83330000D02*
X188840000Y-83270000D01*
X188840000Y-83270000D02*
X191730000Y-83270000D01*
X191730000Y-83270000D02*
X191820000Y-83180000D01*
X193330000Y-84750000D02*
X193335000Y-84755000D01*
X193335000Y-84755000D02*
X193330000Y-84750000D01*
X193330000Y-84750000D02*
X193330000Y-84760000D01*
X195290000Y-74040000D02*
X195290000Y-50200000D01*
X194420000Y-42850000D02*
X194440000Y-42830000D01*
X194420000Y-49330000D02*
X194420000Y-42850000D01*
X195290000Y-50200000D02*
X194420000Y-49330000D01*
X128895000Y-111255000D02*
X128895000Y-111195000D01*
X128895000Y-111195000D02*
X128330000Y-110630000D01*
X128330000Y-110630000D02*
X105910000Y-110630000D01*
X105910000Y-110630000D02*
X105750000Y-110470000D01*
X188347900Y-85653501D02*
X188476499Y-85653501D01*
X193330000Y-84760000D02*
X195290000Y-82800000D01*
X195290000Y-82800000D02*
X195290000Y-74040000D01*
X195290000Y-74040000D02*
X195280000Y-74030000D01*
D25*
G36*
X270290000Y-170770000D02*
X55710000Y-170770000D01*
X55710000Y-165480000D01*
X60290000Y-165480000D01*
X60496286Y-166517072D01*
X61083741Y-167396259D01*
X61962928Y-167983714D01*
X63000000Y-168190000D01*
X64037072Y-167983714D01*
X64916259Y-167396259D01*
X64992059Y-167282815D01*
X165784630Y-167282815D01*
X166108980Y-168067800D01*
X166709041Y-168668909D01*
X167493459Y-168994628D01*
X168342815Y-168995370D01*
X169127800Y-168671020D01*
X169728909Y-168070959D01*
X170054628Y-167286541D01*
X170055370Y-166437185D01*
X169731020Y-165652200D01*
X169130959Y-165051091D01*
X168346541Y-164725372D01*
X167497185Y-164724630D01*
X166712200Y-165048980D01*
X166111091Y-165649041D01*
X165785372Y-166433459D01*
X165784630Y-167282815D01*
X64992059Y-167282815D01*
X65503714Y-166517072D01*
X65710000Y-165480000D01*
X65503714Y-164442928D01*
X65496957Y-164432815D01*
X236804630Y-164432815D01*
X237128980Y-165217800D01*
X237729041Y-165818909D01*
X238513459Y-166144628D01*
X239362815Y-166145370D01*
X240147800Y-165821020D01*
X240748909Y-165220959D01*
X241056582Y-164480000D01*
X261290000Y-164480000D01*
X261496286Y-165517072D01*
X262083741Y-166396259D01*
X262962928Y-166983714D01*
X264000000Y-167190000D01*
X265037072Y-166983714D01*
X265916259Y-166396259D01*
X266503714Y-165517072D01*
X266710000Y-164480000D01*
X266503714Y-163442928D01*
X265916259Y-162563741D01*
X265037072Y-161976286D01*
X264000000Y-161770000D01*
X262962928Y-161976286D01*
X262083741Y-162563741D01*
X261496286Y-163442928D01*
X261290000Y-164480000D01*
X241056582Y-164480000D01*
X241074628Y-164436541D01*
X241075370Y-163587185D01*
X240751020Y-162802200D01*
X240150959Y-162201091D01*
X239366541Y-161875372D01*
X238517185Y-161874630D01*
X237732200Y-162198980D01*
X237131091Y-162799041D01*
X236805372Y-163583459D01*
X236804630Y-164432815D01*
X65496957Y-164432815D01*
X64916259Y-163563741D01*
X64037072Y-162976286D01*
X63000000Y-162770000D01*
X61962928Y-162976286D01*
X61083741Y-163563741D01*
X60496286Y-164442928D01*
X60290000Y-165480000D01*
X55710000Y-165480000D01*
X55710000Y-152622815D01*
X165544630Y-152622815D01*
X165868980Y-153407800D01*
X166469041Y-154008909D01*
X167253459Y-154334628D01*
X168102815Y-154335370D01*
X168887800Y-154011020D01*
X169488909Y-153410959D01*
X169645928Y-153032815D01*
X223674630Y-153032815D01*
X223998980Y-153817800D01*
X224599041Y-154418909D01*
X225383459Y-154744628D01*
X226232815Y-154745370D01*
X227017800Y-154421020D01*
X227618909Y-153820959D01*
X227944628Y-153036541D01*
X227945370Y-152187185D01*
X227621020Y-151402200D01*
X227020959Y-150801091D01*
X226236541Y-150475372D01*
X225387185Y-150474630D01*
X224602200Y-150798980D01*
X224001091Y-151399041D01*
X223675372Y-152183459D01*
X223674630Y-153032815D01*
X169645928Y-153032815D01*
X169814628Y-152626541D01*
X169815370Y-151777185D01*
X169491020Y-150992200D01*
X168890959Y-150391091D01*
X168106541Y-150065372D01*
X167257185Y-150064630D01*
X166472200Y-150388980D01*
X165871091Y-150989041D01*
X165545372Y-151773459D01*
X165544630Y-152622815D01*
X55710000Y-152622815D01*
X55710000Y-66590000D01*
X82475000Y-66590000D01*
X82475000Y-126130000D01*
X82503870Y-126275136D01*
X82530949Y-126411272D01*
X82690277Y-126649723D01*
X89720276Y-133679723D01*
X89958728Y-133839051D01*
X90240000Y-133895000D01*
X147030000Y-133895000D01*
X147311272Y-133839051D01*
X147549723Y-133679723D01*
X153019723Y-128209724D01*
X153179051Y-127971272D01*
X153185090Y-127940914D01*
X153235000Y-127690000D01*
X153235000Y-106770998D01*
X153294863Y-106626831D01*
X153295136Y-106314539D01*
X153175879Y-106025914D01*
X152955247Y-105804897D01*
X152666831Y-105685137D01*
X152354539Y-105684864D01*
X152115000Y-105783839D01*
X152115000Y-101470000D01*
X152059051Y-101188728D01*
X152054090Y-101181304D01*
X151899723Y-100950276D01*
X150525533Y-99576087D01*
X150475879Y-99455914D01*
X150255247Y-99234897D01*
X149966831Y-99115137D01*
X149654539Y-99114864D01*
X149365914Y-99234121D01*
X149144897Y-99454753D01*
X149025137Y-99743169D01*
X149024864Y-100055461D01*
X149144121Y-100344086D01*
X149364753Y-100565103D01*
X149486005Y-100615451D01*
X150645000Y-101774447D01*
X150645000Y-119533085D01*
X150595137Y-119653169D01*
X150594864Y-119965461D01*
X150714121Y-120254086D01*
X150934753Y-120475103D01*
X151223169Y-120594863D01*
X151535461Y-120595136D01*
X151765000Y-120500293D01*
X151765000Y-127385553D01*
X146725554Y-132425000D01*
X90544447Y-132425000D01*
X83945000Y-125825554D01*
X83945000Y-66894446D01*
X84139446Y-66700000D01*
X85975000Y-66700000D01*
X85975000Y-123750000D01*
X86011799Y-123935000D01*
X86030949Y-124031272D01*
X86190277Y-124269723D01*
X92030276Y-130109723D01*
X92157901Y-130194999D01*
X92268728Y-130269051D01*
X92550000Y-130325000D01*
X141650000Y-130325000D01*
X141931272Y-130269051D01*
X142169723Y-130109723D01*
X148889723Y-123389724D01*
X149049051Y-123151272D01*
X149076157Y-123015001D01*
X149105000Y-122870000D01*
X149105000Y-107695081D01*
X149174863Y-107526831D01*
X149175136Y-107214539D01*
X149055879Y-106925914D01*
X148835247Y-106704897D01*
X148546831Y-106585137D01*
X148234539Y-106584864D01*
X147945914Y-106704121D01*
X147724897Y-106924753D01*
X147605137Y-107213169D01*
X147604864Y-107525461D01*
X147635000Y-107598396D01*
X147635000Y-122565553D01*
X141345554Y-128855000D01*
X92854447Y-128855000D01*
X87445000Y-123445554D01*
X87445000Y-67070000D01*
X89405000Y-67070000D01*
X89405000Y-121540000D01*
X89432848Y-121680000D01*
X89460949Y-121821272D01*
X89620277Y-122059723D01*
X93590277Y-126029724D01*
X93828728Y-126189051D01*
X94110000Y-126245000D01*
X140650000Y-126245000D01*
X140931272Y-126189051D01*
X141169723Y-126029723D01*
X146759724Y-120439723D01*
X146919051Y-120201272D01*
X146927206Y-120160276D01*
X146975000Y-119920000D01*
X146975000Y-103059014D01*
X147013169Y-103074863D01*
X147235000Y-103075057D01*
X147235000Y-103730000D01*
X147235043Y-103730218D01*
X147234864Y-103935461D01*
X147354121Y-104224086D01*
X147574753Y-104445103D01*
X147863169Y-104564863D01*
X148175461Y-104565136D01*
X148464086Y-104445879D01*
X148685103Y-104225247D01*
X148804863Y-103936831D01*
X148805136Y-103624539D01*
X148705000Y-103382191D01*
X148705000Y-99625092D01*
X148755461Y-99625136D01*
X149044086Y-99505879D01*
X149265103Y-99285247D01*
X149340359Y-99104010D01*
X149429051Y-98971272D01*
X149454141Y-98845136D01*
X149485000Y-98690000D01*
X149485000Y-91933697D01*
X161524708Y-91933697D01*
X161780694Y-92553229D01*
X162254278Y-93027640D01*
X162873362Y-93284707D01*
X163543697Y-93285292D01*
X164163229Y-93029306D01*
X164637640Y-92555722D01*
X164894707Y-91936638D01*
X164895292Y-91266303D01*
X164639306Y-90646771D01*
X164165722Y-90172360D01*
X163546638Y-89915293D01*
X162876303Y-89914708D01*
X162256771Y-90170694D01*
X161782360Y-90644278D01*
X161525293Y-91263362D01*
X161524708Y-91933697D01*
X149485000Y-91933697D01*
X149485000Y-87964970D01*
X149675461Y-87965136D01*
X149748396Y-87935000D01*
X150255000Y-87935000D01*
X150255000Y-88850000D01*
X150307022Y-89111528D01*
X150310949Y-89131272D01*
X150470277Y-89369723D01*
X150660277Y-89559724D01*
X150898728Y-89719051D01*
X151180000Y-89775000D01*
X171425012Y-89775000D01*
X171424855Y-89955363D01*
X171525000Y-90197733D01*
X171525000Y-93225038D01*
X171146303Y-93224708D01*
X170526771Y-93480694D01*
X170052360Y-93954278D01*
X169795293Y-94573362D01*
X169794708Y-95243697D01*
X170010107Y-95765002D01*
X151325086Y-95765002D01*
X151156831Y-95695137D01*
X150844539Y-95694864D01*
X150671232Y-95766473D01*
X150648728Y-95770949D01*
X150629817Y-95783585D01*
X150555914Y-95814121D01*
X150498823Y-95871112D01*
X150410277Y-95930277D01*
X150351628Y-96018051D01*
X150334897Y-96034753D01*
X150325751Y-96056779D01*
X150250949Y-96168728D01*
X150224911Y-96299630D01*
X150215137Y-96323169D01*
X150215115Y-96348882D01*
X150195001Y-96450000D01*
X150214939Y-96550233D01*
X150214864Y-96635461D01*
X150247697Y-96714923D01*
X150250949Y-96731272D01*
X150260129Y-96745010D01*
X150334121Y-96924086D01*
X150554753Y-97145103D01*
X150843169Y-97264863D01*
X151155461Y-97265136D01*
X151228391Y-97235002D01*
X151615552Y-97235002D01*
X151525554Y-97325000D01*
X151416915Y-97325000D01*
X151296831Y-97275137D01*
X150984539Y-97274864D01*
X150695914Y-97394121D01*
X150474897Y-97614753D01*
X150355137Y-97903169D01*
X150354864Y-98215461D01*
X150474121Y-98504086D01*
X150694753Y-98725103D01*
X150983169Y-98844863D01*
X151295461Y-98845136D01*
X151416800Y-98795000D01*
X151830000Y-98795000D01*
X152111272Y-98739051D01*
X152349723Y-98579723D01*
X153024447Y-97905000D01*
X172045554Y-97905000D01*
X172660278Y-98519725D01*
X172898729Y-98679052D01*
X173039809Y-98707115D01*
X173082472Y-98749852D01*
X173002096Y-98830088D01*
X172821906Y-99264035D01*
X172821496Y-99733906D01*
X173000928Y-100168166D01*
X173267800Y-100435504D01*
X173267800Y-101491435D01*
X168995136Y-102015000D01*
X158796915Y-102015000D01*
X158676831Y-101965137D01*
X158364539Y-101964864D01*
X158075914Y-102084121D01*
X157854897Y-102304753D01*
X157735137Y-102593169D01*
X157734864Y-102905461D01*
X157854121Y-103194086D01*
X157939833Y-103279948D01*
X157864897Y-103354753D01*
X157745137Y-103643169D01*
X157744864Y-103955461D01*
X157810333Y-104113909D01*
X157715137Y-104343169D01*
X157714864Y-104655461D01*
X157834121Y-104944086D01*
X157874955Y-104984991D01*
X157704897Y-105154753D01*
X157585137Y-105443169D01*
X157584864Y-105755461D01*
X157704121Y-106044086D01*
X157818522Y-106158686D01*
X157775137Y-106263169D01*
X157774864Y-106575461D01*
X157894121Y-106864086D01*
X157938436Y-106908478D01*
X157845137Y-107133169D01*
X157844864Y-107445461D01*
X157964121Y-107734086D01*
X158184753Y-107955103D01*
X158473169Y-108074863D01*
X158785461Y-108075136D01*
X158906800Y-108025000D01*
X159270000Y-108025000D01*
X159551272Y-107969051D01*
X159789723Y-107809723D01*
X160564447Y-107035000D01*
X166934166Y-107035000D01*
X166726771Y-107120694D01*
X166252360Y-107594278D01*
X165995293Y-108213362D01*
X165994708Y-108883697D01*
X166250694Y-109503229D01*
X166724278Y-109977640D01*
X167343362Y-110234707D01*
X168013697Y-110235292D01*
X168633229Y-109979306D01*
X169107640Y-109505722D01*
X169364707Y-108886638D01*
X169365292Y-108216303D01*
X169109306Y-107596771D01*
X168635722Y-107122360D01*
X168425336Y-107035000D01*
X173400000Y-107035000D01*
X173681272Y-106979051D01*
X173919723Y-106819723D01*
X180019724Y-100719723D01*
X180179051Y-100481272D01*
X180235000Y-100200000D01*
X180235000Y-98300000D01*
X180179051Y-98018728D01*
X180157102Y-97985879D01*
X180019723Y-97780276D01*
X178719724Y-96480278D01*
X178481273Y-96320950D01*
X178469941Y-96318696D01*
X178200001Y-96265001D01*
X177935154Y-96265001D01*
X177920328Y-96250150D01*
X178000704Y-96169914D01*
X178031989Y-96094570D01*
X183857698Y-96094570D01*
X184122024Y-96734288D01*
X184611039Y-97224157D01*
X185250294Y-97489599D01*
X185942469Y-97490203D01*
X186582187Y-97225877D01*
X187072056Y-96736862D01*
X187337498Y-96097607D01*
X187338102Y-95405432D01*
X187073776Y-94765714D01*
X186584761Y-94275845D01*
X185945506Y-94010403D01*
X185253331Y-94009799D01*
X184613613Y-94274125D01*
X184123744Y-94763140D01*
X183858302Y-95402395D01*
X183857698Y-96094570D01*
X178031989Y-96094570D01*
X178180894Y-95735967D01*
X178181304Y-95266096D01*
X178001872Y-94831836D01*
X177920329Y-94750150D01*
X178000704Y-94669915D01*
X178180894Y-94235968D01*
X178181304Y-93766097D01*
X178178978Y-93760468D01*
X179219723Y-92719724D01*
X179379051Y-92481272D01*
X179387380Y-92439398D01*
X179435000Y-92200000D01*
X179435000Y-89970027D01*
X179460000Y-89975000D01*
X183870000Y-89975000D01*
X184151272Y-89919051D01*
X184389723Y-89759723D01*
X184867624Y-89281823D01*
X185026951Y-89043372D01*
X185082900Y-88762100D01*
X185082900Y-88087255D01*
X185097751Y-88072430D01*
X185177986Y-88152805D01*
X185611933Y-88332995D01*
X186081804Y-88333405D01*
X186516064Y-88153973D01*
X186597750Y-88072429D01*
X186667477Y-88142277D01*
X186668848Y-88149171D01*
X186828176Y-88387622D01*
X188390276Y-89949723D01*
X188628727Y-90109051D01*
X188665030Y-90116272D01*
X188910000Y-90165000D01*
X191045000Y-90165000D01*
X191045000Y-92140000D01*
X191089783Y-92365136D01*
X191100949Y-92421272D01*
X191260277Y-92659723D01*
X193014775Y-94414222D01*
X193014496Y-94733906D01*
X193193928Y-95168166D01*
X193275471Y-95249852D01*
X193195096Y-95330087D01*
X193014906Y-95764034D01*
X193014496Y-96233905D01*
X193193928Y-96668165D01*
X193275472Y-96749851D01*
X193260297Y-96765000D01*
X191870000Y-96765000D01*
X191597988Y-96819107D01*
X191588728Y-96820949D01*
X191350277Y-96980276D01*
X191060277Y-97270277D01*
X190900949Y-97508728D01*
X190845000Y-97790000D01*
X190845000Y-101030000D01*
X190894227Y-101277477D01*
X190900949Y-101311272D01*
X190903440Y-101315000D01*
X189030000Y-101315000D01*
X188795394Y-101361667D01*
X188748727Y-101370949D01*
X188510276Y-101530277D01*
X186873730Y-103166824D01*
X186613995Y-103166597D01*
X186179735Y-103346029D01*
X186098049Y-103427572D01*
X186017814Y-103347197D01*
X185583867Y-103167007D01*
X185113996Y-103166597D01*
X184679736Y-103346029D01*
X184598050Y-103427573D01*
X184582901Y-103412398D01*
X184582901Y-103017901D01*
X184526952Y-102736629D01*
X184480494Y-102667100D01*
X184367625Y-102498178D01*
X183409723Y-101540277D01*
X183171272Y-101380949D01*
X182890000Y-101325000D01*
X180100000Y-101325000D01*
X179869001Y-101370949D01*
X179818727Y-101380949D01*
X179580276Y-101540277D01*
X173358206Y-107762348D01*
X173199915Y-107603781D01*
X172486002Y-107307339D01*
X171712989Y-107306664D01*
X170998560Y-107601860D01*
X170451480Y-108147986D01*
X170155038Y-108861899D01*
X170154363Y-109634912D01*
X170449559Y-110349341D01*
X170995685Y-110896421D01*
X171709598Y-111192863D01*
X172482611Y-111193538D01*
X173135000Y-110923976D01*
X173135000Y-125140836D01*
X173055137Y-125333169D01*
X173054864Y-125645461D01*
X173174121Y-125934086D01*
X173394753Y-126155103D01*
X173683169Y-126274863D01*
X173995461Y-126275136D01*
X174284086Y-126155879D01*
X174505103Y-125935247D01*
X174624863Y-125646831D01*
X174625136Y-125334539D01*
X174605000Y-125285806D01*
X174605000Y-124135092D01*
X174645000Y-124135127D01*
X174645000Y-126180000D01*
X174645043Y-126180218D01*
X174644864Y-126385461D01*
X174764121Y-126674086D01*
X174984753Y-126895103D01*
X175273169Y-127014863D01*
X175585461Y-127015136D01*
X175874086Y-126895879D01*
X176095103Y-126675247D01*
X176214863Y-126386831D01*
X176215136Y-126074539D01*
X176115000Y-125832191D01*
X176115000Y-124256800D01*
X176184121Y-124424086D01*
X176404753Y-124645103D01*
X176693169Y-124764863D01*
X177005461Y-124765136D01*
X177294086Y-124645879D01*
X177515103Y-124425247D01*
X177565451Y-124303995D01*
X177589723Y-124279723D01*
X177749051Y-124041272D01*
X177764195Y-123965137D01*
X177805000Y-123760000D01*
X177805000Y-123375795D01*
X177923169Y-123424863D01*
X178235461Y-123425136D01*
X178524086Y-123305879D01*
X178585000Y-123245071D01*
X178585000Y-124521250D01*
X178555137Y-124593169D01*
X178554864Y-124905461D01*
X178674121Y-125194086D01*
X178894753Y-125415103D01*
X179183169Y-125534863D01*
X179495461Y-125535136D01*
X179784086Y-125415879D01*
X180005103Y-125195247D01*
X180124863Y-124906831D01*
X180125136Y-124594539D01*
X180055000Y-124424796D01*
X180055000Y-116203697D01*
X181794708Y-116203697D01*
X182050694Y-116823229D01*
X182524278Y-117297640D01*
X183143362Y-117554707D01*
X183813697Y-117555292D01*
X184433229Y-117299306D01*
X184907640Y-116825722D01*
X185164707Y-116206638D01*
X185165292Y-115536303D01*
X184909306Y-114916771D01*
X184435722Y-114442360D01*
X183816638Y-114185293D01*
X183146303Y-114184708D01*
X182526771Y-114440694D01*
X182052360Y-114914278D01*
X181795293Y-115533362D01*
X181794708Y-116203697D01*
X180055000Y-116203697D01*
X180055000Y-111233697D01*
X181714708Y-111233697D01*
X181970694Y-111853229D01*
X182444278Y-112327640D01*
X183063362Y-112584707D01*
X183733697Y-112585292D01*
X184353229Y-112329306D01*
X184827640Y-111855722D01*
X185084707Y-111236638D01*
X185085292Y-110566303D01*
X184829306Y-109946771D01*
X184355722Y-109472360D01*
X183736638Y-109215293D01*
X183066303Y-109214708D01*
X182446771Y-109470694D01*
X181972360Y-109944278D01*
X181715293Y-110563362D01*
X181714708Y-111233697D01*
X180055000Y-111233697D01*
X180055000Y-109464446D01*
X180374447Y-109145000D01*
X182560000Y-109145000D01*
X182841272Y-109089051D01*
X183079723Y-108929723D01*
X183483128Y-108526319D01*
X183581804Y-108526405D01*
X184016064Y-108346973D01*
X184097750Y-108265429D01*
X184177986Y-108345805D01*
X184611933Y-108525995D01*
X185081804Y-108526405D01*
X185516064Y-108346973D01*
X185597751Y-108265428D01*
X185677988Y-108345805D01*
X185773197Y-108385339D01*
X185828178Y-108467624D01*
X187570276Y-110209723D01*
X187808728Y-110369051D01*
X188090000Y-110425000D01*
X190305554Y-110425000D01*
X190935000Y-111054447D01*
X190935000Y-120533085D01*
X190885137Y-120653169D01*
X190884864Y-120965461D01*
X191004121Y-121254086D01*
X191224753Y-121475103D01*
X191513169Y-121594863D01*
X191605000Y-121594943D01*
X191605000Y-127814868D01*
X191479897Y-127939753D01*
X191360137Y-128228169D01*
X191359864Y-128540461D01*
X191479121Y-128829086D01*
X191699753Y-129050103D01*
X191988169Y-129169863D01*
X192300461Y-129170136D01*
X192335000Y-129155865D01*
X192335000Y-131147168D01*
X192295137Y-131243169D01*
X192294864Y-131555461D01*
X192414121Y-131844086D01*
X192634753Y-132065103D01*
X192923169Y-132184863D01*
X193235461Y-132185136D01*
X193524086Y-132065879D01*
X193745103Y-131845247D01*
X193864863Y-131556831D01*
X193865136Y-131244539D01*
X193805000Y-131098998D01*
X193805000Y-111558187D01*
X194013362Y-111644707D01*
X194683697Y-111645292D01*
X194945000Y-111537324D01*
X194945000Y-130247168D01*
X194905137Y-130343169D01*
X194904864Y-130655461D01*
X195024121Y-130944086D01*
X195244753Y-131165103D01*
X195533169Y-131284863D01*
X195845461Y-131285136D01*
X196134086Y-131165879D01*
X196155000Y-131145001D01*
X196155000Y-131824702D01*
X196124897Y-131854753D01*
X196005137Y-132143169D01*
X196004864Y-132455461D01*
X196124121Y-132744086D01*
X196344753Y-132965103D01*
X196633169Y-133084863D01*
X196945461Y-133085136D01*
X197234086Y-132965879D01*
X197455103Y-132745247D01*
X197535657Y-132551249D01*
X197569051Y-132501272D01*
X197625000Y-132220000D01*
X197625000Y-130232931D01*
X197884086Y-130125879D01*
X198105103Y-129905247D01*
X198224863Y-129616831D01*
X198225136Y-129304539D01*
X198165000Y-129158998D01*
X198165000Y-127685074D01*
X198235461Y-127685136D01*
X198524086Y-127565879D01*
X198745103Y-127345247D01*
X198864863Y-127056831D01*
X198865136Y-126744539D01*
X198775000Y-126526392D01*
X198775000Y-120720546D01*
X198795000Y-120620000D01*
X198775000Y-120519454D01*
X198775000Y-118084553D01*
X198858980Y-118287800D01*
X199459041Y-118888909D01*
X200243459Y-119214628D01*
X201092815Y-119215370D01*
X201877800Y-118891020D01*
X202478909Y-118290959D01*
X202804628Y-117506541D01*
X202805370Y-116657185D01*
X202481020Y-115872200D01*
X201880959Y-115271091D01*
X201096541Y-114945372D01*
X200247185Y-114944630D01*
X199462200Y-115268980D01*
X198861091Y-115869041D01*
X198775000Y-116076371D01*
X198775000Y-109076157D01*
X198920000Y-109105000D01*
X224365333Y-109105000D01*
X224413169Y-109124863D01*
X224725461Y-109125136D01*
X225014086Y-109005879D01*
X225235103Y-108785247D01*
X225354863Y-108496831D01*
X225354917Y-108435000D01*
X227914919Y-108435000D01*
X228083169Y-108504863D01*
X228395461Y-108505136D01*
X228684086Y-108385879D01*
X228905103Y-108165247D01*
X229024863Y-107876831D01*
X229025136Y-107564539D01*
X228905879Y-107275914D01*
X228685247Y-107054897D01*
X228396831Y-106935137D01*
X228084539Y-106934864D01*
X228011604Y-106965000D01*
X223954926Y-106965000D01*
X223954978Y-106905000D01*
X229477168Y-106905000D01*
X229573169Y-106944863D01*
X229885461Y-106945136D01*
X230174086Y-106825879D01*
X230395103Y-106605247D01*
X230514863Y-106316831D01*
X230515136Y-106004539D01*
X230395879Y-105715914D01*
X230175247Y-105494897D01*
X229886831Y-105375137D01*
X229574539Y-105374864D01*
X229428998Y-105435000D01*
X227974970Y-105435000D01*
X227975101Y-105285000D01*
X228907168Y-105285000D01*
X229003169Y-105324863D01*
X229315461Y-105325136D01*
X229604086Y-105205879D01*
X229825103Y-104985247D01*
X229944863Y-104696831D01*
X229945136Y-104384539D01*
X229825879Y-104095914D01*
X229605247Y-103874897D01*
X229316831Y-103755137D01*
X229004539Y-103754864D01*
X228858998Y-103815000D01*
X226194996Y-103815000D01*
X226195136Y-103654539D01*
X226075879Y-103365914D01*
X225855247Y-103144897D01*
X225566831Y-103025137D01*
X225254539Y-103024864D01*
X225157402Y-103065000D01*
X209572165Y-103065000D01*
X209491272Y-103010949D01*
X209210000Y-102955001D01*
X208928727Y-103010949D01*
X208847834Y-103065000D01*
X203265031Y-103065000D01*
X203265145Y-102934637D01*
X203165000Y-102692267D01*
X203165000Y-100105463D01*
X203284855Y-99816821D01*
X203285145Y-99484637D01*
X203158292Y-99177628D01*
X202923607Y-98942534D01*
X202616821Y-98815145D01*
X202284637Y-98814855D01*
X201977628Y-98941708D01*
X201742534Y-99176393D01*
X201615145Y-99483179D01*
X201614855Y-99815363D01*
X201695000Y-100009330D01*
X201695000Y-102692702D01*
X201595145Y-102933179D01*
X201595030Y-103065000D01*
X199914446Y-103065000D01*
X198945000Y-102095554D01*
X198945000Y-99020000D01*
X198889051Y-98738728D01*
X198856492Y-98690000D01*
X198729723Y-98500276D01*
X198373974Y-98144527D01*
X198374304Y-97766096D01*
X198194872Y-97331836D01*
X198113329Y-97250150D01*
X198193704Y-97169915D01*
X198373894Y-96735968D01*
X198374304Y-96266097D01*
X198194872Y-95831837D01*
X198151049Y-95787937D01*
X204064708Y-95787937D01*
X204320694Y-96407469D01*
X204794278Y-96881880D01*
X205413362Y-97138947D01*
X206083697Y-97139532D01*
X206703229Y-96883546D01*
X207177640Y-96409962D01*
X207434707Y-95790878D01*
X207435292Y-95120543D01*
X207179306Y-94501011D01*
X206705722Y-94026600D01*
X206086638Y-93769533D01*
X205416303Y-93768948D01*
X204796771Y-94024934D01*
X204322360Y-94498518D01*
X204065293Y-95117602D01*
X204064708Y-95787937D01*
X198151049Y-95787937D01*
X198113327Y-95750150D01*
X198193704Y-95669913D01*
X198373894Y-95235966D01*
X198374244Y-94835203D01*
X199569724Y-93639723D01*
X199589862Y-93609584D01*
X199744446Y-93455000D01*
X209829183Y-93455000D01*
X209980000Y-93484999D01*
X210130816Y-93455000D01*
X215158635Y-93455000D01*
X215410000Y-93505000D01*
X215661365Y-93455000D01*
X217456753Y-93455000D01*
X217673169Y-93544863D01*
X217985461Y-93545136D01*
X218274086Y-93425879D01*
X218495103Y-93205247D01*
X218614863Y-92916831D01*
X218615092Y-92655000D01*
X221244650Y-92655000D01*
X221244753Y-92655103D01*
X221533169Y-92774863D01*
X221845461Y-92775136D01*
X222134086Y-92655879D01*
X222355103Y-92435247D01*
X222474863Y-92146831D01*
X222475136Y-91834539D01*
X222355879Y-91545914D01*
X222135247Y-91324897D01*
X221846831Y-91205137D01*
X221720680Y-91205027D01*
X221620000Y-91185000D01*
X205061632Y-91185000D01*
X205293229Y-91089306D01*
X205767640Y-90615722D01*
X206024707Y-89996638D01*
X206025292Y-89326303D01*
X205859477Y-88925000D01*
X235579002Y-88925000D01*
X235723169Y-88984863D01*
X236035461Y-88985136D01*
X236324086Y-88865879D01*
X236545103Y-88645247D01*
X236664863Y-88356831D01*
X236665136Y-88044539D01*
X236640535Y-87985000D01*
X237229002Y-87985000D01*
X237373169Y-88044863D01*
X237685461Y-88045136D01*
X237974086Y-87925879D01*
X238195103Y-87705247D01*
X238314863Y-87416831D01*
X238315136Y-87104539D01*
X238195879Y-86815914D01*
X237975247Y-86594897D01*
X237686831Y-86475137D01*
X237374539Y-86474864D01*
X237277402Y-86515000D01*
X215024917Y-86515000D01*
X215025136Y-86264539D01*
X214938557Y-86055000D01*
X240057168Y-86055000D01*
X240153169Y-86094863D01*
X240465461Y-86095136D01*
X240616289Y-86032815D01*
X260194630Y-86032815D01*
X260518980Y-86817800D01*
X261119041Y-87418909D01*
X261903459Y-87744628D01*
X262752815Y-87745370D01*
X263537800Y-87421020D01*
X264138909Y-86820959D01*
X264464628Y-86036541D01*
X264465370Y-85187185D01*
X264141020Y-84402200D01*
X263540959Y-83801091D01*
X262756541Y-83475372D01*
X261907185Y-83474630D01*
X261122200Y-83798980D01*
X260521091Y-84399041D01*
X260195372Y-85183459D01*
X260194630Y-86032815D01*
X240616289Y-86032815D01*
X240754086Y-85975879D01*
X240975103Y-85755247D01*
X241094863Y-85466831D01*
X241095136Y-85154539D01*
X240975879Y-84865914D01*
X240755247Y-84644897D01*
X240466831Y-84525137D01*
X240154539Y-84524864D01*
X240008998Y-84585000D01*
X221075101Y-84585000D01*
X221075136Y-84544539D01*
X220955879Y-84255914D01*
X220735247Y-84034897D01*
X220446831Y-83915137D01*
X220134539Y-83914864D01*
X220110008Y-83925000D01*
X216604996Y-83925000D01*
X216605136Y-83764539D01*
X216485879Y-83475914D01*
X216265247Y-83254897D01*
X215976831Y-83135137D01*
X215664539Y-83134864D01*
X215640008Y-83145000D01*
X208840269Y-83145000D01*
X208790000Y-83135001D01*
X208739731Y-83145000D01*
X200830280Y-83145000D01*
X201040762Y-82638103D01*
X201041437Y-81865090D01*
X200746241Y-81150661D01*
X200200115Y-80603581D01*
X199486202Y-80307139D01*
X198713189Y-80306464D01*
X197998760Y-80601660D01*
X197985000Y-80615396D01*
X197985000Y-65754882D01*
X198275461Y-65755136D01*
X198564086Y-65635879D01*
X198585001Y-65615000D01*
X199533085Y-65615000D01*
X199653169Y-65664863D01*
X199965461Y-65665136D01*
X200254086Y-65545879D01*
X200475103Y-65325247D01*
X200594863Y-65036831D01*
X200595136Y-64724539D01*
X200475879Y-64435914D01*
X200255247Y-64214897D01*
X199966831Y-64095137D01*
X199654539Y-64094864D01*
X199533200Y-64145000D01*
X198210000Y-64145000D01*
X198009395Y-64184903D01*
X197985000Y-64184882D01*
X197985000Y-63487319D01*
X198003169Y-63494863D01*
X198315461Y-63495136D01*
X198604086Y-63375879D01*
X198715158Y-63265000D01*
X199993085Y-63265000D01*
X200113169Y-63314863D01*
X200425461Y-63315136D01*
X200714086Y-63195879D01*
X200935103Y-62975247D01*
X201054863Y-62686831D01*
X201055136Y-62374539D01*
X200935879Y-62085914D01*
X200715247Y-61864897D01*
X200426831Y-61745137D01*
X200114539Y-61744864D01*
X199993200Y-61795000D01*
X198340000Y-61795000D01*
X198109851Y-61840780D01*
X198058727Y-61850949D01*
X197985000Y-61900212D01*
X197985000Y-58889164D01*
X198064863Y-58696831D01*
X198065136Y-58384539D01*
X197945879Y-58095914D01*
X197725247Y-57874897D01*
X197436831Y-57755137D01*
X197124539Y-57754864D01*
X197095029Y-57767057D01*
X197095136Y-57644539D01*
X196975879Y-57355914D01*
X196755247Y-57134897D01*
X196625000Y-57080814D01*
X196625000Y-49280000D01*
X196569051Y-48998728D01*
X196409723Y-48760276D01*
X195775533Y-48126087D01*
X195725879Y-48005914D01*
X195505247Y-47784897D01*
X195216831Y-47665137D01*
X195155000Y-47665083D01*
X195155000Y-43155081D01*
X195224863Y-42986831D01*
X195225136Y-42674539D01*
X195105879Y-42385914D01*
X194885247Y-42164897D01*
X194596831Y-42045137D01*
X194284539Y-42044864D01*
X193995914Y-42164121D01*
X193774897Y-42384753D01*
X193655137Y-42673169D01*
X193654864Y-42985461D01*
X193685000Y-43058396D01*
X193685000Y-49235554D01*
X192685000Y-48235554D01*
X192685000Y-46176915D01*
X192734863Y-46056831D01*
X192735136Y-45744539D01*
X192615879Y-45455914D01*
X192395247Y-45234897D01*
X192106831Y-45115137D01*
X191794539Y-45114864D01*
X191505914Y-45234121D01*
X191284897Y-45454753D01*
X191165137Y-45743169D01*
X191164864Y-46055461D01*
X191215000Y-46176800D01*
X191215000Y-48540000D01*
X191238870Y-48660000D01*
X191270949Y-48821272D01*
X191430277Y-49059723D01*
X193785000Y-51414447D01*
X193785000Y-58535039D01*
X193584539Y-58534864D01*
X193295914Y-58654121D01*
X193074897Y-58874753D01*
X192955137Y-59163169D01*
X192954864Y-59475461D01*
X193005000Y-59596800D01*
X193005000Y-81255720D01*
X192510990Y-81615000D01*
X188890000Y-81615000D01*
X188806740Y-81631562D01*
X188721902Y-81634481D01*
X188667428Y-81659273D01*
X188608728Y-81670949D01*
X188538146Y-81718110D01*
X188460880Y-81753275D01*
X188420039Y-81797027D01*
X188370277Y-81830277D01*
X188323116Y-81900858D01*
X188265188Y-81962915D01*
X187639034Y-82973619D01*
X187613996Y-82973597D01*
X187179736Y-83153029D01*
X187098050Y-83234573D01*
X187017814Y-83154197D01*
X186583867Y-82974007D01*
X186113996Y-82973597D01*
X185679736Y-83153029D01*
X185598049Y-83234574D01*
X185582899Y-83219398D01*
X185582899Y-83087899D01*
X185526950Y-82806627D01*
X185489298Y-82750277D01*
X185367622Y-82568175D01*
X183855000Y-81055554D01*
X183855000Y-73243697D01*
X185864708Y-73243697D01*
X186120694Y-73863229D01*
X186594278Y-74337640D01*
X187213362Y-74594707D01*
X187883697Y-74595292D01*
X188503229Y-74339306D01*
X188977640Y-73865722D01*
X189234707Y-73246638D01*
X189235292Y-72576303D01*
X188979306Y-71956771D01*
X188505722Y-71482360D01*
X187886638Y-71225293D01*
X187216303Y-71224708D01*
X186596771Y-71480694D01*
X186122360Y-71954278D01*
X185865293Y-72573362D01*
X185864708Y-73243697D01*
X183855000Y-73243697D01*
X183855000Y-57278750D01*
X183884863Y-57206831D01*
X183885136Y-56894539D01*
X183765879Y-56605914D01*
X183545247Y-56384897D01*
X183256831Y-56265137D01*
X182944539Y-56264864D01*
X182655914Y-56384121D01*
X182585000Y-56454911D01*
X182585000Y-54352832D01*
X182624863Y-54256831D01*
X182625136Y-53944539D01*
X182505879Y-53655914D01*
X182285247Y-53434897D01*
X181996831Y-53315137D01*
X181684539Y-53314864D01*
X181405000Y-53430367D01*
X181405000Y-50426915D01*
X181454863Y-50306831D01*
X181455136Y-49994539D01*
X181335879Y-49705914D01*
X181115247Y-49484897D01*
X180826831Y-49365137D01*
X180514539Y-49364864D01*
X180225914Y-49484121D01*
X180004897Y-49704753D01*
X179885137Y-49993169D01*
X179884864Y-50305461D01*
X179935000Y-50426800D01*
X179935000Y-71252733D01*
X179885000Y-71177902D01*
X179885000Y-51642832D01*
X179924863Y-51546831D01*
X179925136Y-51234539D01*
X179805879Y-50945914D01*
X179585247Y-50724897D01*
X179296831Y-50605137D01*
X178984539Y-50604864D01*
X178695914Y-50724121D01*
X178474897Y-50944753D01*
X178355137Y-51233169D01*
X178354864Y-51545461D01*
X178415000Y-51691002D01*
X178415000Y-84070000D01*
X178465815Y-84325461D01*
X178470949Y-84351272D01*
X178630277Y-84589723D01*
X178640276Y-84599723D01*
X178822188Y-84721272D01*
X178878728Y-84759051D01*
X179160000Y-84815000D01*
X179986868Y-84815000D01*
X179908329Y-84893539D01*
X180024296Y-85009506D01*
X179804434Y-85052359D01*
X179653816Y-85497435D01*
X179664956Y-85665000D01*
X179614447Y-85665000D01*
X178065000Y-84115554D01*
X178065000Y-55444667D01*
X178084863Y-55396831D01*
X178085136Y-55084539D01*
X177965879Y-54795914D01*
X177745247Y-54574897D01*
X177456831Y-54455137D01*
X177144539Y-54454864D01*
X177065000Y-54487729D01*
X177065000Y-48936915D01*
X177114863Y-48816831D01*
X177115136Y-48504539D01*
X176995879Y-48215914D01*
X176775247Y-47994897D01*
X176486831Y-47875137D01*
X176174539Y-47874864D01*
X175885914Y-47994121D01*
X175664897Y-48214753D01*
X175545137Y-48503169D01*
X175544864Y-48815461D01*
X175595000Y-48936800D01*
X175595000Y-52214719D01*
X175555247Y-52174897D01*
X175266831Y-52055137D01*
X174954539Y-52054864D01*
X174665914Y-52174121D01*
X174444897Y-52394753D01*
X174325137Y-52683169D01*
X174324864Y-52995461D01*
X174375000Y-53116800D01*
X174375000Y-55235135D01*
X174064539Y-55234864D01*
X173775914Y-55354121D01*
X173554897Y-55574753D01*
X173435137Y-55863169D01*
X173434864Y-56175461D01*
X173505000Y-56345204D01*
X173505000Y-83365000D01*
X169747199Y-83365000D01*
X169681272Y-83320949D01*
X169400000Y-83265001D01*
X169118728Y-83320949D01*
X169095842Y-83336241D01*
X151588317Y-83394502D01*
X151440000Y-83365000D01*
X148820000Y-83365000D01*
X148772872Y-83374374D01*
X148724935Y-83371175D01*
X148633452Y-83402107D01*
X148538728Y-83420949D01*
X148498778Y-83447643D01*
X148453261Y-83463033D01*
X148380575Y-83526624D01*
X148300277Y-83580277D01*
X148273583Y-83620227D01*
X148237421Y-83651864D01*
X148194602Y-83738430D01*
X148140949Y-83818728D01*
X148131576Y-83865851D01*
X148110272Y-83908920D01*
X148040272Y-84168919D01*
X148033840Y-84265284D01*
X148015000Y-84360000D01*
X148015000Y-86335553D01*
X140805533Y-79126087D01*
X140755879Y-79005914D01*
X140535247Y-78784897D01*
X140246831Y-78665137D01*
X139934539Y-78664864D01*
X139645914Y-78784121D01*
X139424897Y-79004753D01*
X139305137Y-79293169D01*
X139304864Y-79605461D01*
X139424121Y-79894086D01*
X139544741Y-80014917D01*
X139484539Y-80014864D01*
X139195914Y-80134121D01*
X138974897Y-80354753D01*
X138855137Y-80643169D01*
X138854864Y-80955461D01*
X138974121Y-81244086D01*
X139194753Y-81465103D01*
X139316005Y-81515451D01*
X141369485Y-83568931D01*
X141235914Y-83624121D01*
X141014897Y-83844753D01*
X140895137Y-84133169D01*
X140894864Y-84445461D01*
X141014121Y-84734086D01*
X141234753Y-84955103D01*
X141356005Y-85005451D01*
X141515576Y-85165022D01*
X141334539Y-85164864D01*
X141045914Y-85284121D01*
X140824897Y-85504753D01*
X140715915Y-85767213D01*
X140686831Y-85755137D01*
X140374539Y-85754864D01*
X140085914Y-85874121D01*
X139864897Y-86094753D01*
X139745137Y-86383169D01*
X139744864Y-86695461D01*
X139864121Y-86984086D01*
X140084753Y-87205103D01*
X140206005Y-87255451D01*
X141734399Y-88783845D01*
X141515914Y-88874121D01*
X141294897Y-89094753D01*
X141175137Y-89383169D01*
X141174864Y-89695461D01*
X141260776Y-89903384D01*
X141216831Y-89885137D01*
X140904539Y-89884864D01*
X140615914Y-90004121D01*
X140394897Y-90224753D01*
X140275137Y-90513169D01*
X140274864Y-90825461D01*
X140394121Y-91114086D01*
X140485000Y-91205124D01*
X140485000Y-92145065D01*
X140254539Y-92144864D01*
X139965914Y-92264121D01*
X139744897Y-92484753D01*
X139625137Y-92773169D01*
X139624864Y-93085461D01*
X139655000Y-93158396D01*
X139655000Y-94105100D01*
X139384539Y-94104864D01*
X139095914Y-94224121D01*
X138874897Y-94444753D01*
X138755137Y-94733169D01*
X138754864Y-95045461D01*
X138874121Y-95334086D01*
X138905000Y-95365019D01*
X138905000Y-95418357D01*
X138776831Y-95365137D01*
X138464539Y-95364864D01*
X138175914Y-95484121D01*
X137954897Y-95704753D01*
X137835137Y-95993169D01*
X137834864Y-96305461D01*
X137954121Y-96594086D01*
X138075000Y-96715176D01*
X138075000Y-120560000D01*
X138110616Y-120739051D01*
X138130949Y-120841272D01*
X138290277Y-121079723D01*
X138724467Y-121513914D01*
X138774121Y-121634086D01*
X138994753Y-121855103D01*
X139283169Y-121974863D01*
X139595461Y-121975136D01*
X139884086Y-121855879D01*
X140105103Y-121635247D01*
X140167531Y-121484902D01*
X140435461Y-121485136D01*
X140724086Y-121365879D01*
X140945103Y-121145247D01*
X141024135Y-120954916D01*
X141275461Y-120955136D01*
X141564086Y-120835879D01*
X141785103Y-120615247D01*
X141904863Y-120326831D01*
X141905083Y-120075710D01*
X142074086Y-120005879D01*
X142295103Y-119785247D01*
X142390709Y-119555001D01*
X142545461Y-119555136D01*
X142834086Y-119435879D01*
X143055103Y-119215247D01*
X143059340Y-119205043D01*
X143165461Y-119205136D01*
X143454086Y-119085879D01*
X143675103Y-118865247D01*
X143758235Y-118665042D01*
X143865461Y-118665136D01*
X144154086Y-118545879D01*
X144345000Y-118355298D01*
X144345000Y-118915553D01*
X139975554Y-123285000D01*
X94734447Y-123285000D01*
X91855000Y-120405554D01*
X91855000Y-117742510D01*
X129529780Y-117742510D01*
X129722718Y-118209458D01*
X130079663Y-118567026D01*
X130546273Y-118760779D01*
X131051510Y-118761220D01*
X131518458Y-118568282D01*
X131876026Y-118211337D01*
X132069779Y-117744727D01*
X132070220Y-117239490D01*
X131877282Y-116772542D01*
X131520337Y-116414974D01*
X131053727Y-116221221D01*
X130548490Y-116220780D01*
X130081542Y-116413718D01*
X129723974Y-116770663D01*
X129530221Y-117237273D01*
X129529780Y-117742510D01*
X91855000Y-117742510D01*
X91855000Y-110625461D01*
X104964864Y-110625461D01*
X105084121Y-110914086D01*
X105304753Y-111135103D01*
X105472872Y-111204912D01*
X105585665Y-111280277D01*
X105628728Y-111309051D01*
X105910000Y-111365000D01*
X124129903Y-111365000D01*
X124129834Y-111444128D01*
X124274918Y-111795258D01*
X124369425Y-111889930D01*
X124275862Y-111983329D01*
X124130166Y-112334205D01*
X124129834Y-112714128D01*
X124274918Y-113065258D01*
X124369425Y-113159930D01*
X124275862Y-113253329D01*
X124130166Y-113604205D01*
X124129834Y-113984128D01*
X124274918Y-114335258D01*
X124369425Y-114429930D01*
X124275862Y-114523329D01*
X124130166Y-114874205D01*
X124129834Y-115254128D01*
X124274918Y-115605258D01*
X124543329Y-115874138D01*
X124894205Y-116019834D01*
X125274128Y-116020166D01*
X125625258Y-115875082D01*
X125719930Y-115780575D01*
X125813329Y-115874138D01*
X126164205Y-116019834D01*
X126544128Y-116020166D01*
X126895258Y-115875082D01*
X126989930Y-115780575D01*
X127083329Y-115874138D01*
X127434205Y-116019834D01*
X127814128Y-116020166D01*
X128165258Y-115875082D01*
X128259930Y-115780575D01*
X128353329Y-115874138D01*
X128704205Y-116019834D01*
X129084128Y-116020166D01*
X129435258Y-115875082D01*
X129529930Y-115780575D01*
X129623329Y-115874138D01*
X129974205Y-116019834D01*
X130354128Y-116020166D01*
X130705258Y-115875082D01*
X130799930Y-115780575D01*
X130893329Y-115874138D01*
X131244205Y-116019834D01*
X131624128Y-116020166D01*
X131975258Y-115875082D01*
X132069930Y-115780575D01*
X132163329Y-115874138D01*
X132514205Y-116019834D01*
X132894128Y-116020166D01*
X133245258Y-115875082D01*
X133339930Y-115780575D01*
X133433329Y-115874138D01*
X133784205Y-116019834D01*
X134164128Y-116020166D01*
X134515258Y-115875082D01*
X134609930Y-115780575D01*
X134703329Y-115874138D01*
X135054205Y-116019834D01*
X135434128Y-116020166D01*
X135785258Y-115875082D01*
X135879930Y-115780575D01*
X135973329Y-115874138D01*
X136324205Y-116019834D01*
X136704128Y-116020166D01*
X137055258Y-115875082D01*
X137324138Y-115606671D01*
X137469834Y-115255795D01*
X137470166Y-114875872D01*
X137325082Y-114524742D01*
X137230575Y-114430070D01*
X137324138Y-114336671D01*
X137469834Y-113985795D01*
X137470166Y-113605872D01*
X137325082Y-113254742D01*
X137230575Y-113160070D01*
X137324138Y-113066671D01*
X137469834Y-112715795D01*
X137470166Y-112335872D01*
X137325082Y-111984742D01*
X137230575Y-111890070D01*
X137324138Y-111796671D01*
X137469834Y-111445795D01*
X137470166Y-111065872D01*
X137325082Y-110714742D01*
X137230575Y-110620070D01*
X137324138Y-110526671D01*
X137469834Y-110175795D01*
X137470166Y-109795872D01*
X137325082Y-109444742D01*
X137230575Y-109350070D01*
X137324138Y-109256671D01*
X137469834Y-108905795D01*
X137470166Y-108525872D01*
X137325082Y-108174742D01*
X137230575Y-108080070D01*
X137324138Y-107986671D01*
X137469834Y-107635795D01*
X137470166Y-107255872D01*
X137325082Y-106904742D01*
X137230575Y-106810070D01*
X137324138Y-106716671D01*
X137469834Y-106365795D01*
X137470166Y-105985872D01*
X137325082Y-105634742D01*
X137230575Y-105540070D01*
X137324138Y-105446671D01*
X137469834Y-105095795D01*
X137470166Y-104715872D01*
X137325082Y-104364742D01*
X137230575Y-104270070D01*
X137324138Y-104176671D01*
X137469834Y-103825795D01*
X137470166Y-103445872D01*
X137325082Y-103094742D01*
X137230575Y-103000070D01*
X137324138Y-102906671D01*
X137469834Y-102555795D01*
X137470166Y-102175872D01*
X137325082Y-101824742D01*
X137230575Y-101730070D01*
X137324138Y-101636671D01*
X137469834Y-101285795D01*
X137470166Y-100905872D01*
X137325082Y-100554742D01*
X137230575Y-100460070D01*
X137324138Y-100366671D01*
X137469834Y-100015795D01*
X137470166Y-99635872D01*
X137325082Y-99284742D01*
X137230575Y-99190070D01*
X137324138Y-99096671D01*
X137469834Y-98745795D01*
X137470166Y-98365872D01*
X137325082Y-98014742D01*
X137230575Y-97920070D01*
X137324138Y-97826671D01*
X137469834Y-97475795D01*
X137470166Y-97095872D01*
X137325082Y-96744742D01*
X137230575Y-96650070D01*
X137324138Y-96556671D01*
X137469834Y-96205795D01*
X137470166Y-95825872D01*
X137325082Y-95474742D01*
X137230575Y-95380070D01*
X137324138Y-95286671D01*
X137469834Y-94935795D01*
X137470166Y-94555872D01*
X137325082Y-94204742D01*
X137230575Y-94110070D01*
X137324138Y-94016671D01*
X137469834Y-93665795D01*
X137470166Y-93285872D01*
X137325082Y-92934742D01*
X137230575Y-92840070D01*
X137324138Y-92746671D01*
X137469834Y-92395795D01*
X137470166Y-92015872D01*
X137325082Y-91664742D01*
X137230575Y-91570070D01*
X137324138Y-91476671D01*
X137469834Y-91125795D01*
X137470166Y-90745872D01*
X137325082Y-90394742D01*
X137230575Y-90300070D01*
X137324138Y-90206671D01*
X137469834Y-89855795D01*
X137470166Y-89475872D01*
X137325082Y-89124742D01*
X137230575Y-89030070D01*
X137324138Y-88936671D01*
X137469834Y-88585795D01*
X137470166Y-88205872D01*
X137325082Y-87854742D01*
X137230575Y-87760070D01*
X137324138Y-87666671D01*
X137469834Y-87315795D01*
X137470166Y-86935872D01*
X137325082Y-86584742D01*
X137230575Y-86490070D01*
X137324138Y-86396671D01*
X137469834Y-86045795D01*
X137470166Y-85665872D01*
X137325082Y-85314742D01*
X137230575Y-85220070D01*
X137324138Y-85126671D01*
X137469834Y-84775795D01*
X137470166Y-84395872D01*
X137325082Y-84044742D01*
X137230575Y-83950070D01*
X137324138Y-83856671D01*
X137469834Y-83505795D01*
X137470166Y-83125872D01*
X137325082Y-82774742D01*
X137230575Y-82680070D01*
X137324138Y-82586671D01*
X137469834Y-82235795D01*
X137470166Y-81855872D01*
X137325082Y-81504742D01*
X137230575Y-81410070D01*
X137324138Y-81316671D01*
X137469834Y-80965795D01*
X137470166Y-80585872D01*
X137325082Y-80234742D01*
X137230575Y-80140070D01*
X137324138Y-80046671D01*
X137469834Y-79695795D01*
X137470166Y-79315872D01*
X137325082Y-78964742D01*
X137230575Y-78870070D01*
X137324138Y-78776671D01*
X137469834Y-78425795D01*
X137470166Y-78045872D01*
X137325082Y-77694742D01*
X137230575Y-77600070D01*
X137324138Y-77506671D01*
X137469834Y-77155795D01*
X137470166Y-76775872D01*
X137325082Y-76424742D01*
X137230575Y-76330070D01*
X137324138Y-76236671D01*
X137469834Y-75885795D01*
X137470166Y-75505872D01*
X137325082Y-75154742D01*
X137230575Y-75060070D01*
X137324138Y-74966671D01*
X137469834Y-74615795D01*
X137470166Y-74235872D01*
X137325082Y-73884742D01*
X137230575Y-73790070D01*
X137324138Y-73696671D01*
X137469834Y-73345795D01*
X137470166Y-72965872D01*
X137325082Y-72614742D01*
X137230575Y-72520070D01*
X137324138Y-72426671D01*
X137469834Y-72075795D01*
X137470166Y-71695872D01*
X137325082Y-71344742D01*
X137230575Y-71250070D01*
X137324138Y-71156671D01*
X137469834Y-70805795D01*
X137470166Y-70425872D01*
X137325082Y-70074742D01*
X137230575Y-69980070D01*
X137324138Y-69886671D01*
X137469834Y-69535795D01*
X137470166Y-69155872D01*
X137370102Y-68913697D01*
X166034708Y-68913697D01*
X166290694Y-69533229D01*
X166764278Y-70007640D01*
X167383362Y-70264707D01*
X168053697Y-70265292D01*
X168673229Y-70009306D01*
X169147640Y-69535722D01*
X169404707Y-68916638D01*
X169405292Y-68246303D01*
X169149306Y-67626771D01*
X168675722Y-67152360D01*
X168056638Y-66895293D01*
X167386303Y-66894708D01*
X166766771Y-67150694D01*
X166292360Y-67624278D01*
X166035293Y-68243362D01*
X166034708Y-68913697D01*
X137370102Y-68913697D01*
X137325082Y-68804742D01*
X137230575Y-68710070D01*
X137324138Y-68616671D01*
X137469834Y-68265795D01*
X137470166Y-67885872D01*
X137325082Y-67534742D01*
X137230575Y-67440070D01*
X137324138Y-67346671D01*
X137469834Y-66995795D01*
X137470166Y-66615872D01*
X137325082Y-66264742D01*
X137230575Y-66170070D01*
X137324138Y-66076671D01*
X137469834Y-65725795D01*
X137470166Y-65345872D01*
X137325082Y-64994742D01*
X137056671Y-64725862D01*
X136705795Y-64580166D01*
X136325872Y-64579834D01*
X135974742Y-64724918D01*
X135880070Y-64819425D01*
X135786671Y-64725862D01*
X135435795Y-64580166D01*
X135055872Y-64579834D01*
X134704742Y-64724918D01*
X134610070Y-64819425D01*
X134516671Y-64725862D01*
X134165795Y-64580166D01*
X133785872Y-64579834D01*
X133434742Y-64724918D01*
X133340070Y-64819425D01*
X133246671Y-64725862D01*
X132895795Y-64580166D01*
X132515872Y-64579834D01*
X132164742Y-64724918D01*
X132070070Y-64819425D01*
X131976671Y-64725862D01*
X131625795Y-64580166D01*
X131245872Y-64579834D01*
X130894742Y-64724918D01*
X130800070Y-64819425D01*
X130706671Y-64725862D01*
X130355795Y-64580166D01*
X129975872Y-64579834D01*
X129624742Y-64724918D01*
X129530070Y-64819425D01*
X129436671Y-64725862D01*
X129085795Y-64580166D01*
X128705872Y-64579834D01*
X128354742Y-64724918D01*
X128260070Y-64819425D01*
X128166671Y-64725862D01*
X127815795Y-64580166D01*
X127435872Y-64579834D01*
X127084742Y-64724918D01*
X126990070Y-64819425D01*
X126896671Y-64725862D01*
X126545795Y-64580166D01*
X126165872Y-64579834D01*
X125814742Y-64724918D01*
X125720070Y-64819425D01*
X125626671Y-64725862D01*
X125275795Y-64580166D01*
X124895872Y-64579834D01*
X124544742Y-64724918D01*
X124275862Y-64993329D01*
X124130166Y-65344205D01*
X124129834Y-65724128D01*
X124274918Y-66075258D01*
X124369425Y-66169930D01*
X124275862Y-66263329D01*
X124130166Y-66614205D01*
X124129834Y-66994128D01*
X124274918Y-67345258D01*
X124369425Y-67439930D01*
X124275862Y-67533329D01*
X124130166Y-67884205D01*
X124129834Y-68264128D01*
X124274918Y-68615258D01*
X124369425Y-68709930D01*
X124275862Y-68803329D01*
X124130166Y-69154205D01*
X124129834Y-69534128D01*
X124274918Y-69885258D01*
X124369425Y-69979930D01*
X124275862Y-70073329D01*
X124130166Y-70424205D01*
X124129834Y-70804128D01*
X124274918Y-71155258D01*
X124369425Y-71249930D01*
X124275862Y-71343329D01*
X124130166Y-71694205D01*
X124129834Y-72074128D01*
X124274918Y-72425258D01*
X124369425Y-72519930D01*
X124275862Y-72613329D01*
X124130166Y-72964205D01*
X124129834Y-73344128D01*
X124274918Y-73695258D01*
X124369425Y-73789930D01*
X124275862Y-73883329D01*
X124130166Y-74234205D01*
X124129834Y-74614128D01*
X124274918Y-74965258D01*
X124369425Y-75059930D01*
X124275862Y-75153329D01*
X124130166Y-75504205D01*
X124129834Y-75884128D01*
X124274918Y-76235258D01*
X124369425Y-76329930D01*
X124275862Y-76423329D01*
X124130166Y-76774205D01*
X124129834Y-77154128D01*
X124274918Y-77505258D01*
X124369425Y-77599930D01*
X124275862Y-77693329D01*
X124130166Y-78044205D01*
X124129834Y-78424128D01*
X124274918Y-78775258D01*
X124369425Y-78869930D01*
X124275862Y-78963329D01*
X124130166Y-79314205D01*
X124130095Y-79395000D01*
X117100000Y-79395000D01*
X116823499Y-79450000D01*
X116818728Y-79450949D01*
X116580276Y-79610277D01*
X112950277Y-83240277D01*
X112790949Y-83478728D01*
X112735000Y-83760000D01*
X112735000Y-83893085D01*
X112685137Y-84013169D01*
X112684864Y-84325461D01*
X112804121Y-84614086D01*
X113024753Y-84835103D01*
X113313169Y-84954863D01*
X113625461Y-84955136D01*
X113898888Y-84842159D01*
X113908145Y-84848344D01*
X113994753Y-84935103D01*
X114108965Y-84982528D01*
X114118728Y-84989051D01*
X114130143Y-84991322D01*
X114283169Y-85054863D01*
X114595461Y-85055136D01*
X114609204Y-85049457D01*
X114664753Y-85105103D01*
X114953169Y-85224863D01*
X115265461Y-85225136D01*
X115554086Y-85105879D01*
X115775103Y-84885247D01*
X115839652Y-84729794D01*
X115884447Y-84685000D01*
X124129912Y-84685000D01*
X124129834Y-84774128D01*
X124274918Y-85125258D01*
X124369425Y-85219930D01*
X124275862Y-85313329D01*
X124130166Y-85664205D01*
X124130097Y-85742813D01*
X123940000Y-85705000D01*
X115656915Y-85705000D01*
X115536831Y-85655137D01*
X115224539Y-85654864D01*
X114935914Y-85774121D01*
X114714897Y-85994753D01*
X114595137Y-86283169D01*
X114594864Y-86595461D01*
X114714121Y-86884086D01*
X114934753Y-87105103D01*
X115223169Y-87224863D01*
X115535461Y-87225136D01*
X115656800Y-87175000D01*
X115725033Y-87175000D01*
X115504897Y-87394753D01*
X115385137Y-87683169D01*
X115384864Y-87995461D01*
X115504121Y-88284086D01*
X115724753Y-88505103D01*
X116013169Y-88624863D01*
X116325461Y-88625136D01*
X116614086Y-88505879D01*
X116645019Y-88475000D01*
X124129929Y-88475000D01*
X124129834Y-88584128D01*
X124274918Y-88935258D01*
X124369425Y-89029930D01*
X124275862Y-89123329D01*
X124130166Y-89474205D01*
X124130087Y-89565000D01*
X117040000Y-89565000D01*
X116989685Y-89575008D01*
X116824539Y-89574864D01*
X116535914Y-89694121D01*
X116314897Y-89914753D01*
X116195137Y-90203169D01*
X116194864Y-90515461D01*
X116314121Y-90804086D01*
X116534753Y-91025103D01*
X116823169Y-91144863D01*
X117135461Y-91145136D01*
X117141647Y-91142580D01*
X117025137Y-91423169D01*
X117024864Y-91735461D01*
X117144121Y-92024086D01*
X117364753Y-92245103D01*
X117653169Y-92364863D01*
X117965461Y-92365136D01*
X118086800Y-92315000D01*
X121670000Y-92315000D01*
X121770546Y-92295000D01*
X124129921Y-92295000D01*
X124129834Y-92394128D01*
X124274918Y-92745258D01*
X124369425Y-92839930D01*
X124275862Y-92933329D01*
X124130166Y-93284205D01*
X124130069Y-93395000D01*
X118965081Y-93395000D01*
X118796831Y-93325137D01*
X118484539Y-93324864D01*
X118195914Y-93444121D01*
X117974897Y-93664753D01*
X117855137Y-93953169D01*
X117854864Y-94265461D01*
X117974121Y-94554086D01*
X118194753Y-94775103D01*
X118483169Y-94894863D01*
X118795461Y-94895136D01*
X118868396Y-94865000D01*
X119214876Y-94865000D01*
X119084897Y-94994753D01*
X118965137Y-95283169D01*
X118964864Y-95595461D01*
X119084121Y-95884086D01*
X119304753Y-96105103D01*
X119593169Y-96224863D01*
X119905461Y-96225136D01*
X120172011Y-96115000D01*
X124129912Y-96115000D01*
X124129834Y-96204128D01*
X124274918Y-96555258D01*
X124369425Y-96649930D01*
X124275862Y-96743329D01*
X124130166Y-97094205D01*
X124130095Y-97175000D01*
X110020000Y-97175000D01*
X109969727Y-97185000D01*
X109340000Y-97185000D01*
X109089211Y-97234886D01*
X109064539Y-97234864D01*
X108775914Y-97354121D01*
X108554897Y-97574753D01*
X108435137Y-97863169D01*
X108434864Y-98175461D01*
X108554121Y-98464086D01*
X108774753Y-98685103D01*
X109063169Y-98804863D01*
X109304002Y-98805074D01*
X109205137Y-99043169D01*
X109204864Y-99355461D01*
X109324121Y-99644086D01*
X109544753Y-99865103D01*
X109833169Y-99984863D01*
X110145461Y-99985136D01*
X110266800Y-99935000D01*
X124129903Y-99935000D01*
X124129834Y-100014128D01*
X124274918Y-100365258D01*
X124369425Y-100459930D01*
X124275862Y-100553329D01*
X124130166Y-100904205D01*
X124130069Y-101015000D01*
X107502832Y-101015000D01*
X107406831Y-100975137D01*
X107094539Y-100974864D01*
X106805914Y-101094121D01*
X106584897Y-101314753D01*
X106465137Y-101603169D01*
X106464864Y-101915461D01*
X106584121Y-102204086D01*
X106644929Y-102265000D01*
X106546915Y-102265000D01*
X106426831Y-102215137D01*
X106114539Y-102214864D01*
X105825914Y-102334121D01*
X105604897Y-102554753D01*
X105485137Y-102843169D01*
X105484864Y-103155461D01*
X105604121Y-103444086D01*
X105824753Y-103665103D01*
X106113169Y-103784863D01*
X106425461Y-103785136D01*
X106546800Y-103735000D01*
X124129912Y-103735000D01*
X124129834Y-103824128D01*
X124274918Y-104175258D01*
X124369425Y-104269930D01*
X124275862Y-104363329D01*
X124130166Y-104714205D01*
X124130087Y-104805000D01*
X106607329Y-104805000D01*
X106366831Y-104705137D01*
X106054539Y-104704864D01*
X105765914Y-104824121D01*
X105544897Y-105044753D01*
X105425137Y-105333169D01*
X105424864Y-105645461D01*
X105544121Y-105934086D01*
X105764753Y-106155103D01*
X106053169Y-106274863D01*
X106365461Y-106275136D01*
X106365790Y-106275000D01*
X124129912Y-106275000D01*
X124129834Y-106364128D01*
X124274918Y-106715258D01*
X124369425Y-106809930D01*
X124275862Y-106903329D01*
X124130166Y-107254205D01*
X124129834Y-107634128D01*
X124274918Y-107985258D01*
X124369425Y-108079930D01*
X124275862Y-108173329D01*
X124130166Y-108524205D01*
X124130078Y-108625000D01*
X106326915Y-108625000D01*
X106206831Y-108575137D01*
X105894539Y-108574864D01*
X105605914Y-108694121D01*
X105384897Y-108914753D01*
X105265137Y-109203169D01*
X105264864Y-109515461D01*
X105372728Y-109776514D01*
X105305914Y-109804121D01*
X105084897Y-110024753D01*
X104965137Y-110313169D01*
X104964864Y-110625461D01*
X91855000Y-110625461D01*
X91855000Y-67774447D01*
X91899724Y-67729723D01*
X92059051Y-67491272D01*
X92059269Y-67490177D01*
X96186936Y-63362510D01*
X132579780Y-63362510D01*
X132772718Y-63829458D01*
X133129663Y-64187026D01*
X133596273Y-64380779D01*
X134101510Y-64381220D01*
X134568458Y-64188282D01*
X134926026Y-63831337D01*
X135119779Y-63364727D01*
X135120220Y-62859490D01*
X134927282Y-62392542D01*
X134570337Y-62034974D01*
X134103727Y-61841221D01*
X133598490Y-61840780D01*
X133131542Y-62033718D01*
X132773974Y-62390663D01*
X132580221Y-62857273D01*
X132579780Y-63362510D01*
X96186936Y-63362510D01*
X101964447Y-57585000D01*
X122915554Y-57585000D01*
X126914467Y-61583914D01*
X126964121Y-61704086D01*
X127184753Y-61925103D01*
X127473169Y-62044863D01*
X127785461Y-62045136D01*
X128074086Y-61925879D01*
X128295103Y-61705247D01*
X128311818Y-61664993D01*
X128475461Y-61665136D01*
X128764086Y-61545879D01*
X128985103Y-61325247D01*
X129104863Y-61036831D01*
X129105136Y-60724539D01*
X128985879Y-60435914D01*
X128765247Y-60214897D01*
X128643997Y-60164550D01*
X123979723Y-55500277D01*
X123741272Y-55340949D01*
X123460000Y-55285000D01*
X101190000Y-55285000D01*
X100908728Y-55340949D01*
X100670277Y-55500276D01*
X89620277Y-66550277D01*
X89460949Y-66788728D01*
X89405000Y-67070000D01*
X87445000Y-67070000D01*
X87445000Y-67004446D01*
X99304447Y-55145000D01*
X123985554Y-55145000D01*
X129704467Y-60863914D01*
X129754121Y-60984086D01*
X129974753Y-61205103D01*
X130263169Y-61324863D01*
X130575461Y-61325136D01*
X130864086Y-61205879D01*
X131085103Y-60985247D01*
X131204863Y-60696831D01*
X131205136Y-60384539D01*
X131085879Y-60095914D01*
X130865247Y-59874897D01*
X130743997Y-59824550D01*
X124809723Y-53890277D01*
X124571272Y-53730949D01*
X124290000Y-53675000D01*
X99000000Y-53675000D01*
X98718728Y-53730949D01*
X98480277Y-53890276D01*
X86190277Y-66180277D01*
X86030949Y-66418728D01*
X85975000Y-66700000D01*
X84139446Y-66700000D01*
X99424447Y-51415000D01*
X125165554Y-51415000D01*
X138635000Y-64884447D01*
X138635000Y-66029002D01*
X138575137Y-66173169D01*
X138574864Y-66485461D01*
X138694121Y-66774086D01*
X138914753Y-66995103D01*
X139203169Y-67114863D01*
X139515461Y-67115136D01*
X139804086Y-66995879D01*
X140025103Y-66775247D01*
X140144863Y-66486831D01*
X140145136Y-66174539D01*
X140105000Y-66077402D01*
X140105000Y-64580000D01*
X140049051Y-64298728D01*
X139993037Y-64214897D01*
X139889724Y-64060277D01*
X125989723Y-50160277D01*
X125751272Y-50000949D01*
X125470000Y-49945000D01*
X99120000Y-49945000D01*
X98838728Y-50000949D01*
X98600277Y-50160276D01*
X82690277Y-66070277D01*
X82530949Y-66308728D01*
X82475000Y-66590000D01*
X55710000Y-66590000D01*
X55710000Y-38702815D01*
X136504630Y-38702815D01*
X136828980Y-39487800D01*
X137429041Y-40088909D01*
X138213459Y-40414628D01*
X139062815Y-40415370D01*
X139847800Y-40091020D01*
X140448909Y-39490959D01*
X140774628Y-38706541D01*
X140775370Y-37857185D01*
X140451020Y-37072200D01*
X139850959Y-36471091D01*
X139066541Y-36145372D01*
X138217185Y-36144630D01*
X137432200Y-36468980D01*
X136831091Y-37069041D01*
X136505372Y-37853459D01*
X136504630Y-38702815D01*
X55710000Y-38702815D01*
X55710000Y-23480000D01*
X60290000Y-23480000D01*
X60496286Y-24517072D01*
X61083741Y-25396259D01*
X61962928Y-25983714D01*
X63000000Y-26190000D01*
X64037072Y-25983714D01*
X64748637Y-25508260D01*
X138555540Y-25508260D01*
X138555540Y-25957840D01*
X138713381Y-26497362D01*
X139065673Y-26935412D01*
X139558783Y-27205301D01*
X139641585Y-27222843D01*
X139863640Y-27100856D01*
X139863640Y-25508260D01*
X138555540Y-25508260D01*
X64748637Y-25508260D01*
X64916259Y-25396259D01*
X65503714Y-24517072D01*
X65710000Y-23480000D01*
X65503714Y-22442928D01*
X65236367Y-22042815D01*
X116944630Y-22042815D01*
X117268980Y-22827800D01*
X117869041Y-23428909D01*
X118653459Y-23754628D01*
X119502815Y-23755370D01*
X120287800Y-23431020D01*
X120888909Y-22830959D01*
X121214628Y-22046541D01*
X121215329Y-21243600D01*
X135007160Y-21243600D01*
X135007160Y-22993660D01*
X135237313Y-23896716D01*
X135795531Y-24642955D01*
X136596830Y-25118769D01*
X136894207Y-25199146D01*
X137265220Y-25089345D01*
X137265220Y-21243600D01*
X137519220Y-21243600D01*
X137519220Y-25089345D01*
X137890233Y-25199146D01*
X138187610Y-25118769D01*
X138555540Y-24900291D01*
X138555540Y-25254260D01*
X139863640Y-25254260D01*
X139863640Y-23661664D01*
X140117640Y-23661664D01*
X140117640Y-25254260D01*
X140137640Y-25254260D01*
X140137640Y-25508260D01*
X140117640Y-25508260D01*
X140117640Y-27100856D01*
X140339695Y-27222843D01*
X140422497Y-27205301D01*
X140915607Y-26935412D01*
X141240572Y-26531341D01*
X141475231Y-26882532D01*
X141940811Y-27193623D01*
X142490000Y-27302863D01*
X143039189Y-27193623D01*
X143504769Y-26882532D01*
X143747005Y-26520000D01*
X157532560Y-26520000D01*
X157532560Y-29220000D01*
X157576838Y-29455317D01*
X157715910Y-29671441D01*
X157928110Y-29816431D01*
X158180000Y-29867440D01*
X160880000Y-29867440D01*
X161115317Y-29823162D01*
X161331441Y-29684090D01*
X161476431Y-29471890D01*
X161527440Y-29220000D01*
X161527440Y-26628260D01*
X188285540Y-26628260D01*
X188285540Y-27077840D01*
X188443381Y-27617362D01*
X188795673Y-28055412D01*
X189288783Y-28325301D01*
X189371585Y-28342843D01*
X189593640Y-28220856D01*
X189593640Y-26628260D01*
X188285540Y-26628260D01*
X161527440Y-26628260D01*
X161527440Y-26520000D01*
X161483162Y-26284683D01*
X161344090Y-26068559D01*
X161131890Y-25923569D01*
X160880000Y-25872560D01*
X158180000Y-25872560D01*
X157944683Y-25916838D01*
X157728559Y-26055910D01*
X157583569Y-26268110D01*
X157532560Y-26520000D01*
X143747005Y-26520000D01*
X143815860Y-26416952D01*
X143925100Y-25867763D01*
X143925100Y-24894757D01*
X143815860Y-24345568D01*
X143504769Y-23879988D01*
X143039189Y-23568897D01*
X142490000Y-23459657D01*
X141940811Y-23568897D01*
X141475231Y-23879988D01*
X141240572Y-24231179D01*
X140915607Y-23827108D01*
X140422497Y-23557219D01*
X140339695Y-23539677D01*
X140117640Y-23661664D01*
X139863640Y-23661664D01*
X139641585Y-23539677D01*
X139637924Y-23540453D01*
X139777280Y-22993660D01*
X139777280Y-21243600D01*
X145205260Y-21243600D01*
X145205260Y-22993660D01*
X145435413Y-23896716D01*
X145993631Y-24642955D01*
X146794930Y-25118769D01*
X147092307Y-25199146D01*
X147463320Y-25089345D01*
X147463320Y-21243600D01*
X147717320Y-21243600D01*
X147717320Y-25089345D01*
X148088333Y-25199146D01*
X148385710Y-25118769D01*
X149187009Y-24642955D01*
X149745227Y-23896716D01*
X149830250Y-23563109D01*
X157544657Y-23563109D01*
X157846218Y-24292943D01*
X158404120Y-24851819D01*
X159133427Y-25154654D01*
X159923109Y-25155343D01*
X160652943Y-24853782D01*
X161211819Y-24295880D01*
X161514654Y-23566573D01*
X161515343Y-22776891D01*
X161344575Y-22363600D01*
X184737160Y-22363600D01*
X184737160Y-24113660D01*
X184967313Y-25016716D01*
X185525531Y-25762955D01*
X186326830Y-26238769D01*
X186624207Y-26319146D01*
X186995220Y-26209345D01*
X186995220Y-22363600D01*
X187249220Y-22363600D01*
X187249220Y-26209345D01*
X187620233Y-26319146D01*
X187917610Y-26238769D01*
X188285540Y-26020291D01*
X188285540Y-26374260D01*
X189593640Y-26374260D01*
X189593640Y-24781664D01*
X189847640Y-24781664D01*
X189847640Y-26374260D01*
X189867640Y-26374260D01*
X189867640Y-26628260D01*
X189847640Y-26628260D01*
X189847640Y-28220856D01*
X190069695Y-28342843D01*
X190152497Y-28325301D01*
X190645607Y-28055412D01*
X190970572Y-27651341D01*
X191205231Y-28002532D01*
X191670811Y-28313623D01*
X192220000Y-28422863D01*
X192769189Y-28313623D01*
X193234769Y-28002532D01*
X193545860Y-27536952D01*
X193655100Y-26987763D01*
X193655100Y-26770000D01*
X210852560Y-26770000D01*
X210852560Y-29470000D01*
X210896838Y-29705317D01*
X211035910Y-29921441D01*
X211248110Y-30066431D01*
X211500000Y-30117440D01*
X214200000Y-30117440D01*
X214435317Y-30073162D01*
X214651441Y-29934090D01*
X214796431Y-29721890D01*
X214847440Y-29470000D01*
X214847440Y-26770000D01*
X214803162Y-26534683D01*
X214664090Y-26318559D01*
X214451890Y-26173569D01*
X214200000Y-26122560D01*
X211500000Y-26122560D01*
X211264683Y-26166838D01*
X211048559Y-26305910D01*
X210903569Y-26518110D01*
X210852560Y-26770000D01*
X193655100Y-26770000D01*
X193655100Y-26014757D01*
X193545860Y-25465568D01*
X193234769Y-24999988D01*
X192769189Y-24688897D01*
X192220000Y-24579657D01*
X191670811Y-24688897D01*
X191205231Y-24999988D01*
X190970572Y-25351179D01*
X190645607Y-24947108D01*
X190152497Y-24677219D01*
X190069695Y-24659677D01*
X189847640Y-24781664D01*
X189593640Y-24781664D01*
X189371585Y-24659677D01*
X189367924Y-24660453D01*
X189507280Y-24113660D01*
X189507280Y-22363600D01*
X194935260Y-22363600D01*
X194935260Y-24113660D01*
X195165413Y-25016716D01*
X195723631Y-25762955D01*
X196524930Y-26238769D01*
X196822307Y-26319146D01*
X197193320Y-26209345D01*
X197193320Y-22363600D01*
X197447320Y-22363600D01*
X197447320Y-26209345D01*
X197818333Y-26319146D01*
X198115710Y-26238769D01*
X198917009Y-25762955D01*
X199475227Y-25016716D01*
X199705380Y-24113660D01*
X199705380Y-23813109D01*
X210864657Y-23813109D01*
X211166218Y-24542943D01*
X211724120Y-25101819D01*
X212453427Y-25404654D01*
X213243109Y-25405343D01*
X213972943Y-25103782D01*
X214531819Y-24545880D01*
X214834654Y-23816573D01*
X214834947Y-23480000D01*
X261290000Y-23480000D01*
X261496286Y-24517072D01*
X262083741Y-25396259D01*
X262962928Y-25983714D01*
X264000000Y-26190000D01*
X265037072Y-25983714D01*
X265916259Y-25396259D01*
X266503714Y-24517072D01*
X266710000Y-23480000D01*
X266503714Y-22442928D01*
X265916259Y-21563741D01*
X265037072Y-20976286D01*
X264000000Y-20770000D01*
X262962928Y-20976286D01*
X262083741Y-21563741D01*
X261496286Y-22442928D01*
X261290000Y-23480000D01*
X214834947Y-23480000D01*
X214835343Y-23026891D01*
X214533782Y-22297057D01*
X213975880Y-21738181D01*
X213246573Y-21435346D01*
X212456891Y-21434657D01*
X211727057Y-21736218D01*
X211168181Y-22294120D01*
X210865346Y-23023427D01*
X210864657Y-23813109D01*
X199705380Y-23813109D01*
X199705380Y-22363600D01*
X197447320Y-22363600D01*
X197193320Y-22363600D01*
X194935260Y-22363600D01*
X189507280Y-22363600D01*
X187249220Y-22363600D01*
X186995220Y-22363600D01*
X184737160Y-22363600D01*
X161344575Y-22363600D01*
X161213782Y-22047057D01*
X160655880Y-21488181D01*
X159926573Y-21185346D01*
X159136891Y-21184657D01*
X158407057Y-21486218D01*
X157848181Y-22044120D01*
X157545346Y-22773427D01*
X157544657Y-23563109D01*
X149830250Y-23563109D01*
X149975380Y-22993660D01*
X149975380Y-21243600D01*
X147717320Y-21243600D01*
X147463320Y-21243600D01*
X145205260Y-21243600D01*
X139777280Y-21243600D01*
X137519220Y-21243600D01*
X137265220Y-21243600D01*
X135007160Y-21243600D01*
X121215329Y-21243600D01*
X121215370Y-21197185D01*
X120891020Y-20412200D01*
X120290959Y-19811091D01*
X119506541Y-19485372D01*
X118657185Y-19484630D01*
X117872200Y-19808980D01*
X117271091Y-20409041D01*
X116945372Y-21193459D01*
X116944630Y-22042815D01*
X65236367Y-22042815D01*
X64916259Y-21563741D01*
X64037072Y-20976286D01*
X63000000Y-20770000D01*
X61962928Y-20976286D01*
X61083741Y-21563741D01*
X60496286Y-22442928D01*
X60290000Y-23480000D01*
X55710000Y-23480000D01*
X55710000Y-19239540D01*
X135007160Y-19239540D01*
X135007160Y-20989600D01*
X137265220Y-20989600D01*
X137265220Y-17143855D01*
X137519220Y-17143855D01*
X137519220Y-20989600D01*
X139777280Y-20989600D01*
X139777280Y-19239540D01*
X145205260Y-19239540D01*
X145205260Y-20989600D01*
X147463320Y-20989600D01*
X147463320Y-17143855D01*
X147717320Y-17143855D01*
X147717320Y-20989600D01*
X149975380Y-20989600D01*
X149975380Y-19875593D01*
X158304012Y-19875593D01*
X158445478Y-20178782D01*
X159181955Y-20463737D01*
X159971418Y-20445164D01*
X160178132Y-20359540D01*
X184737160Y-20359540D01*
X184737160Y-22109600D01*
X186995220Y-22109600D01*
X186995220Y-18263855D01*
X187249220Y-18263855D01*
X187249220Y-22109600D01*
X189507280Y-22109600D01*
X189507280Y-20359540D01*
X194935260Y-20359540D01*
X194935260Y-22109600D01*
X197193320Y-22109600D01*
X197193320Y-18263855D01*
X197447320Y-18263855D01*
X197447320Y-22109600D01*
X199705380Y-22109600D01*
X199705380Y-20359540D01*
X199645757Y-20125593D01*
X211624012Y-20125593D01*
X211765478Y-20428782D01*
X212501955Y-20713737D01*
X213291418Y-20695164D01*
X213934522Y-20428782D01*
X214075988Y-20125593D01*
X212850000Y-18899605D01*
X211624012Y-20125593D01*
X199645757Y-20125593D01*
X199475227Y-19456484D01*
X198917009Y-18710245D01*
X198347309Y-18371955D01*
X210856263Y-18371955D01*
X210874836Y-19161418D01*
X211141218Y-19804522D01*
X211444407Y-19945988D01*
X212670395Y-18720000D01*
X213029605Y-18720000D01*
X214255593Y-19945988D01*
X214558782Y-19804522D01*
X214843737Y-19068045D01*
X214825164Y-18278582D01*
X214558782Y-17635478D01*
X214255593Y-17494012D01*
X213029605Y-18720000D01*
X212670395Y-18720000D01*
X211444407Y-17494012D01*
X211141218Y-17635478D01*
X210856263Y-18371955D01*
X198347309Y-18371955D01*
X198115710Y-18234431D01*
X197818333Y-18154054D01*
X197447320Y-18263855D01*
X197193320Y-18263855D01*
X196822307Y-18154054D01*
X196524930Y-18234431D01*
X195723631Y-18710245D01*
X195165413Y-19456484D01*
X194935260Y-20359540D01*
X189507280Y-20359540D01*
X189277127Y-19456484D01*
X188718909Y-18710245D01*
X187917610Y-18234431D01*
X187620233Y-18154054D01*
X187249220Y-18263855D01*
X186995220Y-18263855D01*
X186624207Y-18154054D01*
X186326830Y-18234431D01*
X185525531Y-18710245D01*
X184967313Y-19456484D01*
X184737160Y-20359540D01*
X160178132Y-20359540D01*
X160614522Y-20178782D01*
X160755988Y-19875593D01*
X159530000Y-18649605D01*
X158304012Y-19875593D01*
X149975380Y-19875593D01*
X149975380Y-19239540D01*
X149745227Y-18336484D01*
X149584751Y-18121955D01*
X157536263Y-18121955D01*
X157554836Y-18911418D01*
X157821218Y-19554522D01*
X158124407Y-19695988D01*
X159350395Y-18470000D01*
X159709605Y-18470000D01*
X160935593Y-19695988D01*
X161238782Y-19554522D01*
X161523737Y-18818045D01*
X161505164Y-18028582D01*
X161238782Y-17385478D01*
X161086464Y-17314407D01*
X211624012Y-17314407D01*
X212850000Y-18540395D01*
X214075988Y-17314407D01*
X213934522Y-17011218D01*
X213198045Y-16726263D01*
X212408582Y-16744836D01*
X211765478Y-17011218D01*
X211624012Y-17314407D01*
X161086464Y-17314407D01*
X160935593Y-17244012D01*
X159709605Y-18470000D01*
X159350395Y-18470000D01*
X158124407Y-17244012D01*
X157821218Y-17385478D01*
X157536263Y-18121955D01*
X149584751Y-18121955D01*
X149187009Y-17590245D01*
X148385710Y-17114431D01*
X148200633Y-17064407D01*
X158304012Y-17064407D01*
X159530000Y-18290395D01*
X160755988Y-17064407D01*
X160614522Y-16761218D01*
X159878045Y-16476263D01*
X159088582Y-16494836D01*
X158445478Y-16761218D01*
X158304012Y-17064407D01*
X148200633Y-17064407D01*
X148088333Y-17034054D01*
X147717320Y-17143855D01*
X147463320Y-17143855D01*
X147092307Y-17034054D01*
X146794930Y-17114431D01*
X145993631Y-17590245D01*
X145435413Y-18336484D01*
X145205260Y-19239540D01*
X139777280Y-19239540D01*
X139547127Y-18336484D01*
X138988909Y-17590245D01*
X138187610Y-17114431D01*
X137890233Y-17034054D01*
X137519220Y-17143855D01*
X137265220Y-17143855D01*
X136894207Y-17034054D01*
X136596830Y-17114431D01*
X135795531Y-17590245D01*
X135237313Y-18336484D01*
X135007160Y-19239540D01*
X55710000Y-19239540D01*
X55710000Y-13190000D01*
X270290000Y-13190000D01*
X270290000Y-170770000D01*
X270290000Y-170770000D01*
G37*
X270290000Y-170770000D02*
X55710000Y-170770000D01*
X55710000Y-165480000D01*
X60290000Y-165480000D01*
X60496286Y-166517072D01*
X61083741Y-167396259D01*
X61962928Y-167983714D01*
X63000000Y-168190000D01*
X64037072Y-167983714D01*
X64916259Y-167396259D01*
X64992059Y-167282815D01*
X165784630Y-167282815D01*
X166108980Y-168067800D01*
X166709041Y-168668909D01*
X167493459Y-168994628D01*
X168342815Y-168995370D01*
X169127800Y-168671020D01*
X169728909Y-168070959D01*
X170054628Y-167286541D01*
X170055370Y-166437185D01*
X169731020Y-165652200D01*
X169130959Y-165051091D01*
X168346541Y-164725372D01*
X167497185Y-164724630D01*
X166712200Y-165048980D01*
X166111091Y-165649041D01*
X165785372Y-166433459D01*
X165784630Y-167282815D01*
X64992059Y-167282815D01*
X65503714Y-166517072D01*
X65710000Y-165480000D01*
X65503714Y-164442928D01*
X65496957Y-164432815D01*
X236804630Y-164432815D01*
X237128980Y-165217800D01*
X237729041Y-165818909D01*
X238513459Y-166144628D01*
X239362815Y-166145370D01*
X240147800Y-165821020D01*
X240748909Y-165220959D01*
X241056582Y-164480000D01*
X261290000Y-164480000D01*
X261496286Y-165517072D01*
X262083741Y-166396259D01*
X262962928Y-166983714D01*
X264000000Y-167190000D01*
X265037072Y-166983714D01*
X265916259Y-166396259D01*
X266503714Y-165517072D01*
X266710000Y-164480000D01*
X266503714Y-163442928D01*
X265916259Y-162563741D01*
X265037072Y-161976286D01*
X264000000Y-161770000D01*
X262962928Y-161976286D01*
X262083741Y-162563741D01*
X261496286Y-163442928D01*
X261290000Y-164480000D01*
X241056582Y-164480000D01*
X241074628Y-164436541D01*
X241075370Y-163587185D01*
X240751020Y-162802200D01*
X240150959Y-162201091D01*
X239366541Y-161875372D01*
X238517185Y-161874630D01*
X237732200Y-162198980D01*
X237131091Y-162799041D01*
X236805372Y-163583459D01*
X236804630Y-164432815D01*
X65496957Y-164432815D01*
X64916259Y-163563741D01*
X64037072Y-162976286D01*
X63000000Y-162770000D01*
X61962928Y-162976286D01*
X61083741Y-163563741D01*
X60496286Y-164442928D01*
X60290000Y-165480000D01*
X55710000Y-165480000D01*
X55710000Y-152622815D01*
X165544630Y-152622815D01*
X165868980Y-153407800D01*
X166469041Y-154008909D01*
X167253459Y-154334628D01*
X168102815Y-154335370D01*
X168887800Y-154011020D01*
X169488909Y-153410959D01*
X169645928Y-153032815D01*
X223674630Y-153032815D01*
X223998980Y-153817800D01*
X224599041Y-154418909D01*
X225383459Y-154744628D01*
X226232815Y-154745370D01*
X227017800Y-154421020D01*
X227618909Y-153820959D01*
X227944628Y-153036541D01*
X227945370Y-152187185D01*
X227621020Y-151402200D01*
X227020959Y-150801091D01*
X226236541Y-150475372D01*
X225387185Y-150474630D01*
X224602200Y-150798980D01*
X224001091Y-151399041D01*
X223675372Y-152183459D01*
X223674630Y-153032815D01*
X169645928Y-153032815D01*
X169814628Y-152626541D01*
X169815370Y-151777185D01*
X169491020Y-150992200D01*
X168890959Y-150391091D01*
X168106541Y-150065372D01*
X167257185Y-150064630D01*
X166472200Y-150388980D01*
X165871091Y-150989041D01*
X165545372Y-151773459D01*
X165544630Y-152622815D01*
X55710000Y-152622815D01*
X55710000Y-66590000D01*
X82475000Y-66590000D01*
X82475000Y-126130000D01*
X82503870Y-126275136D01*
X82530949Y-126411272D01*
X82690277Y-126649723D01*
X89720276Y-133679723D01*
X89958728Y-133839051D01*
X90240000Y-133895000D01*
X147030000Y-133895000D01*
X147311272Y-133839051D01*
X147549723Y-133679723D01*
X153019723Y-128209724D01*
X153179051Y-127971272D01*
X153185090Y-127940914D01*
X153235000Y-127690000D01*
X153235000Y-106770998D01*
X153294863Y-106626831D01*
X153295136Y-106314539D01*
X153175879Y-106025914D01*
X152955247Y-105804897D01*
X152666831Y-105685137D01*
X152354539Y-105684864D01*
X152115000Y-105783839D01*
X152115000Y-101470000D01*
X152059051Y-101188728D01*
X152054090Y-101181304D01*
X151899723Y-100950276D01*
X150525533Y-99576087D01*
X150475879Y-99455914D01*
X150255247Y-99234897D01*
X149966831Y-99115137D01*
X149654539Y-99114864D01*
X149365914Y-99234121D01*
X149144897Y-99454753D01*
X149025137Y-99743169D01*
X149024864Y-100055461D01*
X149144121Y-100344086D01*
X149364753Y-100565103D01*
X149486005Y-100615451D01*
X150645000Y-101774447D01*
X150645000Y-119533085D01*
X150595137Y-119653169D01*
X150594864Y-119965461D01*
X150714121Y-120254086D01*
X150934753Y-120475103D01*
X151223169Y-120594863D01*
X151535461Y-120595136D01*
X151765000Y-120500293D01*
X151765000Y-127385553D01*
X146725554Y-132425000D01*
X90544447Y-132425000D01*
X83945000Y-125825554D01*
X83945000Y-66894446D01*
X84139446Y-66700000D01*
X85975000Y-66700000D01*
X85975000Y-123750000D01*
X86011799Y-123935000D01*
X86030949Y-124031272D01*
X86190277Y-124269723D01*
X92030276Y-130109723D01*
X92157901Y-130194999D01*
X92268728Y-130269051D01*
X92550000Y-130325000D01*
X141650000Y-130325000D01*
X141931272Y-130269051D01*
X142169723Y-130109723D01*
X148889723Y-123389724D01*
X149049051Y-123151272D01*
X149076157Y-123015001D01*
X149105000Y-122870000D01*
X149105000Y-107695081D01*
X149174863Y-107526831D01*
X149175136Y-107214539D01*
X149055879Y-106925914D01*
X148835247Y-106704897D01*
X148546831Y-106585137D01*
X148234539Y-106584864D01*
X147945914Y-106704121D01*
X147724897Y-106924753D01*
X147605137Y-107213169D01*
X147604864Y-107525461D01*
X147635000Y-107598396D01*
X147635000Y-122565553D01*
X141345554Y-128855000D01*
X92854447Y-128855000D01*
X87445000Y-123445554D01*
X87445000Y-67070000D01*
X89405000Y-67070000D01*
X89405000Y-121540000D01*
X89432848Y-121680000D01*
X89460949Y-121821272D01*
X89620277Y-122059723D01*
X93590277Y-126029724D01*
X93828728Y-126189051D01*
X94110000Y-126245000D01*
X140650000Y-126245000D01*
X140931272Y-126189051D01*
X141169723Y-126029723D01*
X146759724Y-120439723D01*
X146919051Y-120201272D01*
X146927206Y-120160276D01*
X146975000Y-119920000D01*
X146975000Y-103059014D01*
X147013169Y-103074863D01*
X147235000Y-103075057D01*
X147235000Y-103730000D01*
X147235043Y-103730218D01*
X147234864Y-103935461D01*
X147354121Y-104224086D01*
X147574753Y-104445103D01*
X147863169Y-104564863D01*
X148175461Y-104565136D01*
X148464086Y-104445879D01*
X148685103Y-104225247D01*
X148804863Y-103936831D01*
X148805136Y-103624539D01*
X148705000Y-103382191D01*
X148705000Y-99625092D01*
X148755461Y-99625136D01*
X149044086Y-99505879D01*
X149265103Y-99285247D01*
X149340359Y-99104010D01*
X149429051Y-98971272D01*
X149454141Y-98845136D01*
X149485000Y-98690000D01*
X149485000Y-91933697D01*
X161524708Y-91933697D01*
X161780694Y-92553229D01*
X162254278Y-93027640D01*
X162873362Y-93284707D01*
X163543697Y-93285292D01*
X164163229Y-93029306D01*
X164637640Y-92555722D01*
X164894707Y-91936638D01*
X164895292Y-91266303D01*
X164639306Y-90646771D01*
X164165722Y-90172360D01*
X163546638Y-89915293D01*
X162876303Y-89914708D01*
X162256771Y-90170694D01*
X161782360Y-90644278D01*
X161525293Y-91263362D01*
X161524708Y-91933697D01*
X149485000Y-91933697D01*
X149485000Y-87964970D01*
X149675461Y-87965136D01*
X149748396Y-87935000D01*
X150255000Y-87935000D01*
X150255000Y-88850000D01*
X150307022Y-89111528D01*
X150310949Y-89131272D01*
X150470277Y-89369723D01*
X150660277Y-89559724D01*
X150898728Y-89719051D01*
X151180000Y-89775000D01*
X171425012Y-89775000D01*
X171424855Y-89955363D01*
X171525000Y-90197733D01*
X171525000Y-93225038D01*
X171146303Y-93224708D01*
X170526771Y-93480694D01*
X170052360Y-93954278D01*
X169795293Y-94573362D01*
X169794708Y-95243697D01*
X170010107Y-95765002D01*
X151325086Y-95765002D01*
X151156831Y-95695137D01*
X150844539Y-95694864D01*
X150671232Y-95766473D01*
X150648728Y-95770949D01*
X150629817Y-95783585D01*
X150555914Y-95814121D01*
X150498823Y-95871112D01*
X150410277Y-95930277D01*
X150351628Y-96018051D01*
X150334897Y-96034753D01*
X150325751Y-96056779D01*
X150250949Y-96168728D01*
X150224911Y-96299630D01*
X150215137Y-96323169D01*
X150215115Y-96348882D01*
X150195001Y-96450000D01*
X150214939Y-96550233D01*
X150214864Y-96635461D01*
X150247697Y-96714923D01*
X150250949Y-96731272D01*
X150260129Y-96745010D01*
X150334121Y-96924086D01*
X150554753Y-97145103D01*
X150843169Y-97264863D01*
X151155461Y-97265136D01*
X151228391Y-97235002D01*
X151615552Y-97235002D01*
X151525554Y-97325000D01*
X151416915Y-97325000D01*
X151296831Y-97275137D01*
X150984539Y-97274864D01*
X150695914Y-97394121D01*
X150474897Y-97614753D01*
X150355137Y-97903169D01*
X150354864Y-98215461D01*
X150474121Y-98504086D01*
X150694753Y-98725103D01*
X150983169Y-98844863D01*
X151295461Y-98845136D01*
X151416800Y-98795000D01*
X151830000Y-98795000D01*
X152111272Y-98739051D01*
X152349723Y-98579723D01*
X153024447Y-97905000D01*
X172045554Y-97905000D01*
X172660278Y-98519725D01*
X172898729Y-98679052D01*
X173039809Y-98707115D01*
X173082472Y-98749852D01*
X173002096Y-98830088D01*
X172821906Y-99264035D01*
X172821496Y-99733906D01*
X173000928Y-100168166D01*
X173267800Y-100435504D01*
X173267800Y-101491435D01*
X168995136Y-102015000D01*
X158796915Y-102015000D01*
X158676831Y-101965137D01*
X158364539Y-101964864D01*
X158075914Y-102084121D01*
X157854897Y-102304753D01*
X157735137Y-102593169D01*
X157734864Y-102905461D01*
X157854121Y-103194086D01*
X157939833Y-103279948D01*
X157864897Y-103354753D01*
X157745137Y-103643169D01*
X157744864Y-103955461D01*
X157810333Y-104113909D01*
X157715137Y-104343169D01*
X157714864Y-104655461D01*
X157834121Y-104944086D01*
X157874955Y-104984991D01*
X157704897Y-105154753D01*
X157585137Y-105443169D01*
X157584864Y-105755461D01*
X157704121Y-106044086D01*
X157818522Y-106158686D01*
X157775137Y-106263169D01*
X157774864Y-106575461D01*
X157894121Y-106864086D01*
X157938436Y-106908478D01*
X157845137Y-107133169D01*
X157844864Y-107445461D01*
X157964121Y-107734086D01*
X158184753Y-107955103D01*
X158473169Y-108074863D01*
X158785461Y-108075136D01*
X158906800Y-108025000D01*
X159270000Y-108025000D01*
X159551272Y-107969051D01*
X159789723Y-107809723D01*
X160564447Y-107035000D01*
X166934166Y-107035000D01*
X166726771Y-107120694D01*
X166252360Y-107594278D01*
X165995293Y-108213362D01*
X165994708Y-108883697D01*
X166250694Y-109503229D01*
X166724278Y-109977640D01*
X167343362Y-110234707D01*
X168013697Y-110235292D01*
X168633229Y-109979306D01*
X169107640Y-109505722D01*
X169364707Y-108886638D01*
X169365292Y-108216303D01*
X169109306Y-107596771D01*
X168635722Y-107122360D01*
X168425336Y-107035000D01*
X173400000Y-107035000D01*
X173681272Y-106979051D01*
X173919723Y-106819723D01*
X180019724Y-100719723D01*
X180179051Y-100481272D01*
X180235000Y-100200000D01*
X180235000Y-98300000D01*
X180179051Y-98018728D01*
X180157102Y-97985879D01*
X180019723Y-97780276D01*
X178719724Y-96480278D01*
X178481273Y-96320950D01*
X178469941Y-96318696D01*
X178200001Y-96265001D01*
X177935154Y-96265001D01*
X177920328Y-96250150D01*
X178000704Y-96169914D01*
X178031989Y-96094570D01*
X183857698Y-96094570D01*
X184122024Y-96734288D01*
X184611039Y-97224157D01*
X185250294Y-97489599D01*
X185942469Y-97490203D01*
X186582187Y-97225877D01*
X187072056Y-96736862D01*
X187337498Y-96097607D01*
X187338102Y-95405432D01*
X187073776Y-94765714D01*
X186584761Y-94275845D01*
X185945506Y-94010403D01*
X185253331Y-94009799D01*
X184613613Y-94274125D01*
X184123744Y-94763140D01*
X183858302Y-95402395D01*
X183857698Y-96094570D01*
X178031989Y-96094570D01*
X178180894Y-95735967D01*
X178181304Y-95266096D01*
X178001872Y-94831836D01*
X177920329Y-94750150D01*
X178000704Y-94669915D01*
X178180894Y-94235968D01*
X178181304Y-93766097D01*
X178178978Y-93760468D01*
X179219723Y-92719724D01*
X179379051Y-92481272D01*
X179387380Y-92439398D01*
X179435000Y-92200000D01*
X179435000Y-89970027D01*
X179460000Y-89975000D01*
X183870000Y-89975000D01*
X184151272Y-89919051D01*
X184389723Y-89759723D01*
X184867624Y-89281823D01*
X185026951Y-89043372D01*
X185082900Y-88762100D01*
X185082900Y-88087255D01*
X185097751Y-88072430D01*
X185177986Y-88152805D01*
X185611933Y-88332995D01*
X186081804Y-88333405D01*
X186516064Y-88153973D01*
X186597750Y-88072429D01*
X186667477Y-88142277D01*
X186668848Y-88149171D01*
X186828176Y-88387622D01*
X188390276Y-89949723D01*
X188628727Y-90109051D01*
X188665030Y-90116272D01*
X188910000Y-90165000D01*
X191045000Y-90165000D01*
X191045000Y-92140000D01*
X191089783Y-92365136D01*
X191100949Y-92421272D01*
X191260277Y-92659723D01*
X193014775Y-94414222D01*
X193014496Y-94733906D01*
X193193928Y-95168166D01*
X193275471Y-95249852D01*
X193195096Y-95330087D01*
X193014906Y-95764034D01*
X193014496Y-96233905D01*
X193193928Y-96668165D01*
X193275472Y-96749851D01*
X193260297Y-96765000D01*
X191870000Y-96765000D01*
X191597988Y-96819107D01*
X191588728Y-96820949D01*
X191350277Y-96980276D01*
X191060277Y-97270277D01*
X190900949Y-97508728D01*
X190845000Y-97790000D01*
X190845000Y-101030000D01*
X190894227Y-101277477D01*
X190900949Y-101311272D01*
X190903440Y-101315000D01*
X189030000Y-101315000D01*
X188795394Y-101361667D01*
X188748727Y-101370949D01*
X188510276Y-101530277D01*
X186873730Y-103166824D01*
X186613995Y-103166597D01*
X186179735Y-103346029D01*
X186098049Y-103427572D01*
X186017814Y-103347197D01*
X185583867Y-103167007D01*
X185113996Y-103166597D01*
X184679736Y-103346029D01*
X184598050Y-103427573D01*
X184582901Y-103412398D01*
X184582901Y-103017901D01*
X184526952Y-102736629D01*
X184480494Y-102667100D01*
X184367625Y-102498178D01*
X183409723Y-101540277D01*
X183171272Y-101380949D01*
X182890000Y-101325000D01*
X180100000Y-101325000D01*
X179869001Y-101370949D01*
X179818727Y-101380949D01*
X179580276Y-101540277D01*
X173358206Y-107762348D01*
X173199915Y-107603781D01*
X172486002Y-107307339D01*
X171712989Y-107306664D01*
X170998560Y-107601860D01*
X170451480Y-108147986D01*
X170155038Y-108861899D01*
X170154363Y-109634912D01*
X170449559Y-110349341D01*
X170995685Y-110896421D01*
X171709598Y-111192863D01*
X172482611Y-111193538D01*
X173135000Y-110923976D01*
X173135000Y-125140836D01*
X173055137Y-125333169D01*
X173054864Y-125645461D01*
X173174121Y-125934086D01*
X173394753Y-126155103D01*
X173683169Y-126274863D01*
X173995461Y-126275136D01*
X174284086Y-126155879D01*
X174505103Y-125935247D01*
X174624863Y-125646831D01*
X174625136Y-125334539D01*
X174605000Y-125285806D01*
X174605000Y-124135092D01*
X174645000Y-124135127D01*
X174645000Y-126180000D01*
X174645043Y-126180218D01*
X174644864Y-126385461D01*
X174764121Y-126674086D01*
X174984753Y-126895103D01*
X175273169Y-127014863D01*
X175585461Y-127015136D01*
X175874086Y-126895879D01*
X176095103Y-126675247D01*
X176214863Y-126386831D01*
X176215136Y-126074539D01*
X176115000Y-125832191D01*
X176115000Y-124256800D01*
X176184121Y-124424086D01*
X176404753Y-124645103D01*
X176693169Y-124764863D01*
X177005461Y-124765136D01*
X177294086Y-124645879D01*
X177515103Y-124425247D01*
X177565451Y-124303995D01*
X177589723Y-124279723D01*
X177749051Y-124041272D01*
X177764195Y-123965137D01*
X177805000Y-123760000D01*
X177805000Y-123375795D01*
X177923169Y-123424863D01*
X178235461Y-123425136D01*
X178524086Y-123305879D01*
X178585000Y-123245071D01*
X178585000Y-124521250D01*
X178555137Y-124593169D01*
X178554864Y-124905461D01*
X178674121Y-125194086D01*
X178894753Y-125415103D01*
X179183169Y-125534863D01*
X179495461Y-125535136D01*
X179784086Y-125415879D01*
X180005103Y-125195247D01*
X180124863Y-124906831D01*
X180125136Y-124594539D01*
X180055000Y-124424796D01*
X180055000Y-116203697D01*
X181794708Y-116203697D01*
X182050694Y-116823229D01*
X182524278Y-117297640D01*
X183143362Y-117554707D01*
X183813697Y-117555292D01*
X184433229Y-117299306D01*
X184907640Y-116825722D01*
X185164707Y-116206638D01*
X185165292Y-115536303D01*
X184909306Y-114916771D01*
X184435722Y-114442360D01*
X183816638Y-114185293D01*
X183146303Y-114184708D01*
X182526771Y-114440694D01*
X182052360Y-114914278D01*
X181795293Y-115533362D01*
X181794708Y-116203697D01*
X180055000Y-116203697D01*
X180055000Y-111233697D01*
X181714708Y-111233697D01*
X181970694Y-111853229D01*
X182444278Y-112327640D01*
X183063362Y-112584707D01*
X183733697Y-112585292D01*
X184353229Y-112329306D01*
X184827640Y-111855722D01*
X185084707Y-111236638D01*
X185085292Y-110566303D01*
X184829306Y-109946771D01*
X184355722Y-109472360D01*
X183736638Y-109215293D01*
X183066303Y-109214708D01*
X182446771Y-109470694D01*
X181972360Y-109944278D01*
X181715293Y-110563362D01*
X181714708Y-111233697D01*
X180055000Y-111233697D01*
X180055000Y-109464446D01*
X180374447Y-109145000D01*
X182560000Y-109145000D01*
X182841272Y-109089051D01*
X183079723Y-108929723D01*
X183483128Y-108526319D01*
X183581804Y-108526405D01*
X184016064Y-108346973D01*
X184097750Y-108265429D01*
X184177986Y-108345805D01*
X184611933Y-108525995D01*
X185081804Y-108526405D01*
X185516064Y-108346973D01*
X185597751Y-108265428D01*
X185677988Y-108345805D01*
X185773197Y-108385339D01*
X185828178Y-108467624D01*
X187570276Y-110209723D01*
X187808728Y-110369051D01*
X188090000Y-110425000D01*
X190305554Y-110425000D01*
X190935000Y-111054447D01*
X190935000Y-120533085D01*
X190885137Y-120653169D01*
X190884864Y-120965461D01*
X191004121Y-121254086D01*
X191224753Y-121475103D01*
X191513169Y-121594863D01*
X191605000Y-121594943D01*
X191605000Y-127814868D01*
X191479897Y-127939753D01*
X191360137Y-128228169D01*
X191359864Y-128540461D01*
X191479121Y-128829086D01*
X191699753Y-129050103D01*
X191988169Y-129169863D01*
X192300461Y-129170136D01*
X192335000Y-129155865D01*
X192335000Y-131147168D01*
X192295137Y-131243169D01*
X192294864Y-131555461D01*
X192414121Y-131844086D01*
X192634753Y-132065103D01*
X192923169Y-132184863D01*
X193235461Y-132185136D01*
X193524086Y-132065879D01*
X193745103Y-131845247D01*
X193864863Y-131556831D01*
X193865136Y-131244539D01*
X193805000Y-131098998D01*
X193805000Y-111558187D01*
X194013362Y-111644707D01*
X194683697Y-111645292D01*
X194945000Y-111537324D01*
X194945000Y-130247168D01*
X194905137Y-130343169D01*
X194904864Y-130655461D01*
X195024121Y-130944086D01*
X195244753Y-131165103D01*
X195533169Y-131284863D01*
X195845461Y-131285136D01*
X196134086Y-131165879D01*
X196155000Y-131145001D01*
X196155000Y-131824702D01*
X196124897Y-131854753D01*
X196005137Y-132143169D01*
X196004864Y-132455461D01*
X196124121Y-132744086D01*
X196344753Y-132965103D01*
X196633169Y-133084863D01*
X196945461Y-133085136D01*
X197234086Y-132965879D01*
X197455103Y-132745247D01*
X197535657Y-132551249D01*
X197569051Y-132501272D01*
X197625000Y-132220000D01*
X197625000Y-130232931D01*
X197884086Y-130125879D01*
X198105103Y-129905247D01*
X198224863Y-129616831D01*
X198225136Y-129304539D01*
X198165000Y-129158998D01*
X198165000Y-127685074D01*
X198235461Y-127685136D01*
X198524086Y-127565879D01*
X198745103Y-127345247D01*
X198864863Y-127056831D01*
X198865136Y-126744539D01*
X198775000Y-126526392D01*
X198775000Y-120720546D01*
X198795000Y-120620000D01*
X198775000Y-120519454D01*
X198775000Y-118084553D01*
X198858980Y-118287800D01*
X199459041Y-118888909D01*
X200243459Y-119214628D01*
X201092815Y-119215370D01*
X201877800Y-118891020D01*
X202478909Y-118290959D01*
X202804628Y-117506541D01*
X202805370Y-116657185D01*
X202481020Y-115872200D01*
X201880959Y-115271091D01*
X201096541Y-114945372D01*
X200247185Y-114944630D01*
X199462200Y-115268980D01*
X198861091Y-115869041D01*
X198775000Y-116076371D01*
X198775000Y-109076157D01*
X198920000Y-109105000D01*
X224365333Y-109105000D01*
X224413169Y-109124863D01*
X224725461Y-109125136D01*
X225014086Y-109005879D01*
X225235103Y-108785247D01*
X225354863Y-108496831D01*
X225354917Y-108435000D01*
X227914919Y-108435000D01*
X228083169Y-108504863D01*
X228395461Y-108505136D01*
X228684086Y-108385879D01*
X228905103Y-108165247D01*
X229024863Y-107876831D01*
X229025136Y-107564539D01*
X228905879Y-107275914D01*
X228685247Y-107054897D01*
X228396831Y-106935137D01*
X228084539Y-106934864D01*
X228011604Y-106965000D01*
X223954926Y-106965000D01*
X223954978Y-106905000D01*
X229477168Y-106905000D01*
X229573169Y-106944863D01*
X229885461Y-106945136D01*
X230174086Y-106825879D01*
X230395103Y-106605247D01*
X230514863Y-106316831D01*
X230515136Y-106004539D01*
X230395879Y-105715914D01*
X230175247Y-105494897D01*
X229886831Y-105375137D01*
X229574539Y-105374864D01*
X229428998Y-105435000D01*
X227974970Y-105435000D01*
X227975101Y-105285000D01*
X228907168Y-105285000D01*
X229003169Y-105324863D01*
X229315461Y-105325136D01*
X229604086Y-105205879D01*
X229825103Y-104985247D01*
X229944863Y-104696831D01*
X229945136Y-104384539D01*
X229825879Y-104095914D01*
X229605247Y-103874897D01*
X229316831Y-103755137D01*
X229004539Y-103754864D01*
X228858998Y-103815000D01*
X226194996Y-103815000D01*
X226195136Y-103654539D01*
X226075879Y-103365914D01*
X225855247Y-103144897D01*
X225566831Y-103025137D01*
X225254539Y-103024864D01*
X225157402Y-103065000D01*
X209572165Y-103065000D01*
X209491272Y-103010949D01*
X209210000Y-102955001D01*
X208928727Y-103010949D01*
X208847834Y-103065000D01*
X203265031Y-103065000D01*
X203265145Y-102934637D01*
X203165000Y-102692267D01*
X203165000Y-100105463D01*
X203284855Y-99816821D01*
X203285145Y-99484637D01*
X203158292Y-99177628D01*
X202923607Y-98942534D01*
X202616821Y-98815145D01*
X202284637Y-98814855D01*
X201977628Y-98941708D01*
X201742534Y-99176393D01*
X201615145Y-99483179D01*
X201614855Y-99815363D01*
X201695000Y-100009330D01*
X201695000Y-102692702D01*
X201595145Y-102933179D01*
X201595030Y-103065000D01*
X199914446Y-103065000D01*
X198945000Y-102095554D01*
X198945000Y-99020000D01*
X198889051Y-98738728D01*
X198856492Y-98690000D01*
X198729723Y-98500276D01*
X198373974Y-98144527D01*
X198374304Y-97766096D01*
X198194872Y-97331836D01*
X198113329Y-97250150D01*
X198193704Y-97169915D01*
X198373894Y-96735968D01*
X198374304Y-96266097D01*
X198194872Y-95831837D01*
X198151049Y-95787937D01*
X204064708Y-95787937D01*
X204320694Y-96407469D01*
X204794278Y-96881880D01*
X205413362Y-97138947D01*
X206083697Y-97139532D01*
X206703229Y-96883546D01*
X207177640Y-96409962D01*
X207434707Y-95790878D01*
X207435292Y-95120543D01*
X207179306Y-94501011D01*
X206705722Y-94026600D01*
X206086638Y-93769533D01*
X205416303Y-93768948D01*
X204796771Y-94024934D01*
X204322360Y-94498518D01*
X204065293Y-95117602D01*
X204064708Y-95787937D01*
X198151049Y-95787937D01*
X198113327Y-95750150D01*
X198193704Y-95669913D01*
X198373894Y-95235966D01*
X198374244Y-94835203D01*
X199569724Y-93639723D01*
X199589862Y-93609584D01*
X199744446Y-93455000D01*
X209829183Y-93455000D01*
X209980000Y-93484999D01*
X210130816Y-93455000D01*
X215158635Y-93455000D01*
X215410000Y-93505000D01*
X215661365Y-93455000D01*
X217456753Y-93455000D01*
X217673169Y-93544863D01*
X217985461Y-93545136D01*
X218274086Y-93425879D01*
X218495103Y-93205247D01*
X218614863Y-92916831D01*
X218615092Y-92655000D01*
X221244650Y-92655000D01*
X221244753Y-92655103D01*
X221533169Y-92774863D01*
X221845461Y-92775136D01*
X222134086Y-92655879D01*
X222355103Y-92435247D01*
X222474863Y-92146831D01*
X222475136Y-91834539D01*
X222355879Y-91545914D01*
X222135247Y-91324897D01*
X221846831Y-91205137D01*
X221720680Y-91205027D01*
X221620000Y-91185000D01*
X205061632Y-91185000D01*
X205293229Y-91089306D01*
X205767640Y-90615722D01*
X206024707Y-89996638D01*
X206025292Y-89326303D01*
X205859477Y-88925000D01*
X235579002Y-88925000D01*
X235723169Y-88984863D01*
X236035461Y-88985136D01*
X236324086Y-88865879D01*
X236545103Y-88645247D01*
X236664863Y-88356831D01*
X236665136Y-88044539D01*
X236640535Y-87985000D01*
X237229002Y-87985000D01*
X237373169Y-88044863D01*
X237685461Y-88045136D01*
X237974086Y-87925879D01*
X238195103Y-87705247D01*
X238314863Y-87416831D01*
X238315136Y-87104539D01*
X238195879Y-86815914D01*
X237975247Y-86594897D01*
X237686831Y-86475137D01*
X237374539Y-86474864D01*
X237277402Y-86515000D01*
X215024917Y-86515000D01*
X215025136Y-86264539D01*
X214938557Y-86055000D01*
X240057168Y-86055000D01*
X240153169Y-86094863D01*
X240465461Y-86095136D01*
X240616289Y-86032815D01*
X260194630Y-86032815D01*
X260518980Y-86817800D01*
X261119041Y-87418909D01*
X261903459Y-87744628D01*
X262752815Y-87745370D01*
X263537800Y-87421020D01*
X264138909Y-86820959D01*
X264464628Y-86036541D01*
X264465370Y-85187185D01*
X264141020Y-84402200D01*
X263540959Y-83801091D01*
X262756541Y-83475372D01*
X261907185Y-83474630D01*
X261122200Y-83798980D01*
X260521091Y-84399041D01*
X260195372Y-85183459D01*
X260194630Y-86032815D01*
X240616289Y-86032815D01*
X240754086Y-85975879D01*
X240975103Y-85755247D01*
X241094863Y-85466831D01*
X241095136Y-85154539D01*
X240975879Y-84865914D01*
X240755247Y-84644897D01*
X240466831Y-84525137D01*
X240154539Y-84524864D01*
X240008998Y-84585000D01*
X221075101Y-84585000D01*
X221075136Y-84544539D01*
X220955879Y-84255914D01*
X220735247Y-84034897D01*
X220446831Y-83915137D01*
X220134539Y-83914864D01*
X220110008Y-83925000D01*
X216604996Y-83925000D01*
X216605136Y-83764539D01*
X216485879Y-83475914D01*
X216265247Y-83254897D01*
X215976831Y-83135137D01*
X215664539Y-83134864D01*
X215640008Y-83145000D01*
X208840269Y-83145000D01*
X208790000Y-83135001D01*
X208739731Y-83145000D01*
X200830280Y-83145000D01*
X201040762Y-82638103D01*
X201041437Y-81865090D01*
X200746241Y-81150661D01*
X200200115Y-80603581D01*
X199486202Y-80307139D01*
X198713189Y-80306464D01*
X197998760Y-80601660D01*
X197985000Y-80615396D01*
X197985000Y-65754882D01*
X198275461Y-65755136D01*
X198564086Y-65635879D01*
X198585001Y-65615000D01*
X199533085Y-65615000D01*
X199653169Y-65664863D01*
X199965461Y-65665136D01*
X200254086Y-65545879D01*
X200475103Y-65325247D01*
X200594863Y-65036831D01*
X200595136Y-64724539D01*
X200475879Y-64435914D01*
X200255247Y-64214897D01*
X199966831Y-64095137D01*
X199654539Y-64094864D01*
X199533200Y-64145000D01*
X198210000Y-64145000D01*
X198009395Y-64184903D01*
X197985000Y-64184882D01*
X197985000Y-63487319D01*
X198003169Y-63494863D01*
X198315461Y-63495136D01*
X198604086Y-63375879D01*
X198715158Y-63265000D01*
X199993085Y-63265000D01*
X200113169Y-63314863D01*
X200425461Y-63315136D01*
X200714086Y-63195879D01*
X200935103Y-62975247D01*
X201054863Y-62686831D01*
X201055136Y-62374539D01*
X200935879Y-62085914D01*
X200715247Y-61864897D01*
X200426831Y-61745137D01*
X200114539Y-61744864D01*
X199993200Y-61795000D01*
X198340000Y-61795000D01*
X198109851Y-61840780D01*
X198058727Y-61850949D01*
X197985000Y-61900212D01*
X197985000Y-58889164D01*
X198064863Y-58696831D01*
X198065136Y-58384539D01*
X197945879Y-58095914D01*
X197725247Y-57874897D01*
X197436831Y-57755137D01*
X197124539Y-57754864D01*
X197095029Y-57767057D01*
X197095136Y-57644539D01*
X196975879Y-57355914D01*
X196755247Y-57134897D01*
X196625000Y-57080814D01*
X196625000Y-49280000D01*
X196569051Y-48998728D01*
X196409723Y-48760276D01*
X195775533Y-48126087D01*
X195725879Y-48005914D01*
X195505247Y-47784897D01*
X195216831Y-47665137D01*
X195155000Y-47665083D01*
X195155000Y-43155081D01*
X195224863Y-42986831D01*
X195225136Y-42674539D01*
X195105879Y-42385914D01*
X194885247Y-42164897D01*
X194596831Y-42045137D01*
X194284539Y-42044864D01*
X193995914Y-42164121D01*
X193774897Y-42384753D01*
X193655137Y-42673169D01*
X193654864Y-42985461D01*
X193685000Y-43058396D01*
X193685000Y-49235554D01*
X192685000Y-48235554D01*
X192685000Y-46176915D01*
X192734863Y-46056831D01*
X192735136Y-45744539D01*
X192615879Y-45455914D01*
X192395247Y-45234897D01*
X192106831Y-45115137D01*
X191794539Y-45114864D01*
X191505914Y-45234121D01*
X191284897Y-45454753D01*
X191165137Y-45743169D01*
X191164864Y-46055461D01*
X191215000Y-46176800D01*
X191215000Y-48540000D01*
X191238870Y-48660000D01*
X191270949Y-48821272D01*
X191430277Y-49059723D01*
X193785000Y-51414447D01*
X193785000Y-58535039D01*
X193584539Y-58534864D01*
X193295914Y-58654121D01*
X193074897Y-58874753D01*
X192955137Y-59163169D01*
X192954864Y-59475461D01*
X193005000Y-59596800D01*
X193005000Y-81255720D01*
X192510990Y-81615000D01*
X188890000Y-81615000D01*
X188806740Y-81631562D01*
X188721902Y-81634481D01*
X188667428Y-81659273D01*
X188608728Y-81670949D01*
X188538146Y-81718110D01*
X188460880Y-81753275D01*
X188420039Y-81797027D01*
X188370277Y-81830277D01*
X188323116Y-81900858D01*
X188265188Y-81962915D01*
X187639034Y-82973619D01*
X187613996Y-82973597D01*
X187179736Y-83153029D01*
X187098050Y-83234573D01*
X187017814Y-83154197D01*
X186583867Y-82974007D01*
X186113996Y-82973597D01*
X185679736Y-83153029D01*
X185598049Y-83234574D01*
X185582899Y-83219398D01*
X185582899Y-83087899D01*
X185526950Y-82806627D01*
X185489298Y-82750277D01*
X185367622Y-82568175D01*
X183855000Y-81055554D01*
X183855000Y-73243697D01*
X185864708Y-73243697D01*
X186120694Y-73863229D01*
X186594278Y-74337640D01*
X187213362Y-74594707D01*
X187883697Y-74595292D01*
X188503229Y-74339306D01*
X188977640Y-73865722D01*
X189234707Y-73246638D01*
X189235292Y-72576303D01*
X188979306Y-71956771D01*
X188505722Y-71482360D01*
X187886638Y-71225293D01*
X187216303Y-71224708D01*
X186596771Y-71480694D01*
X186122360Y-71954278D01*
X185865293Y-72573362D01*
X185864708Y-73243697D01*
X183855000Y-73243697D01*
X183855000Y-57278750D01*
X183884863Y-57206831D01*
X183885136Y-56894539D01*
X183765879Y-56605914D01*
X183545247Y-56384897D01*
X183256831Y-56265137D01*
X182944539Y-56264864D01*
X182655914Y-56384121D01*
X182585000Y-56454911D01*
X182585000Y-54352832D01*
X182624863Y-54256831D01*
X182625136Y-53944539D01*
X182505879Y-53655914D01*
X182285247Y-53434897D01*
X181996831Y-53315137D01*
X181684539Y-53314864D01*
X181405000Y-53430367D01*
X181405000Y-50426915D01*
X181454863Y-50306831D01*
X181455136Y-49994539D01*
X181335879Y-49705914D01*
X181115247Y-49484897D01*
X180826831Y-49365137D01*
X180514539Y-49364864D01*
X180225914Y-49484121D01*
X180004897Y-49704753D01*
X179885137Y-49993169D01*
X179884864Y-50305461D01*
X179935000Y-50426800D01*
X179935000Y-71252733D01*
X179885000Y-71177902D01*
X179885000Y-51642832D01*
X179924863Y-51546831D01*
X179925136Y-51234539D01*
X179805879Y-50945914D01*
X179585247Y-50724897D01*
X179296831Y-50605137D01*
X178984539Y-50604864D01*
X178695914Y-50724121D01*
X178474897Y-50944753D01*
X178355137Y-51233169D01*
X178354864Y-51545461D01*
X178415000Y-51691002D01*
X178415000Y-84070000D01*
X178465815Y-84325461D01*
X178470949Y-84351272D01*
X178630277Y-84589723D01*
X178640276Y-84599723D01*
X178822188Y-84721272D01*
X178878728Y-84759051D01*
X179160000Y-84815000D01*
X179986868Y-84815000D01*
X179908329Y-84893539D01*
X180024296Y-85009506D01*
X179804434Y-85052359D01*
X179653816Y-85497435D01*
X179664956Y-85665000D01*
X179614447Y-85665000D01*
X178065000Y-84115554D01*
X178065000Y-55444667D01*
X178084863Y-55396831D01*
X178085136Y-55084539D01*
X177965879Y-54795914D01*
X177745247Y-54574897D01*
X177456831Y-54455137D01*
X177144539Y-54454864D01*
X177065000Y-54487729D01*
X177065000Y-48936915D01*
X177114863Y-48816831D01*
X177115136Y-48504539D01*
X176995879Y-48215914D01*
X176775247Y-47994897D01*
X176486831Y-47875137D01*
X176174539Y-47874864D01*
X175885914Y-47994121D01*
X175664897Y-48214753D01*
X175545137Y-48503169D01*
X175544864Y-48815461D01*
X175595000Y-48936800D01*
X175595000Y-52214719D01*
X175555247Y-52174897D01*
X175266831Y-52055137D01*
X174954539Y-52054864D01*
X174665914Y-52174121D01*
X174444897Y-52394753D01*
X174325137Y-52683169D01*
X174324864Y-52995461D01*
X174375000Y-53116800D01*
X174375000Y-55235135D01*
X174064539Y-55234864D01*
X173775914Y-55354121D01*
X173554897Y-55574753D01*
X173435137Y-55863169D01*
X173434864Y-56175461D01*
X173505000Y-56345204D01*
X173505000Y-83365000D01*
X169747199Y-83365000D01*
X169681272Y-83320949D01*
X169400000Y-83265001D01*
X169118728Y-83320949D01*
X169095842Y-83336241D01*
X151588317Y-83394502D01*
X151440000Y-83365000D01*
X148820000Y-83365000D01*
X148772872Y-83374374D01*
X148724935Y-83371175D01*
X148633452Y-83402107D01*
X148538728Y-83420949D01*
X148498778Y-83447643D01*
X148453261Y-83463033D01*
X148380575Y-83526624D01*
X148300277Y-83580277D01*
X148273583Y-83620227D01*
X148237421Y-83651864D01*
X148194602Y-83738430D01*
X148140949Y-83818728D01*
X148131576Y-83865851D01*
X148110272Y-83908920D01*
X148040272Y-84168919D01*
X148033840Y-84265284D01*
X148015000Y-84360000D01*
X148015000Y-86335553D01*
X140805533Y-79126087D01*
X140755879Y-79005914D01*
X140535247Y-78784897D01*
X140246831Y-78665137D01*
X139934539Y-78664864D01*
X139645914Y-78784121D01*
X139424897Y-79004753D01*
X139305137Y-79293169D01*
X139304864Y-79605461D01*
X139424121Y-79894086D01*
X139544741Y-80014917D01*
X139484539Y-80014864D01*
X139195914Y-80134121D01*
X138974897Y-80354753D01*
X138855137Y-80643169D01*
X138854864Y-80955461D01*
X138974121Y-81244086D01*
X139194753Y-81465103D01*
X139316005Y-81515451D01*
X141369485Y-83568931D01*
X141235914Y-83624121D01*
X141014897Y-83844753D01*
X140895137Y-84133169D01*
X140894864Y-84445461D01*
X141014121Y-84734086D01*
X141234753Y-84955103D01*
X141356005Y-85005451D01*
X141515576Y-85165022D01*
X141334539Y-85164864D01*
X141045914Y-85284121D01*
X140824897Y-85504753D01*
X140715915Y-85767213D01*
X140686831Y-85755137D01*
X140374539Y-85754864D01*
X140085914Y-85874121D01*
X139864897Y-86094753D01*
X139745137Y-86383169D01*
X139744864Y-86695461D01*
X139864121Y-86984086D01*
X140084753Y-87205103D01*
X140206005Y-87255451D01*
X141734399Y-88783845D01*
X141515914Y-88874121D01*
X141294897Y-89094753D01*
X141175137Y-89383169D01*
X141174864Y-89695461D01*
X141260776Y-89903384D01*
X141216831Y-89885137D01*
X140904539Y-89884864D01*
X140615914Y-90004121D01*
X140394897Y-90224753D01*
X140275137Y-90513169D01*
X140274864Y-90825461D01*
X140394121Y-91114086D01*
X140485000Y-91205124D01*
X140485000Y-92145065D01*
X140254539Y-92144864D01*
X139965914Y-92264121D01*
X139744897Y-92484753D01*
X139625137Y-92773169D01*
X139624864Y-93085461D01*
X139655000Y-93158396D01*
X139655000Y-94105100D01*
X139384539Y-94104864D01*
X139095914Y-94224121D01*
X138874897Y-94444753D01*
X138755137Y-94733169D01*
X138754864Y-95045461D01*
X138874121Y-95334086D01*
X138905000Y-95365019D01*
X138905000Y-95418357D01*
X138776831Y-95365137D01*
X138464539Y-95364864D01*
X138175914Y-95484121D01*
X137954897Y-95704753D01*
X137835137Y-95993169D01*
X137834864Y-96305461D01*
X137954121Y-96594086D01*
X138075000Y-96715176D01*
X138075000Y-120560000D01*
X138110616Y-120739051D01*
X138130949Y-120841272D01*
X138290277Y-121079723D01*
X138724467Y-121513914D01*
X138774121Y-121634086D01*
X138994753Y-121855103D01*
X139283169Y-121974863D01*
X139595461Y-121975136D01*
X139884086Y-121855879D01*
X140105103Y-121635247D01*
X140167531Y-121484902D01*
X140435461Y-121485136D01*
X140724086Y-121365879D01*
X140945103Y-121145247D01*
X141024135Y-120954916D01*
X141275461Y-120955136D01*
X141564086Y-120835879D01*
X141785103Y-120615247D01*
X141904863Y-120326831D01*
X141905083Y-120075710D01*
X142074086Y-120005879D01*
X142295103Y-119785247D01*
X142390709Y-119555001D01*
X142545461Y-119555136D01*
X142834086Y-119435879D01*
X143055103Y-119215247D01*
X143059340Y-119205043D01*
X143165461Y-119205136D01*
X143454086Y-119085879D01*
X143675103Y-118865247D01*
X143758235Y-118665042D01*
X143865461Y-118665136D01*
X144154086Y-118545879D01*
X144345000Y-118355298D01*
X144345000Y-118915553D01*
X139975554Y-123285000D01*
X94734447Y-123285000D01*
X91855000Y-120405554D01*
X91855000Y-117742510D01*
X129529780Y-117742510D01*
X129722718Y-118209458D01*
X130079663Y-118567026D01*
X130546273Y-118760779D01*
X131051510Y-118761220D01*
X131518458Y-118568282D01*
X131876026Y-118211337D01*
X132069779Y-117744727D01*
X132070220Y-117239490D01*
X131877282Y-116772542D01*
X131520337Y-116414974D01*
X131053727Y-116221221D01*
X130548490Y-116220780D01*
X130081542Y-116413718D01*
X129723974Y-116770663D01*
X129530221Y-117237273D01*
X129529780Y-117742510D01*
X91855000Y-117742510D01*
X91855000Y-110625461D01*
X104964864Y-110625461D01*
X105084121Y-110914086D01*
X105304753Y-111135103D01*
X105472872Y-111204912D01*
X105585665Y-111280277D01*
X105628728Y-111309051D01*
X105910000Y-111365000D01*
X124129903Y-111365000D01*
X124129834Y-111444128D01*
X124274918Y-111795258D01*
X124369425Y-111889930D01*
X124275862Y-111983329D01*
X124130166Y-112334205D01*
X124129834Y-112714128D01*
X124274918Y-113065258D01*
X124369425Y-113159930D01*
X124275862Y-113253329D01*
X124130166Y-113604205D01*
X124129834Y-113984128D01*
X124274918Y-114335258D01*
X124369425Y-114429930D01*
X124275862Y-114523329D01*
X124130166Y-114874205D01*
X124129834Y-115254128D01*
X124274918Y-115605258D01*
X124543329Y-115874138D01*
X124894205Y-116019834D01*
X125274128Y-116020166D01*
X125625258Y-115875082D01*
X125719930Y-115780575D01*
X125813329Y-115874138D01*
X126164205Y-116019834D01*
X126544128Y-116020166D01*
X126895258Y-115875082D01*
X126989930Y-115780575D01*
X127083329Y-115874138D01*
X127434205Y-116019834D01*
X127814128Y-116020166D01*
X128165258Y-115875082D01*
X128259930Y-115780575D01*
X128353329Y-115874138D01*
X128704205Y-116019834D01*
X129084128Y-116020166D01*
X129435258Y-115875082D01*
X129529930Y-115780575D01*
X129623329Y-115874138D01*
X129974205Y-116019834D01*
X130354128Y-116020166D01*
X130705258Y-115875082D01*
X130799930Y-115780575D01*
X130893329Y-115874138D01*
X131244205Y-116019834D01*
X131624128Y-116020166D01*
X131975258Y-115875082D01*
X132069930Y-115780575D01*
X132163329Y-115874138D01*
X132514205Y-116019834D01*
X132894128Y-116020166D01*
X133245258Y-115875082D01*
X133339930Y-115780575D01*
X133433329Y-115874138D01*
X133784205Y-116019834D01*
X134164128Y-116020166D01*
X134515258Y-115875082D01*
X134609930Y-115780575D01*
X134703329Y-115874138D01*
X135054205Y-116019834D01*
X135434128Y-116020166D01*
X135785258Y-115875082D01*
X135879930Y-115780575D01*
X135973329Y-115874138D01*
X136324205Y-116019834D01*
X136704128Y-116020166D01*
X137055258Y-115875082D01*
X137324138Y-115606671D01*
X137469834Y-115255795D01*
X137470166Y-114875872D01*
X137325082Y-114524742D01*
X137230575Y-114430070D01*
X137324138Y-114336671D01*
X137469834Y-113985795D01*
X137470166Y-113605872D01*
X137325082Y-113254742D01*
X137230575Y-113160070D01*
X137324138Y-113066671D01*
X137469834Y-112715795D01*
X137470166Y-112335872D01*
X137325082Y-111984742D01*
X137230575Y-111890070D01*
X137324138Y-111796671D01*
X137469834Y-111445795D01*
X137470166Y-111065872D01*
X137325082Y-110714742D01*
X137230575Y-110620070D01*
X137324138Y-110526671D01*
X137469834Y-110175795D01*
X137470166Y-109795872D01*
X137325082Y-109444742D01*
X137230575Y-109350070D01*
X137324138Y-109256671D01*
X137469834Y-108905795D01*
X137470166Y-108525872D01*
X137325082Y-108174742D01*
X137230575Y-108080070D01*
X137324138Y-107986671D01*
X137469834Y-107635795D01*
X137470166Y-107255872D01*
X137325082Y-106904742D01*
X137230575Y-106810070D01*
X137324138Y-106716671D01*
X137469834Y-106365795D01*
X137470166Y-105985872D01*
X137325082Y-105634742D01*
X137230575Y-105540070D01*
X137324138Y-105446671D01*
X137469834Y-105095795D01*
X137470166Y-104715872D01*
X137325082Y-104364742D01*
X137230575Y-104270070D01*
X137324138Y-104176671D01*
X137469834Y-103825795D01*
X137470166Y-103445872D01*
X137325082Y-103094742D01*
X137230575Y-103000070D01*
X137324138Y-102906671D01*
X137469834Y-102555795D01*
X137470166Y-102175872D01*
X137325082Y-101824742D01*
X137230575Y-101730070D01*
X137324138Y-101636671D01*
X137469834Y-101285795D01*
X137470166Y-100905872D01*
X137325082Y-100554742D01*
X137230575Y-100460070D01*
X137324138Y-100366671D01*
X137469834Y-100015795D01*
X137470166Y-99635872D01*
X137325082Y-99284742D01*
X137230575Y-99190070D01*
X137324138Y-99096671D01*
X137469834Y-98745795D01*
X137470166Y-98365872D01*
X137325082Y-98014742D01*
X137230575Y-97920070D01*
X137324138Y-97826671D01*
X137469834Y-97475795D01*
X137470166Y-97095872D01*
X137325082Y-96744742D01*
X137230575Y-96650070D01*
X137324138Y-96556671D01*
X137469834Y-96205795D01*
X137470166Y-95825872D01*
X137325082Y-95474742D01*
X137230575Y-95380070D01*
X137324138Y-95286671D01*
X137469834Y-94935795D01*
X137470166Y-94555872D01*
X137325082Y-94204742D01*
X137230575Y-94110070D01*
X137324138Y-94016671D01*
X137469834Y-93665795D01*
X137470166Y-93285872D01*
X137325082Y-92934742D01*
X137230575Y-92840070D01*
X137324138Y-92746671D01*
X137469834Y-92395795D01*
X137470166Y-92015872D01*
X137325082Y-91664742D01*
X137230575Y-91570070D01*
X137324138Y-91476671D01*
X137469834Y-91125795D01*
X137470166Y-90745872D01*
X137325082Y-90394742D01*
X137230575Y-90300070D01*
X137324138Y-90206671D01*
X137469834Y-89855795D01*
X137470166Y-89475872D01*
X137325082Y-89124742D01*
X137230575Y-89030070D01*
X137324138Y-88936671D01*
X137469834Y-88585795D01*
X137470166Y-88205872D01*
X137325082Y-87854742D01*
X137230575Y-87760070D01*
X137324138Y-87666671D01*
X137469834Y-87315795D01*
X137470166Y-86935872D01*
X137325082Y-86584742D01*
X137230575Y-86490070D01*
X137324138Y-86396671D01*
X137469834Y-86045795D01*
X137470166Y-85665872D01*
X137325082Y-85314742D01*
X137230575Y-85220070D01*
X137324138Y-85126671D01*
X137469834Y-84775795D01*
X137470166Y-84395872D01*
X137325082Y-84044742D01*
X137230575Y-83950070D01*
X137324138Y-83856671D01*
X137469834Y-83505795D01*
X137470166Y-83125872D01*
X137325082Y-82774742D01*
X137230575Y-82680070D01*
X137324138Y-82586671D01*
X137469834Y-82235795D01*
X137470166Y-81855872D01*
X137325082Y-81504742D01*
X137230575Y-81410070D01*
X137324138Y-81316671D01*
X137469834Y-80965795D01*
X137470166Y-80585872D01*
X137325082Y-80234742D01*
X137230575Y-80140070D01*
X137324138Y-80046671D01*
X137469834Y-79695795D01*
X137470166Y-79315872D01*
X137325082Y-78964742D01*
X137230575Y-78870070D01*
X137324138Y-78776671D01*
X137469834Y-78425795D01*
X137470166Y-78045872D01*
X137325082Y-77694742D01*
X137230575Y-77600070D01*
X137324138Y-77506671D01*
X137469834Y-77155795D01*
X137470166Y-76775872D01*
X137325082Y-76424742D01*
X137230575Y-76330070D01*
X137324138Y-76236671D01*
X137469834Y-75885795D01*
X137470166Y-75505872D01*
X137325082Y-75154742D01*
X137230575Y-75060070D01*
X137324138Y-74966671D01*
X137469834Y-74615795D01*
X137470166Y-74235872D01*
X137325082Y-73884742D01*
X137230575Y-73790070D01*
X137324138Y-73696671D01*
X137469834Y-73345795D01*
X137470166Y-72965872D01*
X137325082Y-72614742D01*
X137230575Y-72520070D01*
X137324138Y-72426671D01*
X137469834Y-72075795D01*
X137470166Y-71695872D01*
X137325082Y-71344742D01*
X137230575Y-71250070D01*
X137324138Y-71156671D01*
X137469834Y-70805795D01*
X137470166Y-70425872D01*
X137325082Y-70074742D01*
X137230575Y-69980070D01*
X137324138Y-69886671D01*
X137469834Y-69535795D01*
X137470166Y-69155872D01*
X137370102Y-68913697D01*
X166034708Y-68913697D01*
X166290694Y-69533229D01*
X166764278Y-70007640D01*
X167383362Y-70264707D01*
X168053697Y-70265292D01*
X168673229Y-70009306D01*
X169147640Y-69535722D01*
X169404707Y-68916638D01*
X169405292Y-68246303D01*
X169149306Y-67626771D01*
X168675722Y-67152360D01*
X168056638Y-66895293D01*
X167386303Y-66894708D01*
X166766771Y-67150694D01*
X166292360Y-67624278D01*
X166035293Y-68243362D01*
X166034708Y-68913697D01*
X137370102Y-68913697D01*
X137325082Y-68804742D01*
X137230575Y-68710070D01*
X137324138Y-68616671D01*
X137469834Y-68265795D01*
X137470166Y-67885872D01*
X137325082Y-67534742D01*
X137230575Y-67440070D01*
X137324138Y-67346671D01*
X137469834Y-66995795D01*
X137470166Y-66615872D01*
X137325082Y-66264742D01*
X137230575Y-66170070D01*
X137324138Y-66076671D01*
X137469834Y-65725795D01*
X137470166Y-65345872D01*
X137325082Y-64994742D01*
X137056671Y-64725862D01*
X136705795Y-64580166D01*
X136325872Y-64579834D01*
X135974742Y-64724918D01*
X135880070Y-64819425D01*
X135786671Y-64725862D01*
X135435795Y-64580166D01*
X135055872Y-64579834D01*
X134704742Y-64724918D01*
X134610070Y-64819425D01*
X134516671Y-64725862D01*
X134165795Y-64580166D01*
X133785872Y-64579834D01*
X133434742Y-64724918D01*
X133340070Y-64819425D01*
X133246671Y-64725862D01*
X132895795Y-64580166D01*
X132515872Y-64579834D01*
X132164742Y-64724918D01*
X132070070Y-64819425D01*
X131976671Y-64725862D01*
X131625795Y-64580166D01*
X131245872Y-64579834D01*
X130894742Y-64724918D01*
X130800070Y-64819425D01*
X130706671Y-64725862D01*
X130355795Y-64580166D01*
X129975872Y-64579834D01*
X129624742Y-64724918D01*
X129530070Y-64819425D01*
X129436671Y-64725862D01*
X129085795Y-64580166D01*
X128705872Y-64579834D01*
X128354742Y-64724918D01*
X128260070Y-64819425D01*
X128166671Y-64725862D01*
X127815795Y-64580166D01*
X127435872Y-64579834D01*
X127084742Y-64724918D01*
X126990070Y-64819425D01*
X126896671Y-64725862D01*
X126545795Y-64580166D01*
X126165872Y-64579834D01*
X125814742Y-64724918D01*
X125720070Y-64819425D01*
X125626671Y-64725862D01*
X125275795Y-64580166D01*
X124895872Y-64579834D01*
X124544742Y-64724918D01*
X124275862Y-64993329D01*
X124130166Y-65344205D01*
X124129834Y-65724128D01*
X124274918Y-66075258D01*
X124369425Y-66169930D01*
X124275862Y-66263329D01*
X124130166Y-66614205D01*
X124129834Y-66994128D01*
X124274918Y-67345258D01*
X124369425Y-67439930D01*
X124275862Y-67533329D01*
X124130166Y-67884205D01*
X124129834Y-68264128D01*
X124274918Y-68615258D01*
X124369425Y-68709930D01*
X124275862Y-68803329D01*
X124130166Y-69154205D01*
X124129834Y-69534128D01*
X124274918Y-69885258D01*
X124369425Y-69979930D01*
X124275862Y-70073329D01*
X124130166Y-70424205D01*
X124129834Y-70804128D01*
X124274918Y-71155258D01*
X124369425Y-71249930D01*
X124275862Y-71343329D01*
X124130166Y-71694205D01*
X124129834Y-72074128D01*
X124274918Y-72425258D01*
X124369425Y-72519930D01*
X124275862Y-72613329D01*
X124130166Y-72964205D01*
X124129834Y-73344128D01*
X124274918Y-73695258D01*
X124369425Y-73789930D01*
X124275862Y-73883329D01*
X124130166Y-74234205D01*
X124129834Y-74614128D01*
X124274918Y-74965258D01*
X124369425Y-75059930D01*
X124275862Y-75153329D01*
X124130166Y-75504205D01*
X124129834Y-75884128D01*
X124274918Y-76235258D01*
X124369425Y-76329930D01*
X124275862Y-76423329D01*
X124130166Y-76774205D01*
X124129834Y-77154128D01*
X124274918Y-77505258D01*
X124369425Y-77599930D01*
X124275862Y-77693329D01*
X124130166Y-78044205D01*
X124129834Y-78424128D01*
X124274918Y-78775258D01*
X124369425Y-78869930D01*
X124275862Y-78963329D01*
X124130166Y-79314205D01*
X124130095Y-79395000D01*
X117100000Y-79395000D01*
X116823499Y-79450000D01*
X116818728Y-79450949D01*
X116580276Y-79610277D01*
X112950277Y-83240277D01*
X112790949Y-83478728D01*
X112735000Y-83760000D01*
X112735000Y-83893085D01*
X112685137Y-84013169D01*
X112684864Y-84325461D01*
X112804121Y-84614086D01*
X113024753Y-84835103D01*
X113313169Y-84954863D01*
X113625461Y-84955136D01*
X113898888Y-84842159D01*
X113908145Y-84848344D01*
X113994753Y-84935103D01*
X114108965Y-84982528D01*
X114118728Y-84989051D01*
X114130143Y-84991322D01*
X114283169Y-85054863D01*
X114595461Y-85055136D01*
X114609204Y-85049457D01*
X114664753Y-85105103D01*
X114953169Y-85224863D01*
X115265461Y-85225136D01*
X115554086Y-85105879D01*
X115775103Y-84885247D01*
X115839652Y-84729794D01*
X115884447Y-84685000D01*
X124129912Y-84685000D01*
X124129834Y-84774128D01*
X124274918Y-85125258D01*
X124369425Y-85219930D01*
X124275862Y-85313329D01*
X124130166Y-85664205D01*
X124130097Y-85742813D01*
X123940000Y-85705000D01*
X115656915Y-85705000D01*
X115536831Y-85655137D01*
X115224539Y-85654864D01*
X114935914Y-85774121D01*
X114714897Y-85994753D01*
X114595137Y-86283169D01*
X114594864Y-86595461D01*
X114714121Y-86884086D01*
X114934753Y-87105103D01*
X115223169Y-87224863D01*
X115535461Y-87225136D01*
X115656800Y-87175000D01*
X115725033Y-87175000D01*
X115504897Y-87394753D01*
X115385137Y-87683169D01*
X115384864Y-87995461D01*
X115504121Y-88284086D01*
X115724753Y-88505103D01*
X116013169Y-88624863D01*
X116325461Y-88625136D01*
X116614086Y-88505879D01*
X116645019Y-88475000D01*
X124129929Y-88475000D01*
X124129834Y-88584128D01*
X124274918Y-88935258D01*
X124369425Y-89029930D01*
X124275862Y-89123329D01*
X124130166Y-89474205D01*
X124130087Y-89565000D01*
X117040000Y-89565000D01*
X116989685Y-89575008D01*
X116824539Y-89574864D01*
X116535914Y-89694121D01*
X116314897Y-89914753D01*
X116195137Y-90203169D01*
X116194864Y-90515461D01*
X116314121Y-90804086D01*
X116534753Y-91025103D01*
X116823169Y-91144863D01*
X117135461Y-91145136D01*
X117141647Y-91142580D01*
X117025137Y-91423169D01*
X117024864Y-91735461D01*
X117144121Y-92024086D01*
X117364753Y-92245103D01*
X117653169Y-92364863D01*
X117965461Y-92365136D01*
X118086800Y-92315000D01*
X121670000Y-92315000D01*
X121770546Y-92295000D01*
X124129921Y-92295000D01*
X124129834Y-92394128D01*
X124274918Y-92745258D01*
X124369425Y-92839930D01*
X124275862Y-92933329D01*
X124130166Y-93284205D01*
X124130069Y-93395000D01*
X118965081Y-93395000D01*
X118796831Y-93325137D01*
X118484539Y-93324864D01*
X118195914Y-93444121D01*
X117974897Y-93664753D01*
X117855137Y-93953169D01*
X117854864Y-94265461D01*
X117974121Y-94554086D01*
X118194753Y-94775103D01*
X118483169Y-94894863D01*
X118795461Y-94895136D01*
X118868396Y-94865000D01*
X119214876Y-94865000D01*
X119084897Y-94994753D01*
X118965137Y-95283169D01*
X118964864Y-95595461D01*
X119084121Y-95884086D01*
X119304753Y-96105103D01*
X119593169Y-96224863D01*
X119905461Y-96225136D01*
X120172011Y-96115000D01*
X124129912Y-96115000D01*
X124129834Y-96204128D01*
X124274918Y-96555258D01*
X124369425Y-96649930D01*
X124275862Y-96743329D01*
X124130166Y-97094205D01*
X124130095Y-97175000D01*
X110020000Y-97175000D01*
X109969727Y-97185000D01*
X109340000Y-97185000D01*
X109089211Y-97234886D01*
X109064539Y-97234864D01*
X108775914Y-97354121D01*
X108554897Y-97574753D01*
X108435137Y-97863169D01*
X108434864Y-98175461D01*
X108554121Y-98464086D01*
X108774753Y-98685103D01*
X109063169Y-98804863D01*
X109304002Y-98805074D01*
X109205137Y-99043169D01*
X109204864Y-99355461D01*
X109324121Y-99644086D01*
X109544753Y-99865103D01*
X109833169Y-99984863D01*
X110145461Y-99985136D01*
X110266800Y-99935000D01*
X124129903Y-99935000D01*
X124129834Y-100014128D01*
X124274918Y-100365258D01*
X124369425Y-100459930D01*
X124275862Y-100553329D01*
X124130166Y-100904205D01*
X124130069Y-101015000D01*
X107502832Y-101015000D01*
X107406831Y-100975137D01*
X107094539Y-100974864D01*
X106805914Y-101094121D01*
X106584897Y-101314753D01*
X106465137Y-101603169D01*
X106464864Y-101915461D01*
X106584121Y-102204086D01*
X106644929Y-102265000D01*
X106546915Y-102265000D01*
X106426831Y-102215137D01*
X106114539Y-102214864D01*
X105825914Y-102334121D01*
X105604897Y-102554753D01*
X105485137Y-102843169D01*
X105484864Y-103155461D01*
X105604121Y-103444086D01*
X105824753Y-103665103D01*
X106113169Y-103784863D01*
X106425461Y-103785136D01*
X106546800Y-103735000D01*
X124129912Y-103735000D01*
X124129834Y-103824128D01*
X124274918Y-104175258D01*
X124369425Y-104269930D01*
X124275862Y-104363329D01*
X124130166Y-104714205D01*
X124130087Y-104805000D01*
X106607329Y-104805000D01*
X106366831Y-104705137D01*
X106054539Y-104704864D01*
X105765914Y-104824121D01*
X105544897Y-105044753D01*
X105425137Y-105333169D01*
X105424864Y-105645461D01*
X105544121Y-105934086D01*
X105764753Y-106155103D01*
X106053169Y-106274863D01*
X106365461Y-106275136D01*
X106365790Y-106275000D01*
X124129912Y-106275000D01*
X124129834Y-106364128D01*
X124274918Y-106715258D01*
X124369425Y-106809930D01*
X124275862Y-106903329D01*
X124130166Y-107254205D01*
X124129834Y-107634128D01*
X124274918Y-107985258D01*
X124369425Y-108079930D01*
X124275862Y-108173329D01*
X124130166Y-108524205D01*
X124130078Y-108625000D01*
X106326915Y-108625000D01*
X106206831Y-108575137D01*
X105894539Y-108574864D01*
X105605914Y-108694121D01*
X105384897Y-108914753D01*
X105265137Y-109203169D01*
X105264864Y-109515461D01*
X105372728Y-109776514D01*
X105305914Y-109804121D01*
X105084897Y-110024753D01*
X104965137Y-110313169D01*
X104964864Y-110625461D01*
X91855000Y-110625461D01*
X91855000Y-67774447D01*
X91899724Y-67729723D01*
X92059051Y-67491272D01*
X92059269Y-67490177D01*
X96186936Y-63362510D01*
X132579780Y-63362510D01*
X132772718Y-63829458D01*
X133129663Y-64187026D01*
X133596273Y-64380779D01*
X134101510Y-64381220D01*
X134568458Y-64188282D01*
X134926026Y-63831337D01*
X135119779Y-63364727D01*
X135120220Y-62859490D01*
X134927282Y-62392542D01*
X134570337Y-62034974D01*
X134103727Y-61841221D01*
X133598490Y-61840780D01*
X133131542Y-62033718D01*
X132773974Y-62390663D01*
X132580221Y-62857273D01*
X132579780Y-63362510D01*
X96186936Y-63362510D01*
X101964447Y-57585000D01*
X122915554Y-57585000D01*
X126914467Y-61583914D01*
X126964121Y-61704086D01*
X127184753Y-61925103D01*
X127473169Y-62044863D01*
X127785461Y-62045136D01*
X128074086Y-61925879D01*
X128295103Y-61705247D01*
X128311818Y-61664993D01*
X128475461Y-61665136D01*
X128764086Y-61545879D01*
X128985103Y-61325247D01*
X129104863Y-61036831D01*
X129105136Y-60724539D01*
X128985879Y-60435914D01*
X128765247Y-60214897D01*
X128643997Y-60164550D01*
X123979723Y-55500277D01*
X123741272Y-55340949D01*
X123460000Y-55285000D01*
X101190000Y-55285000D01*
X100908728Y-55340949D01*
X100670277Y-55500276D01*
X89620277Y-66550277D01*
X89460949Y-66788728D01*
X89405000Y-67070000D01*
X87445000Y-67070000D01*
X87445000Y-67004446D01*
X99304447Y-55145000D01*
X123985554Y-55145000D01*
X129704467Y-60863914D01*
X129754121Y-60984086D01*
X129974753Y-61205103D01*
X130263169Y-61324863D01*
X130575461Y-61325136D01*
X130864086Y-61205879D01*
X131085103Y-60985247D01*
X131204863Y-60696831D01*
X131205136Y-60384539D01*
X131085879Y-60095914D01*
X130865247Y-59874897D01*
X130743997Y-59824550D01*
X124809723Y-53890277D01*
X124571272Y-53730949D01*
X124290000Y-53675000D01*
X99000000Y-53675000D01*
X98718728Y-53730949D01*
X98480277Y-53890276D01*
X86190277Y-66180277D01*
X86030949Y-66418728D01*
X85975000Y-66700000D01*
X84139446Y-66700000D01*
X99424447Y-51415000D01*
X125165554Y-51415000D01*
X138635000Y-64884447D01*
X138635000Y-66029002D01*
X138575137Y-66173169D01*
X138574864Y-66485461D01*
X138694121Y-66774086D01*
X138914753Y-66995103D01*
X139203169Y-67114863D01*
X139515461Y-67115136D01*
X139804086Y-66995879D01*
X140025103Y-66775247D01*
X140144863Y-66486831D01*
X140145136Y-66174539D01*
X140105000Y-66077402D01*
X140105000Y-64580000D01*
X140049051Y-64298728D01*
X139993037Y-64214897D01*
X139889724Y-64060277D01*
X125989723Y-50160277D01*
X125751272Y-50000949D01*
X125470000Y-49945000D01*
X99120000Y-49945000D01*
X98838728Y-50000949D01*
X98600277Y-50160276D01*
X82690277Y-66070277D01*
X82530949Y-66308728D01*
X82475000Y-66590000D01*
X55710000Y-66590000D01*
X55710000Y-38702815D01*
X136504630Y-38702815D01*
X136828980Y-39487800D01*
X137429041Y-40088909D01*
X138213459Y-40414628D01*
X139062815Y-40415370D01*
X139847800Y-40091020D01*
X140448909Y-39490959D01*
X140774628Y-38706541D01*
X140775370Y-37857185D01*
X140451020Y-37072200D01*
X139850959Y-36471091D01*
X139066541Y-36145372D01*
X138217185Y-36144630D01*
X137432200Y-36468980D01*
X136831091Y-37069041D01*
X136505372Y-37853459D01*
X136504630Y-38702815D01*
X55710000Y-38702815D01*
X55710000Y-23480000D01*
X60290000Y-23480000D01*
X60496286Y-24517072D01*
X61083741Y-25396259D01*
X61962928Y-25983714D01*
X63000000Y-26190000D01*
X64037072Y-25983714D01*
X64748637Y-25508260D01*
X138555540Y-25508260D01*
X138555540Y-25957840D01*
X138713381Y-26497362D01*
X139065673Y-26935412D01*
X139558783Y-27205301D01*
X139641585Y-27222843D01*
X139863640Y-27100856D01*
X139863640Y-25508260D01*
X138555540Y-25508260D01*
X64748637Y-25508260D01*
X64916259Y-25396259D01*
X65503714Y-24517072D01*
X65710000Y-23480000D01*
X65503714Y-22442928D01*
X65236367Y-22042815D01*
X116944630Y-22042815D01*
X117268980Y-22827800D01*
X117869041Y-23428909D01*
X118653459Y-23754628D01*
X119502815Y-23755370D01*
X120287800Y-23431020D01*
X120888909Y-22830959D01*
X121214628Y-22046541D01*
X121215329Y-21243600D01*
X135007160Y-21243600D01*
X135007160Y-22993660D01*
X135237313Y-23896716D01*
X135795531Y-24642955D01*
X136596830Y-25118769D01*
X136894207Y-25199146D01*
X137265220Y-25089345D01*
X137265220Y-21243600D01*
X137519220Y-21243600D01*
X137519220Y-25089345D01*
X137890233Y-25199146D01*
X138187610Y-25118769D01*
X138555540Y-24900291D01*
X138555540Y-25254260D01*
X139863640Y-25254260D01*
X139863640Y-23661664D01*
X140117640Y-23661664D01*
X140117640Y-25254260D01*
X140137640Y-25254260D01*
X140137640Y-25508260D01*
X140117640Y-25508260D01*
X140117640Y-27100856D01*
X140339695Y-27222843D01*
X140422497Y-27205301D01*
X140915607Y-26935412D01*
X141240572Y-26531341D01*
X141475231Y-26882532D01*
X141940811Y-27193623D01*
X142490000Y-27302863D01*
X143039189Y-27193623D01*
X143504769Y-26882532D01*
X143747005Y-26520000D01*
X157532560Y-26520000D01*
X157532560Y-29220000D01*
X157576838Y-29455317D01*
X157715910Y-29671441D01*
X157928110Y-29816431D01*
X158180000Y-29867440D01*
X160880000Y-29867440D01*
X161115317Y-29823162D01*
X161331441Y-29684090D01*
X161476431Y-29471890D01*
X161527440Y-29220000D01*
X161527440Y-26628260D01*
X188285540Y-26628260D01*
X188285540Y-27077840D01*
X188443381Y-27617362D01*
X188795673Y-28055412D01*
X189288783Y-28325301D01*
X189371585Y-28342843D01*
X189593640Y-28220856D01*
X189593640Y-26628260D01*
X188285540Y-26628260D01*
X161527440Y-26628260D01*
X161527440Y-26520000D01*
X161483162Y-26284683D01*
X161344090Y-26068559D01*
X161131890Y-25923569D01*
X160880000Y-25872560D01*
X158180000Y-25872560D01*
X157944683Y-25916838D01*
X157728559Y-26055910D01*
X157583569Y-26268110D01*
X157532560Y-26520000D01*
X143747005Y-26520000D01*
X143815860Y-26416952D01*
X143925100Y-25867763D01*
X143925100Y-24894757D01*
X143815860Y-24345568D01*
X143504769Y-23879988D01*
X143039189Y-23568897D01*
X142490000Y-23459657D01*
X141940811Y-23568897D01*
X141475231Y-23879988D01*
X141240572Y-24231179D01*
X140915607Y-23827108D01*
X140422497Y-23557219D01*
X140339695Y-23539677D01*
X140117640Y-23661664D01*
X139863640Y-23661664D01*
X139641585Y-23539677D01*
X139637924Y-23540453D01*
X139777280Y-22993660D01*
X139777280Y-21243600D01*
X145205260Y-21243600D01*
X145205260Y-22993660D01*
X145435413Y-23896716D01*
X145993631Y-24642955D01*
X146794930Y-25118769D01*
X147092307Y-25199146D01*
X147463320Y-25089345D01*
X147463320Y-21243600D01*
X147717320Y-21243600D01*
X147717320Y-25089345D01*
X148088333Y-25199146D01*
X148385710Y-25118769D01*
X149187009Y-24642955D01*
X149745227Y-23896716D01*
X149830250Y-23563109D01*
X157544657Y-23563109D01*
X157846218Y-24292943D01*
X158404120Y-24851819D01*
X159133427Y-25154654D01*
X159923109Y-25155343D01*
X160652943Y-24853782D01*
X161211819Y-24295880D01*
X161514654Y-23566573D01*
X161515343Y-22776891D01*
X161344575Y-22363600D01*
X184737160Y-22363600D01*
X184737160Y-24113660D01*
X184967313Y-25016716D01*
X185525531Y-25762955D01*
X186326830Y-26238769D01*
X186624207Y-26319146D01*
X186995220Y-26209345D01*
X186995220Y-22363600D01*
X187249220Y-22363600D01*
X187249220Y-26209345D01*
X187620233Y-26319146D01*
X187917610Y-26238769D01*
X188285540Y-26020291D01*
X188285540Y-26374260D01*
X189593640Y-26374260D01*
X189593640Y-24781664D01*
X189847640Y-24781664D01*
X189847640Y-26374260D01*
X189867640Y-26374260D01*
X189867640Y-26628260D01*
X189847640Y-26628260D01*
X189847640Y-28220856D01*
X190069695Y-28342843D01*
X190152497Y-28325301D01*
X190645607Y-28055412D01*
X190970572Y-27651341D01*
X191205231Y-28002532D01*
X191670811Y-28313623D01*
X192220000Y-28422863D01*
X192769189Y-28313623D01*
X193234769Y-28002532D01*
X193545860Y-27536952D01*
X193655100Y-26987763D01*
X193655100Y-26770000D01*
X210852560Y-26770000D01*
X210852560Y-29470000D01*
X210896838Y-29705317D01*
X211035910Y-29921441D01*
X211248110Y-30066431D01*
X211500000Y-30117440D01*
X214200000Y-30117440D01*
X214435317Y-30073162D01*
X214651441Y-29934090D01*
X214796431Y-29721890D01*
X214847440Y-29470000D01*
X214847440Y-26770000D01*
X214803162Y-26534683D01*
X214664090Y-26318559D01*
X214451890Y-26173569D01*
X214200000Y-26122560D01*
X211500000Y-26122560D01*
X211264683Y-26166838D01*
X211048559Y-26305910D01*
X210903569Y-26518110D01*
X210852560Y-26770000D01*
X193655100Y-26770000D01*
X193655100Y-26014757D01*
X193545860Y-25465568D01*
X193234769Y-24999988D01*
X192769189Y-24688897D01*
X192220000Y-24579657D01*
X191670811Y-24688897D01*
X191205231Y-24999988D01*
X190970572Y-25351179D01*
X190645607Y-24947108D01*
X190152497Y-24677219D01*
X190069695Y-24659677D01*
X189847640Y-24781664D01*
X189593640Y-24781664D01*
X189371585Y-24659677D01*
X189367924Y-24660453D01*
X189507280Y-24113660D01*
X189507280Y-22363600D01*
X194935260Y-22363600D01*
X194935260Y-24113660D01*
X195165413Y-25016716D01*
X195723631Y-25762955D01*
X196524930Y-26238769D01*
X196822307Y-26319146D01*
X197193320Y-26209345D01*
X197193320Y-22363600D01*
X197447320Y-22363600D01*
X197447320Y-26209345D01*
X197818333Y-26319146D01*
X198115710Y-26238769D01*
X198917009Y-25762955D01*
X199475227Y-25016716D01*
X199705380Y-24113660D01*
X199705380Y-23813109D01*
X210864657Y-23813109D01*
X211166218Y-24542943D01*
X211724120Y-25101819D01*
X212453427Y-25404654D01*
X213243109Y-25405343D01*
X213972943Y-25103782D01*
X214531819Y-24545880D01*
X214834654Y-23816573D01*
X214834947Y-23480000D01*
X261290000Y-23480000D01*
X261496286Y-24517072D01*
X262083741Y-25396259D01*
X262962928Y-25983714D01*
X264000000Y-26190000D01*
X265037072Y-25983714D01*
X265916259Y-25396259D01*
X266503714Y-24517072D01*
X266710000Y-23480000D01*
X266503714Y-22442928D01*
X265916259Y-21563741D01*
X265037072Y-20976286D01*
X264000000Y-20770000D01*
X262962928Y-20976286D01*
X262083741Y-21563741D01*
X261496286Y-22442928D01*
X261290000Y-23480000D01*
X214834947Y-23480000D01*
X214835343Y-23026891D01*
X214533782Y-22297057D01*
X213975880Y-21738181D01*
X213246573Y-21435346D01*
X212456891Y-21434657D01*
X211727057Y-21736218D01*
X211168181Y-22294120D01*
X210865346Y-23023427D01*
X210864657Y-23813109D01*
X199705380Y-23813109D01*
X199705380Y-22363600D01*
X197447320Y-22363600D01*
X197193320Y-22363600D01*
X194935260Y-22363600D01*
X189507280Y-22363600D01*
X187249220Y-22363600D01*
X186995220Y-22363600D01*
X184737160Y-22363600D01*
X161344575Y-22363600D01*
X161213782Y-22047057D01*
X160655880Y-21488181D01*
X159926573Y-21185346D01*
X159136891Y-21184657D01*
X158407057Y-21486218D01*
X157848181Y-22044120D01*
X157545346Y-22773427D01*
X157544657Y-23563109D01*
X149830250Y-23563109D01*
X149975380Y-22993660D01*
X149975380Y-21243600D01*
X147717320Y-21243600D01*
X147463320Y-21243600D01*
X145205260Y-21243600D01*
X139777280Y-21243600D01*
X137519220Y-21243600D01*
X137265220Y-21243600D01*
X135007160Y-21243600D01*
X121215329Y-21243600D01*
X121215370Y-21197185D01*
X120891020Y-20412200D01*
X120290959Y-19811091D01*
X119506541Y-19485372D01*
X118657185Y-19484630D01*
X117872200Y-19808980D01*
X117271091Y-20409041D01*
X116945372Y-21193459D01*
X116944630Y-22042815D01*
X65236367Y-22042815D01*
X64916259Y-21563741D01*
X64037072Y-20976286D01*
X63000000Y-20770000D01*
X61962928Y-20976286D01*
X61083741Y-21563741D01*
X60496286Y-22442928D01*
X60290000Y-23480000D01*
X55710000Y-23480000D01*
X55710000Y-19239540D01*
X135007160Y-19239540D01*
X135007160Y-20989600D01*
X137265220Y-20989600D01*
X137265220Y-17143855D01*
X137519220Y-17143855D01*
X137519220Y-20989600D01*
X139777280Y-20989600D01*
X139777280Y-19239540D01*
X145205260Y-19239540D01*
X145205260Y-20989600D01*
X147463320Y-20989600D01*
X147463320Y-17143855D01*
X147717320Y-17143855D01*
X147717320Y-20989600D01*
X149975380Y-20989600D01*
X149975380Y-19875593D01*
X158304012Y-19875593D01*
X158445478Y-20178782D01*
X159181955Y-20463737D01*
X159971418Y-20445164D01*
X160178132Y-20359540D01*
X184737160Y-20359540D01*
X184737160Y-22109600D01*
X186995220Y-22109600D01*
X186995220Y-18263855D01*
X187249220Y-18263855D01*
X187249220Y-22109600D01*
X189507280Y-22109600D01*
X189507280Y-20359540D01*
X194935260Y-20359540D01*
X194935260Y-22109600D01*
X197193320Y-22109600D01*
X197193320Y-18263855D01*
X197447320Y-18263855D01*
X197447320Y-22109600D01*
X199705380Y-22109600D01*
X199705380Y-20359540D01*
X199645757Y-20125593D01*
X211624012Y-20125593D01*
X211765478Y-20428782D01*
X212501955Y-20713737D01*
X213291418Y-20695164D01*
X213934522Y-20428782D01*
X214075988Y-20125593D01*
X212850000Y-18899605D01*
X211624012Y-20125593D01*
X199645757Y-20125593D01*
X199475227Y-19456484D01*
X198917009Y-18710245D01*
X198347309Y-18371955D01*
X210856263Y-18371955D01*
X210874836Y-19161418D01*
X211141218Y-19804522D01*
X211444407Y-19945988D01*
X212670395Y-18720000D01*
X213029605Y-18720000D01*
X214255593Y-19945988D01*
X214558782Y-19804522D01*
X214843737Y-19068045D01*
X214825164Y-18278582D01*
X214558782Y-17635478D01*
X214255593Y-17494012D01*
X213029605Y-18720000D01*
X212670395Y-18720000D01*
X211444407Y-17494012D01*
X211141218Y-17635478D01*
X210856263Y-18371955D01*
X198347309Y-18371955D01*
X198115710Y-18234431D01*
X197818333Y-18154054D01*
X197447320Y-18263855D01*
X197193320Y-18263855D01*
X196822307Y-18154054D01*
X196524930Y-18234431D01*
X195723631Y-18710245D01*
X195165413Y-19456484D01*
X194935260Y-20359540D01*
X189507280Y-20359540D01*
X189277127Y-19456484D01*
X188718909Y-18710245D01*
X187917610Y-18234431D01*
X187620233Y-18154054D01*
X187249220Y-18263855D01*
X186995220Y-18263855D01*
X186624207Y-18154054D01*
X186326830Y-18234431D01*
X185525531Y-18710245D01*
X184967313Y-19456484D01*
X184737160Y-20359540D01*
X160178132Y-20359540D01*
X160614522Y-20178782D01*
X160755988Y-19875593D01*
X159530000Y-18649605D01*
X158304012Y-19875593D01*
X149975380Y-19875593D01*
X149975380Y-19239540D01*
X149745227Y-18336484D01*
X149584751Y-18121955D01*
X157536263Y-18121955D01*
X157554836Y-18911418D01*
X157821218Y-19554522D01*
X158124407Y-19695988D01*
X159350395Y-18470000D01*
X159709605Y-18470000D01*
X160935593Y-19695988D01*
X161238782Y-19554522D01*
X161523737Y-18818045D01*
X161505164Y-18028582D01*
X161238782Y-17385478D01*
X161086464Y-17314407D01*
X211624012Y-17314407D01*
X212850000Y-18540395D01*
X214075988Y-17314407D01*
X213934522Y-17011218D01*
X213198045Y-16726263D01*
X212408582Y-16744836D01*
X211765478Y-17011218D01*
X211624012Y-17314407D01*
X161086464Y-17314407D01*
X160935593Y-17244012D01*
X159709605Y-18470000D01*
X159350395Y-18470000D01*
X158124407Y-17244012D01*
X157821218Y-17385478D01*
X157536263Y-18121955D01*
X149584751Y-18121955D01*
X149187009Y-17590245D01*
X148385710Y-17114431D01*
X148200633Y-17064407D01*
X158304012Y-17064407D01*
X159530000Y-18290395D01*
X160755988Y-17064407D01*
X160614522Y-16761218D01*
X159878045Y-16476263D01*
X159088582Y-16494836D01*
X158445478Y-16761218D01*
X158304012Y-17064407D01*
X148200633Y-17064407D01*
X148088333Y-17034054D01*
X147717320Y-17143855D01*
X147463320Y-17143855D01*
X147092307Y-17034054D01*
X146794930Y-17114431D01*
X145993631Y-17590245D01*
X145435413Y-18336484D01*
X145205260Y-19239540D01*
X139777280Y-19239540D01*
X139547127Y-18336484D01*
X138988909Y-17590245D01*
X138187610Y-17114431D01*
X137890233Y-17034054D01*
X137519220Y-17143855D01*
X137265220Y-17143855D01*
X136894207Y-17034054D01*
X136596830Y-17114431D01*
X135795531Y-17590245D01*
X135237313Y-18336484D01*
X135007160Y-19239540D01*
X55710000Y-19239540D01*
X55710000Y-13190000D01*
X270290000Y-13190000D01*
X270290000Y-170770000D01*
G36*
X185847900Y-105666896D02*
X185862043Y-105652754D01*
X186041648Y-105832359D01*
X186027505Y-105846501D01*
X186041648Y-105860643D01*
X185862043Y-106040249D01*
X185847900Y-106026106D01*
X185833758Y-106040249D01*
X185654153Y-105860644D01*
X185668295Y-105846501D01*
X185654152Y-105832359D01*
X185833758Y-105652753D01*
X185847900Y-105666896D01*
X185847900Y-105666896D01*
G37*
X185847900Y-105666896D02*
X185862043Y-105652754D01*
X186041648Y-105832359D01*
X186027505Y-105846501D01*
X186041648Y-105860643D01*
X185862043Y-106040249D01*
X185847900Y-106026106D01*
X185833758Y-106040249D01*
X185654153Y-105860644D01*
X185668295Y-105846501D01*
X185654152Y-105832359D01*
X185833758Y-105652753D01*
X185847900Y-105666896D01*
G36*
X190527506Y-105846501D02*
X190541649Y-105860644D01*
X190397292Y-106005000D01*
X190298510Y-106005000D01*
X190154154Y-105860644D01*
X190168296Y-105846501D01*
X190156795Y-105835000D01*
X190539007Y-105835000D01*
X190527506Y-105846501D01*
X190527506Y-105846501D01*
G37*
X190527506Y-105846501D02*
X190541649Y-105860644D01*
X190397292Y-106005000D01*
X190298510Y-106005000D01*
X190154154Y-105860644D01*
X190168296Y-105846501D01*
X190156795Y-105835000D01*
X190539007Y-105835000D01*
X190527506Y-105846501D01*
G36*
X181041647Y-104333759D02*
X181027504Y-104347901D01*
X181041647Y-104362043D01*
X180862041Y-104541649D01*
X180847899Y-104527506D01*
X180833757Y-104541649D01*
X180654151Y-104362043D01*
X180668294Y-104347901D01*
X180654152Y-104333759D01*
X180833757Y-104154154D01*
X180847899Y-104168296D01*
X180862041Y-104154153D01*
X181041647Y-104333759D01*
X181041647Y-104333759D01*
G37*
X181041647Y-104333759D02*
X181027504Y-104347901D01*
X181041647Y-104362043D01*
X180862041Y-104541649D01*
X180847899Y-104527506D01*
X180833757Y-104541649D01*
X180654151Y-104362043D01*
X180668294Y-104347901D01*
X180654152Y-104333759D01*
X180833757Y-104154154D01*
X180847899Y-104168296D01*
X180862041Y-104154153D01*
X181041647Y-104333759D01*
G36*
X194389548Y-100485859D02*
X194375405Y-100500001D01*
X194389548Y-100514143D01*
X194209942Y-100693749D01*
X194195800Y-100679606D01*
X194181658Y-100693749D01*
X194002052Y-100514143D01*
X194016195Y-100500001D01*
X194002052Y-100485859D01*
X194181658Y-100306254D01*
X194195800Y-100320396D01*
X194209942Y-100306253D01*
X194389548Y-100485859D01*
X194389548Y-100485859D01*
G37*
X194389548Y-100485859D02*
X194375405Y-100500001D01*
X194389548Y-100514143D01*
X194209942Y-100693749D01*
X194195800Y-100679606D01*
X194181658Y-100693749D01*
X194002052Y-100514143D01*
X194016195Y-100500001D01*
X194002052Y-100485859D01*
X194181658Y-100306254D01*
X194195800Y-100320396D01*
X194209942Y-100306253D01*
X194389548Y-100485859D01*
G36*
X175695148Y-100485859D02*
X175681005Y-100500001D01*
X175695148Y-100514143D01*
X175515542Y-100693749D01*
X175501400Y-100679606D01*
X175487258Y-100693749D01*
X175375000Y-100581491D01*
X175375000Y-100418511D01*
X175487258Y-100306254D01*
X175501400Y-100320396D01*
X175515542Y-100306253D01*
X175695148Y-100485859D01*
X175695148Y-100485859D01*
G37*
X175695148Y-100485859D02*
X175681005Y-100500001D01*
X175695148Y-100514143D01*
X175515542Y-100693749D01*
X175501400Y-100679606D01*
X175487258Y-100693749D01*
X175375000Y-100581491D01*
X175375000Y-100418511D01*
X175487258Y-100306254D01*
X175501400Y-100320396D01*
X175515542Y-100306253D01*
X175695148Y-100485859D01*
G36*
X175695148Y-95985858D02*
X175681005Y-96000000D01*
X175695148Y-96014142D01*
X175515543Y-96193748D01*
X175501400Y-96179605D01*
X175487258Y-96193748D01*
X175307652Y-96014142D01*
X175321795Y-96000000D01*
X175307653Y-95985858D01*
X175487258Y-95806253D01*
X175501400Y-95820395D01*
X175515542Y-95806252D01*
X175695148Y-95985858D01*
X175695148Y-95985858D01*
G37*
X175695148Y-95985858D02*
X175681005Y-96000000D01*
X175695148Y-96014142D01*
X175515543Y-96193748D01*
X175501400Y-96179605D01*
X175487258Y-96193748D01*
X175307652Y-96014142D01*
X175321795Y-96000000D01*
X175307653Y-95985858D01*
X175487258Y-95806253D01*
X175501400Y-95820395D01*
X175515542Y-95806252D01*
X175695148Y-95985858D01*
G36*
X195888148Y-95485859D02*
X195874005Y-95500001D01*
X195888148Y-95514143D01*
X195708543Y-95693749D01*
X195694400Y-95679606D01*
X195680258Y-95693749D01*
X195500652Y-95514143D01*
X195514795Y-95500001D01*
X195500653Y-95485859D01*
X195680258Y-95306254D01*
X195694400Y-95320396D01*
X195708542Y-95306253D01*
X195888148Y-95485859D01*
X195888148Y-95485859D01*
G37*
X195888148Y-95485859D02*
X195874005Y-95500001D01*
X195888148Y-95514143D01*
X195708543Y-95693749D01*
X195694400Y-95679606D01*
X195680258Y-95693749D01*
X195500652Y-95514143D01*
X195514795Y-95500001D01*
X195500653Y-95485859D01*
X195680258Y-95306254D01*
X195694400Y-95320396D01*
X195708542Y-95306253D01*
X195888148Y-95485859D01*
G36*
X195888148Y-90985858D02*
X195874005Y-91000000D01*
X195882279Y-91008274D01*
X195702674Y-91187879D01*
X195694400Y-91179605D01*
X195680258Y-91193748D01*
X195500652Y-91014142D01*
X195514795Y-91000000D01*
X195500652Y-90985858D01*
X195680258Y-90806252D01*
X195694400Y-90820395D01*
X195708542Y-90806252D01*
X195888148Y-90985858D01*
X195888148Y-90985858D01*
G37*
X195888148Y-90985858D02*
X195874005Y-91000000D01*
X195882279Y-91008274D01*
X195702674Y-91187879D01*
X195694400Y-91179605D01*
X195680258Y-91193748D01*
X195500652Y-91014142D01*
X195514795Y-91000000D01*
X195500652Y-90985858D01*
X195680258Y-90806252D01*
X195694400Y-90820395D01*
X195708542Y-90806252D01*
X195888148Y-90985858D01*
G36*
X177193748Y-90985858D02*
X177179605Y-91000000D01*
X177193748Y-91014143D01*
X177014143Y-91193748D01*
X177000000Y-91179605D01*
X176985858Y-91193748D01*
X176806252Y-91014142D01*
X176820395Y-91000000D01*
X176806252Y-90985858D01*
X176985858Y-90806252D01*
X177000000Y-90820395D01*
X177014142Y-90806252D01*
X177193748Y-90985858D01*
X177193748Y-90985858D01*
G37*
X177193748Y-90985858D02*
X177179605Y-91000000D01*
X177193748Y-91014143D01*
X177014143Y-91193748D01*
X177000000Y-91179605D01*
X176985858Y-91193748D01*
X176806252Y-91014142D01*
X176820395Y-91000000D01*
X176806252Y-90985858D01*
X176985858Y-90806252D01*
X177000000Y-90820395D01*
X177014142Y-90806252D01*
X177193748Y-90985858D01*
G36*
X190541649Y-87137959D02*
X190527506Y-87152101D01*
X191171502Y-87796096D01*
X191391366Y-87753243D01*
X191541984Y-87308167D01*
X191530471Y-87135000D01*
X192245554Y-87135000D01*
X191215554Y-88165000D01*
X190955001Y-88165000D01*
X190991896Y-87975702D01*
X190347901Y-87331706D01*
X190333759Y-87345849D01*
X190154154Y-87166244D01*
X190168296Y-87152101D01*
X190154154Y-87137959D01*
X190157112Y-87135000D01*
X190538690Y-87135000D01*
X190541649Y-87137959D01*
X190541649Y-87137959D01*
G37*
X190541649Y-87137959D02*
X190527506Y-87152101D01*
X191171502Y-87796096D01*
X191391366Y-87753243D01*
X191541984Y-87308167D01*
X191530471Y-87135000D01*
X192245554Y-87135000D01*
X191215554Y-88165000D01*
X190955001Y-88165000D01*
X190991896Y-87975702D01*
X190347901Y-87331706D01*
X190333759Y-87345849D01*
X190154154Y-87166244D01*
X190168296Y-87152101D01*
X190154154Y-87137959D01*
X190157112Y-87135000D01*
X190538690Y-87135000D01*
X190541649Y-87137959D01*
G36*
X185541648Y-85639359D02*
X185527505Y-85653501D01*
X185541648Y-85667643D01*
X185362042Y-85847249D01*
X185347900Y-85833106D01*
X185333758Y-85847249D01*
X185154153Y-85667644D01*
X185168295Y-85653501D01*
X185154152Y-85639359D01*
X185333758Y-85459754D01*
X185347900Y-85473896D01*
X185362042Y-85459753D01*
X185541648Y-85639359D01*
X185541648Y-85639359D01*
G37*
X185541648Y-85639359D02*
X185527505Y-85653501D01*
X185541648Y-85667643D01*
X185362042Y-85847249D01*
X185347900Y-85833106D01*
X185333758Y-85847249D01*
X185154153Y-85667644D01*
X185168295Y-85653501D01*
X185154152Y-85639359D01*
X185333758Y-85459754D01*
X185347900Y-85473896D01*
X185362042Y-85459753D01*
X185541648Y-85639359D01*
G36*
X181035553Y-85665000D02*
X180656795Y-85665000D01*
X180668294Y-85653501D01*
X180654151Y-85639359D01*
X180832032Y-85461478D01*
X181035553Y-85665000D01*
X181035553Y-85665000D01*
G37*
X181035553Y-85665000D02*
X180656795Y-85665000D01*
X180668294Y-85653501D01*
X180654151Y-85639359D01*
X180832032Y-85461478D01*
X181035553Y-85665000D01*
G36*
X134168748Y-106160858D02*
X134154605Y-106175000D01*
X134168748Y-106189143D01*
X133989143Y-106368748D01*
X133975000Y-106354605D01*
X133960858Y-106368748D01*
X133781253Y-106189143D01*
X133795395Y-106175000D01*
X133781253Y-106160858D01*
X133960858Y-105981253D01*
X133975000Y-105995395D01*
X133989143Y-105981253D01*
X134168748Y-106160858D01*
X134168748Y-106160858D01*
G37*
X134168748Y-106160858D02*
X134154605Y-106175000D01*
X134168748Y-106189143D01*
X133989143Y-106368748D01*
X133975000Y-106354605D01*
X133960858Y-106368748D01*
X133781253Y-106189143D01*
X133795395Y-106175000D01*
X133781253Y-106160858D01*
X133960858Y-105981253D01*
X133975000Y-105995395D01*
X133989143Y-105981253D01*
X134168748Y-106160858D01*
M02*
