G04 #@! TF.FileFunction,Legend,Top*
%FSLAX46Y46*%
G04 Gerber Fmt 4.6, Leading zero omitted, Abs format (unit mm)*
G04 Created by KiCad (PCBNEW 4.0.4-snap1-stable) date Wed Apr 29 16:08:13 2020*
%MOMM*%
%LPD*%
G01*
G04 APERTURE LIST*
%ADD10C,0.100000*%
%ADD11C,0.300000*%
%ADD12C,0.200000*%
%ADD13C,0.150000*%
%ADD14C,0.152400*%
%ADD15C,0.127000*%
%ADD16C,0.050000*%
G04 APERTURE END LIST*
D10*
D11*
X69112858Y-165778571D02*
X69112858Y-164278571D01*
X69612858Y-165350000D01*
X70112858Y-164278571D01*
X70112858Y-165778571D01*
X71541430Y-165778571D02*
X70827144Y-165778571D01*
X70827144Y-164278571D01*
X73827144Y-165707143D02*
X73684287Y-165778571D01*
X73398573Y-165778571D01*
X73255715Y-165707143D01*
X73184287Y-165635714D01*
X73112858Y-165492857D01*
X73112858Y-165064286D01*
X73184287Y-164921429D01*
X73255715Y-164850000D01*
X73398573Y-164778571D01*
X73684287Y-164778571D01*
X73827144Y-164850000D01*
X74684287Y-165778571D02*
X74541429Y-165707143D01*
X74470001Y-165635714D01*
X74398572Y-165492857D01*
X74398572Y-165064286D01*
X74470001Y-164921429D01*
X74541429Y-164850000D01*
X74684287Y-164778571D01*
X74898572Y-164778571D01*
X75041429Y-164850000D01*
X75112858Y-164921429D01*
X75184287Y-165064286D01*
X75184287Y-165492857D01*
X75112858Y-165635714D01*
X75041429Y-165707143D01*
X74898572Y-165778571D01*
X74684287Y-165778571D01*
X75827144Y-165778571D02*
X75827144Y-164778571D01*
X75827144Y-165064286D02*
X75898572Y-164921429D01*
X75970001Y-164850000D01*
X76112858Y-164778571D01*
X76255715Y-164778571D01*
X77327143Y-165707143D02*
X77184286Y-165778571D01*
X76898572Y-165778571D01*
X76755715Y-165707143D01*
X76684286Y-165564286D01*
X76684286Y-164992857D01*
X76755715Y-164850000D01*
X76898572Y-164778571D01*
X77184286Y-164778571D01*
X77327143Y-164850000D01*
X77398572Y-164992857D01*
X77398572Y-165135714D01*
X76684286Y-165278571D01*
X79112857Y-164207143D02*
X77827143Y-166135714D01*
X80470001Y-165778571D02*
X79970001Y-165064286D01*
X79612858Y-165778571D02*
X79612858Y-164278571D01*
X80184286Y-164278571D01*
X80327144Y-164350000D01*
X80398572Y-164421429D01*
X80470001Y-164564286D01*
X80470001Y-164778571D01*
X80398572Y-164921429D01*
X80327144Y-164992857D01*
X80184286Y-165064286D01*
X79612858Y-165064286D01*
X81112858Y-165778571D02*
X81112858Y-164278571D01*
X81755715Y-165707143D02*
X81970001Y-165778571D01*
X82327144Y-165778571D01*
X82470001Y-165707143D01*
X82541430Y-165635714D01*
X82612858Y-165492857D01*
X82612858Y-165350000D01*
X82541430Y-165207143D01*
X82470001Y-165135714D01*
X82327144Y-165064286D01*
X82041430Y-164992857D01*
X81898572Y-164921429D01*
X81827144Y-164850000D01*
X81755715Y-164707143D01*
X81755715Y-164564286D01*
X81827144Y-164421429D01*
X81898572Y-164350000D01*
X82041430Y-164278571D01*
X82398572Y-164278571D01*
X82612858Y-164350000D01*
X84112858Y-165635714D02*
X84041429Y-165707143D01*
X83827143Y-165778571D01*
X83684286Y-165778571D01*
X83470001Y-165707143D01*
X83327143Y-165564286D01*
X83255715Y-165421429D01*
X83184286Y-165135714D01*
X83184286Y-164921429D01*
X83255715Y-164635714D01*
X83327143Y-164492857D01*
X83470001Y-164350000D01*
X83684286Y-164278571D01*
X83827143Y-164278571D01*
X84041429Y-164350000D01*
X84112858Y-164421429D01*
X84541429Y-164278571D02*
X85041429Y-165778571D01*
X85541429Y-164278571D01*
D12*
X136700000Y-61900000D02*
G75*
G03X136700000Y-61900000I-100000J0D01*
G01*
X124185000Y-119065000D02*
X137415000Y-119065000D01*
X137415000Y-119065000D02*
X137415000Y-62435000D01*
X137415000Y-62435000D02*
X134700000Y-62435000D01*
X133650000Y-61635000D02*
X127950000Y-61635000D01*
X127950000Y-61635000D02*
X127950000Y-62435000D01*
X127950000Y-62435000D02*
X124185000Y-62435000D01*
X124185000Y-62435000D02*
X124185000Y-119065000D01*
X133650000Y-61635000D02*
X133650000Y-62000000D01*
D13*
X136990900Y-8579160D02*
X147989100Y-7779060D01*
X136990900Y-9379260D02*
X147989100Y-8579160D01*
X136990900Y-10179360D02*
X147989100Y-9379260D01*
X136990900Y-10979460D02*
X147989100Y-10179360D01*
X136990900Y-11779560D02*
X147989100Y-10979460D01*
X136990900Y-12579660D02*
X147989100Y-11779560D01*
X143490760Y2319980D02*
G75*
G03X143490760Y2319980I-1000760J0D01*
G01*
X147290600Y-5681020D02*
X147290600Y6320480D01*
X147290600Y6320480D02*
X137689400Y6320480D01*
X137689400Y6320480D02*
X137689400Y-5681020D01*
X147989100Y-13179100D02*
X147989100Y-5681020D01*
X147989100Y-5681020D02*
X136990900Y-5681020D01*
X136990900Y-5681020D02*
X136990900Y-13179100D01*
X134689660Y-27580900D02*
X150290340Y-27580900D01*
X150290340Y-27580900D02*
X150290340Y-13179100D01*
X150290340Y-13179100D02*
X134689660Y-13179100D01*
X134689660Y-13179100D02*
X134689660Y-27580900D01*
X186720900Y-9699160D02*
X197719100Y-8899060D01*
X186720900Y-10499260D02*
X197719100Y-9699160D01*
X186720900Y-11299360D02*
X197719100Y-10499260D01*
X186720900Y-12099460D02*
X197719100Y-11299360D01*
X186720900Y-12899560D02*
X197719100Y-12099460D01*
X186720900Y-13699660D02*
X197719100Y-12899560D01*
X193220760Y1199980D02*
G75*
G03X193220760Y1199980I-1000760J0D01*
G01*
X197020600Y-6801020D02*
X197020600Y5200480D01*
X197020600Y5200480D02*
X187419400Y5200480D01*
X187419400Y5200480D02*
X187419400Y-6801020D01*
X197719100Y-14299100D02*
X197719100Y-6801020D01*
X197719100Y-6801020D02*
X186720900Y-6801020D01*
X186720900Y-6801020D02*
X186720900Y-14299100D01*
X184419660Y-28700900D02*
X200020340Y-28700900D01*
X200020340Y-28700900D02*
X200020340Y-14299100D01*
X200020340Y-14299100D02*
X184419660Y-14299100D01*
X184419660Y-14299100D02*
X184419660Y-28700900D01*
D14*
X170459500Y-110888401D02*
X172006536Y-110888401D01*
X200736300Y-110888401D02*
X200736300Y-82341164D01*
X200736300Y-80611601D02*
X199189264Y-80611601D01*
X170459500Y-80611601D02*
X170459500Y-109158837D01*
X172189064Y-110888401D02*
X200736300Y-110888401D01*
X170459500Y-109341364D02*
X170459500Y-110888401D01*
X200736300Y-82158637D02*
X200736300Y-80611601D01*
X199006736Y-80611601D02*
X170459500Y-80611601D01*
X177254000Y-79570000D02*
G75*
G03X177254000Y-79570000I-254000J0D01*
G01*
D12*
X212950000Y-30720000D02*
G75*
G03X212950000Y-30720000I-100000J0D01*
G01*
D15*
X209550000Y-29770000D02*
X216150000Y-29770000D01*
X216150000Y-29770000D02*
X216150000Y-17070000D01*
X216150000Y-17070000D02*
X209550000Y-17070000D01*
X209550000Y-17070000D02*
X209550000Y-18820000D01*
X209550000Y-18820000D02*
X209050000Y-18820000D01*
X209050000Y-18820000D02*
X209050000Y-20020000D01*
X209050000Y-20020000D02*
X209550000Y-20020000D01*
X209550000Y-20020000D02*
X209550000Y-26820000D01*
X209550000Y-26820000D02*
X209050000Y-26820000D01*
X209050000Y-26820000D02*
X209050000Y-28020000D01*
X209050000Y-28020000D02*
X209550000Y-28020000D01*
X209550000Y-28020000D02*
X209550000Y-29770000D01*
D12*
X159630000Y-30470000D02*
G75*
G03X159630000Y-30470000I-100000J0D01*
G01*
D15*
X156230000Y-29520000D02*
X162830000Y-29520000D01*
X162830000Y-29520000D02*
X162830000Y-16820000D01*
X162830000Y-16820000D02*
X156230000Y-16820000D01*
X156230000Y-16820000D02*
X156230000Y-18570000D01*
X156230000Y-18570000D02*
X155730000Y-18570000D01*
X155730000Y-18570000D02*
X155730000Y-19770000D01*
X155730000Y-19770000D02*
X156230000Y-19770000D01*
X156230000Y-19770000D02*
X156230000Y-26570000D01*
X156230000Y-26570000D02*
X155730000Y-26570000D01*
X155730000Y-26570000D02*
X155730000Y-27770000D01*
X155730000Y-27770000D02*
X156230000Y-27770000D01*
X156230000Y-27770000D02*
X156230000Y-29520000D01*
D16*
X138507690Y-65878634D02*
X139224547Y-65878634D01*
X139367918Y-65926424D01*
X139463499Y-66022005D01*
X139511290Y-66165377D01*
X139511290Y-66260958D01*
X139511290Y-64875033D02*
X139511290Y-65448519D01*
X139511290Y-65161776D02*
X138507690Y-65161776D01*
X138651061Y-65257357D01*
X138746642Y-65352938D01*
X138794432Y-65448519D01*
X122710020Y-72464920D02*
X122710020Y-71987063D01*
X122996734Y-72560492D02*
X121993234Y-72225992D01*
X122996734Y-71891492D01*
X122948949Y-71604777D02*
X122996734Y-71461420D01*
X122996734Y-71222491D01*
X122948949Y-71126920D01*
X122901163Y-71079134D01*
X122805591Y-71031349D01*
X122710020Y-71031349D01*
X122614449Y-71079134D01*
X122566663Y-71126920D01*
X122518877Y-71222491D01*
X122471091Y-71413634D01*
X122423306Y-71509206D01*
X122375520Y-71556991D01*
X122279949Y-71604777D01*
X122184377Y-71604777D01*
X122088806Y-71556991D01*
X122041020Y-71509206D01*
X121993234Y-71413634D01*
X121993234Y-71174706D01*
X122041020Y-71031349D01*
X122996734Y-70601277D02*
X121993234Y-70601277D01*
X121993234Y-70218992D01*
X122041020Y-70123420D01*
X122088806Y-70075635D01*
X122184377Y-70027849D01*
X122327734Y-70027849D01*
X122423306Y-70075635D01*
X122471091Y-70123420D01*
X122518877Y-70218992D01*
X122518877Y-70601277D01*
X122614449Y-69597777D02*
X122614449Y-68833206D01*
X122996734Y-67829706D02*
X122996734Y-68403134D01*
X122996734Y-68116420D02*
X121993234Y-68116420D01*
X122136591Y-68211991D01*
X122232163Y-68307563D01*
X122279949Y-68403134D01*
X121993234Y-67495206D02*
X121993234Y-66873992D01*
X122375520Y-67208492D01*
X122375520Y-67065134D01*
X122423306Y-66969563D01*
X122471091Y-66921777D01*
X122566663Y-66873992D01*
X122805591Y-66873992D01*
X122901163Y-66921777D01*
X122948949Y-66969563D01*
X122996734Y-67065134D01*
X122996734Y-67351849D01*
X122948949Y-67447420D01*
X122901163Y-67495206D01*
X122327734Y-66013849D02*
X122996734Y-66013849D01*
X121945449Y-66252778D02*
X122662234Y-66491706D01*
X122662234Y-65870492D01*
X122327734Y-65058135D02*
X122996734Y-65058135D01*
X121945449Y-65297064D02*
X122662234Y-65535992D01*
X122662234Y-64914778D01*
X122423306Y-64389135D02*
X122375520Y-64484707D01*
X122327734Y-64532492D01*
X122232163Y-64580278D01*
X122184377Y-64580278D01*
X122088806Y-64532492D01*
X122041020Y-64484707D01*
X121993234Y-64389135D01*
X121993234Y-64197992D01*
X122041020Y-64102421D01*
X122088806Y-64054635D01*
X122184377Y-64006850D01*
X122232163Y-64006850D01*
X122327734Y-64054635D01*
X122375520Y-64102421D01*
X122423306Y-64197992D01*
X122423306Y-64389135D01*
X122471091Y-64484707D01*
X122518877Y-64532492D01*
X122614449Y-64580278D01*
X122805591Y-64580278D01*
X122901163Y-64532492D01*
X122948949Y-64484707D01*
X122996734Y-64389135D01*
X122996734Y-64197992D01*
X122948949Y-64102421D01*
X122901163Y-64054635D01*
X122805591Y-64006850D01*
X122614449Y-64006850D01*
X122518877Y-64054635D01*
X122471091Y-64102421D01*
X122423306Y-64197992D01*
X121993234Y-63146707D02*
X121993234Y-63337850D01*
X122041020Y-63433421D01*
X122088806Y-63481207D01*
X122232163Y-63576778D01*
X122423306Y-63624564D01*
X122805591Y-63624564D01*
X122901163Y-63576778D01*
X122948949Y-63528993D01*
X122996734Y-63433421D01*
X122996734Y-63242278D01*
X122948949Y-63146707D01*
X122901163Y-63098921D01*
X122805591Y-63051136D01*
X122566663Y-63051136D01*
X122471091Y-63098921D01*
X122423306Y-63146707D01*
X122375520Y-63242278D01*
X122375520Y-63433421D01*
X122423306Y-63528993D01*
X122471091Y-63576778D01*
X122566663Y-63624564D01*
X122614449Y-62621064D02*
X122614449Y-61856493D01*
X121993234Y-61187493D02*
X121993234Y-61091921D01*
X122041020Y-60996350D01*
X122088806Y-60948564D01*
X122184377Y-60900778D01*
X122375520Y-60852993D01*
X122614449Y-60852993D01*
X122805591Y-60900778D01*
X122901163Y-60948564D01*
X122948949Y-60996350D01*
X122996734Y-61091921D01*
X122996734Y-61187493D01*
X122948949Y-61283064D01*
X122901163Y-61330850D01*
X122805591Y-61378635D01*
X122614449Y-61426421D01*
X122375520Y-61426421D01*
X122184377Y-61378635D01*
X122088806Y-61330850D01*
X122041020Y-61283064D01*
X121993234Y-61187493D01*
X122996734Y-59897279D02*
X122996734Y-60470707D01*
X122996734Y-60183993D02*
X121993234Y-60183993D01*
X122136591Y-60279564D01*
X122232163Y-60375136D01*
X122279949Y-60470707D01*
D13*
X142259905Y-30484381D02*
X142259905Y-29484381D01*
X142640858Y-29484381D01*
X142736096Y-29532000D01*
X142783715Y-29579619D01*
X142831334Y-29674857D01*
X142831334Y-29817714D01*
X142783715Y-29912952D01*
X142736096Y-29960571D01*
X142640858Y-30008190D01*
X142259905Y-30008190D01*
X143783715Y-30484381D02*
X143212286Y-30484381D01*
X143498000Y-30484381D02*
X143498000Y-29484381D01*
X143402762Y-29627238D01*
X143307524Y-29722476D01*
X143212286Y-29770095D01*
X191989905Y-31604381D02*
X191989905Y-30604381D01*
X192370858Y-30604381D01*
X192466096Y-30652000D01*
X192513715Y-30699619D01*
X192561334Y-30794857D01*
X192561334Y-30937714D01*
X192513715Y-31032952D01*
X192466096Y-31080571D01*
X192370858Y-31128190D01*
X191989905Y-31128190D01*
X192942286Y-30699619D02*
X192989905Y-30652000D01*
X193085143Y-30604381D01*
X193323239Y-30604381D01*
X193418477Y-30652000D01*
X193466096Y-30699619D01*
X193513715Y-30794857D01*
X193513715Y-30890095D01*
X193466096Y-31032952D01*
X192894667Y-31604381D01*
X193513715Y-31604381D01*
X184835995Y-95202382D02*
X184835995Y-96011906D01*
X184883614Y-96107144D01*
X184931233Y-96154763D01*
X185026471Y-96202382D01*
X185216948Y-96202382D01*
X185312186Y-96154763D01*
X185359805Y-96107144D01*
X185407424Y-96011906D01*
X185407424Y-95202382D01*
X186407424Y-96202382D02*
X185835995Y-96202382D01*
X186121709Y-96202382D02*
X186121709Y-95202382D01*
X186026471Y-95345239D01*
X185931233Y-95440477D01*
X185835995Y-95488096D01*
X184169329Y-96107144D02*
X184121710Y-96154763D01*
X183978853Y-96202382D01*
X183883615Y-96202382D01*
X183740757Y-96154763D01*
X183645519Y-96059525D01*
X183597900Y-95964287D01*
X183550281Y-95773811D01*
X183550281Y-95630953D01*
X183597900Y-95440477D01*
X183645519Y-95345239D01*
X183740757Y-95250001D01*
X183883615Y-95202382D01*
X183978853Y-95202382D01*
X184121710Y-95250001D01*
X184169329Y-95297620D01*
X184597900Y-96202382D02*
X184597900Y-95202382D01*
X184597900Y-95678572D02*
X185169329Y-95678572D01*
X185169329Y-96202382D02*
X185169329Y-95202382D01*
X185645519Y-96202382D02*
X185645519Y-95202382D01*
X186121709Y-96202382D02*
X186121709Y-95202382D01*
X186502662Y-95202382D01*
X186597900Y-95250001D01*
X186645519Y-95297620D01*
X186693138Y-95392858D01*
X186693138Y-95535715D01*
X186645519Y-95630953D01*
X186597900Y-95678572D01*
X186502662Y-95726191D01*
X186121709Y-95726191D01*
X187074090Y-95297620D02*
X187121709Y-95250001D01*
X187216947Y-95202382D01*
X187455043Y-95202382D01*
X187550281Y-95250001D01*
X187597900Y-95297620D01*
X187645519Y-95392858D01*
X187645519Y-95488096D01*
X187597900Y-95630953D01*
X187026471Y-96202382D01*
X187645519Y-96202382D01*
X177000000Y-90452381D02*
X177000000Y-90690476D01*
X176761905Y-90595238D02*
X177000000Y-90690476D01*
X177238096Y-90595238D01*
X176857143Y-90880952D02*
X177000000Y-90690476D01*
X177142858Y-90880952D01*
D16*
X208562648Y-28162733D02*
X208593124Y-28071305D01*
X208593124Y-27918924D01*
X208562648Y-27857971D01*
X208532171Y-27827495D01*
X208471219Y-27797019D01*
X208410267Y-27797019D01*
X208349314Y-27827495D01*
X208318838Y-27857971D01*
X208288362Y-27918924D01*
X208257886Y-28040828D01*
X208227410Y-28101781D01*
X208196933Y-28132257D01*
X208135981Y-28162733D01*
X208075029Y-28162733D01*
X208014076Y-28132257D01*
X207983600Y-28101781D01*
X207953124Y-28040828D01*
X207953124Y-27888448D01*
X207983600Y-27797019D01*
X207953124Y-27583685D02*
X208593124Y-27431304D01*
X208135981Y-27309400D01*
X208593124Y-27187495D01*
X207953124Y-27035114D01*
X208014076Y-26821780D02*
X207983600Y-26791304D01*
X207953124Y-26730352D01*
X207953124Y-26577971D01*
X207983600Y-26517018D01*
X208014076Y-26486542D01*
X208075029Y-26456066D01*
X208135981Y-26456066D01*
X208227410Y-26486542D01*
X208593124Y-26852256D01*
X208593124Y-26456066D01*
X217655448Y-30108714D02*
X217685924Y-30017286D01*
X217685924Y-29864905D01*
X217655448Y-29803952D01*
X217624971Y-29773476D01*
X217564019Y-29743000D01*
X217503067Y-29743000D01*
X217442114Y-29773476D01*
X217411638Y-29803952D01*
X217381162Y-29864905D01*
X217350686Y-29986809D01*
X217320210Y-30047762D01*
X217289733Y-30078238D01*
X217228781Y-30108714D01*
X217167829Y-30108714D01*
X217106876Y-30078238D01*
X217076400Y-30047762D01*
X217045924Y-29986809D01*
X217045924Y-29834429D01*
X217076400Y-29743000D01*
X217045924Y-29529666D02*
X217685924Y-29377285D01*
X217228781Y-29255381D01*
X217685924Y-29133476D01*
X217045924Y-28981095D01*
X217685924Y-28737285D02*
X217045924Y-28737285D01*
X217045924Y-28523952D02*
X217045924Y-28158237D01*
X217685924Y-28341094D02*
X217045924Y-28341094D01*
X217624971Y-27579190D02*
X217655448Y-27609666D01*
X217685924Y-27701095D01*
X217685924Y-27762047D01*
X217655448Y-27853475D01*
X217594495Y-27914428D01*
X217533543Y-27944904D01*
X217411638Y-27975380D01*
X217320210Y-27975380D01*
X217198305Y-27944904D01*
X217137352Y-27914428D01*
X217076400Y-27853475D01*
X217045924Y-27762047D01*
X217045924Y-27701095D01*
X217076400Y-27609666D01*
X217106876Y-27579190D01*
X217685924Y-27304904D02*
X217045924Y-27304904D01*
X217350686Y-27304904D02*
X217350686Y-26939190D01*
X217685924Y-26939190D02*
X217045924Y-26939190D01*
X217746876Y-26786809D02*
X217746876Y-26299190D01*
X217685924Y-26146809D02*
X217045924Y-26146809D01*
X217685924Y-25842047D02*
X217045924Y-25842047D01*
X217685924Y-25476333D01*
X217045924Y-25476333D01*
X217045924Y-25263000D02*
X217685924Y-25049666D01*
X217045924Y-24836333D01*
X155242648Y-27912733D02*
X155273124Y-27821305D01*
X155273124Y-27668924D01*
X155242648Y-27607971D01*
X155212171Y-27577495D01*
X155151219Y-27547019D01*
X155090267Y-27547019D01*
X155029314Y-27577495D01*
X154998838Y-27607971D01*
X154968362Y-27668924D01*
X154937886Y-27790828D01*
X154907410Y-27851781D01*
X154876933Y-27882257D01*
X154815981Y-27912733D01*
X154755029Y-27912733D01*
X154694076Y-27882257D01*
X154663600Y-27851781D01*
X154633124Y-27790828D01*
X154633124Y-27638448D01*
X154663600Y-27547019D01*
X154633124Y-27333685D02*
X155273124Y-27181304D01*
X154815981Y-27059400D01*
X155273124Y-26937495D01*
X154633124Y-26785114D01*
X155273124Y-26206066D02*
X155273124Y-26571780D01*
X155273124Y-26388923D02*
X154633124Y-26388923D01*
X154724552Y-26449875D01*
X154785505Y-26510828D01*
X154815981Y-26571780D01*
X164335448Y-29858714D02*
X164365924Y-29767286D01*
X164365924Y-29614905D01*
X164335448Y-29553952D01*
X164304971Y-29523476D01*
X164244019Y-29493000D01*
X164183067Y-29493000D01*
X164122114Y-29523476D01*
X164091638Y-29553952D01*
X164061162Y-29614905D01*
X164030686Y-29736809D01*
X164000210Y-29797762D01*
X163969733Y-29828238D01*
X163908781Y-29858714D01*
X163847829Y-29858714D01*
X163786876Y-29828238D01*
X163756400Y-29797762D01*
X163725924Y-29736809D01*
X163725924Y-29584429D01*
X163756400Y-29493000D01*
X163725924Y-29279666D02*
X164365924Y-29127285D01*
X163908781Y-29005381D01*
X164365924Y-28883476D01*
X163725924Y-28731095D01*
X164365924Y-28487285D02*
X163725924Y-28487285D01*
X163725924Y-28273952D02*
X163725924Y-27908237D01*
X164365924Y-28091094D02*
X163725924Y-28091094D01*
X164304971Y-27329190D02*
X164335448Y-27359666D01*
X164365924Y-27451095D01*
X164365924Y-27512047D01*
X164335448Y-27603475D01*
X164274495Y-27664428D01*
X164213543Y-27694904D01*
X164091638Y-27725380D01*
X164000210Y-27725380D01*
X163878305Y-27694904D01*
X163817352Y-27664428D01*
X163756400Y-27603475D01*
X163725924Y-27512047D01*
X163725924Y-27451095D01*
X163756400Y-27359666D01*
X163786876Y-27329190D01*
X164365924Y-27054904D02*
X163725924Y-27054904D01*
X164030686Y-27054904D02*
X164030686Y-26689190D01*
X164365924Y-26689190D02*
X163725924Y-26689190D01*
X164426876Y-26536809D02*
X164426876Y-26049190D01*
X164365924Y-25896809D02*
X163725924Y-25896809D01*
X164365924Y-25592047D02*
X163725924Y-25592047D01*
X164365924Y-25226333D01*
X163725924Y-25226333D01*
X163725924Y-25013000D02*
X164365924Y-24799666D01*
X163725924Y-24586333D01*
M02*
